<svg xmlns="http://www.w3.org/2000/svg" xmlns:xlink="http://www.w3.org/1999/xlink" viewBox="0 0 560 425" xmlns:v="https://vecta.io/nano"><style><![CDATA[.p{enable-background:new}.q{fill:#6c63ff}.r{opacity:.1}.s{opacity:.5}.t{opacity:.2}.u{opacity:.05}]]></style><g class="q p"><path d="M36.2 245.2c-6.2 1-14 3.9-13.9 10.6 0 3.4 2.3 6.3 4.5 8.8 9.4 10.6 20 20.1 31.7 28 5.6 3.8 11.6 7.4 15.3 13.3s4.7 13.3 4.9 20.4c.7 16.8-1.3 33.6-5.9 49.8 18.2 3.5 38.6 6.5 53.8-4.5 9.1-6.6 15.3-17.6 25.4-22.1 6.8-3 14.4-2.8 21.8-2.4 34.9 1.8 69.8 5.3 104.6 10.4 14.6 2.1 29.4 4.5 43.8 1.8s28.6-11.7 33.9-26.2c.8-2.2 1.5-4.7 3.4-6.1 1.7-1.2 3.8-1.2 5.8-1.1l121.7 4.2c6.7.2 13.6.4 19.7-2.3 5.9-2.7 10.5-7.8 14.8-12.8 10-11.4 20.8-25.5 17.8-41-2.4-12.4-12.9-21.1-23.3-27.2s-22-11.1-29.6-20.8c-11.7-14.8-11.2-35.9-11.9-55.1-.7-17.4-2.8-34.7-6.4-51.7-3.2-14.9-7.6-29.9-15.8-42.6s-20.8-22.6-35-24.5c-18.6-2.4-37.3 9.2-55.5 4.3-15.4-4.1-26-18.9-38.7-29-22.6-18.2-52.3-22-80.4-22.3-29.8-.4-60.3 2.6-86.8 16.6-6.1 3.2-12 7.1-16.2 12.7-6.4 8.7-8 20.3-12.2 30.5-17 40.8-72.3 49.6-90.3 90-6.4 14.3-6.3 31-1.7 46.1 5 16.2 19 25.1 24.6 39.2-6 3.8-16.6 3.8-23.9 5z" class="r"/><circle cx="252.9" cy="215.6" r="206.4" class="r"/></g><path d="M255.6 383.2h0-1.3v-.6h1.3v.6zm3.8 0v-.6h1.3v.6h-1.3zm-8.8 0h-1.3v-.6h1.3v.6zm13.9-.2v-.6c.4 0 .8 0 1.3-.1v.6c-.5.1-.9.1-1.3.1zm-18.9 0c-.4 0-.8 0-1.3-.1v-.6c.4 0 .8 0 1.3.1v.6zm23.9-.3v-.6c.4 0 .8-.1 1.3-.1v.6c-.5 0-.9.1-1.3.1zm-29-.1c-.4 0-.8-.1-1.3-.1l.1-.6c.4 0 .8.1 1.3.1l-.1.6zm34-.4l-.1-.6c.4 0 .8-.1 1.3-.1l.1.6c-.4.1-.9.1-1.3.1zm-39-.1c-.4 0-.8-.1-1.3-.1l.1-.6c.4 0 .8.1 1.3.1l-.1.6zm44-.5l-.1-.6c.4-.1.8-.1 1.3-.2l.1.6c-.4.1-.9.2-1.3.2zm-49-.1c-.4-.1-.8-.1-1.3-.2l.1-.6c.4.1.8.1 1.2.2v.6zm54-.6l-.1-.6c.4-.1.8-.1 1.2-.2l.1.6c-.4 0-.8.1-1.2.2zm-59-.2c-.4-.1-.8-.1-1.2-.2l.1-.6c.4.1.8.1 1.2.2l-.1.6zm64-.7l-.1-.6c.4-.1.8-.2 1.2-.2l.1.6c-.4 0-.8.1-1.2.2zm-68.9-.2l-1.2-.3.1-.6 1.2.3-.1.6zm73.8-.8l-.1-.6 1.2-.3.1.6-1.2.3zm-78.8-.3l-1.2-.3.1-.6 1.2.3-.1.6zm83.7-.9l-.2-.6 1.2-.3.2.6-1.2.3zm-88.6-.3l-1.2-.3.2-.6 1.2.3-.2.6zm93.5-1l-.2-.6c.4-.1.8-.2 1.2-.4l.2.6c-.4.1-.8.3-1.2.4zm-98.3-.3c-.4-.1-.8-.2-1.2-.4l.2-.6c.4.1.8.2 1.2.4l-.2.6zM309 375l-.2-.6c.4-.1.8-.3 1.2-.4l.2.6c-.4.2-.8.3-1.2.4zm-108-.3c-.4-.1-.8-.3-1.2-.4l.2-.6c.4.1.8.3 1.2.4l-.2.6zm112.8-1.3l-.2-.6c.4-.1.8-.3 1.2-.4l.2.6c-.4.1-.8.3-1.2.4zm-117.6-.4c-.4-.1-.8-.3-1.2-.4l.2-.6c.4.1.8.3 1.2.4l-.2.6zm122.3-1.3l-.2-.6c.4-.1.8-.3 1.2-.5l.2.6c-.4.2-.8.3-1.2.5zm-127-.4c-.4-.1-.8-.3-1.2-.5l.2-.6c.4.2.8.3 1.2.5l-.2.6zm131.7-1.5l-.2-.6c.4-.2.8-.3 1.1-.5l.3.6c-.4.2-.8.4-1.2.5zm-136.4-.4c-.4-.2-.8-.3-1.2-.5l.3-.6c.4.2.8.3 1.2.5l-.3.6zm141-1.6l-.3-.6c.4-.2.8-.3 1.1-.5l.3.6c-.3.2-.7.4-1.1.5zm-145.6-.5l-1.1-.5.3-.6 1.1.5-.3.6zm150.2-1.6l-.3-.6 1.1-.5.3.6c-.4.1-.7.3-1.1.5zm-154.8-.5l-1.1-.6.3-.6 1.1.6-.3.6zm159.3-1.7l-.3-.6 1.1-.6.3.6-1.1.6zm-163.8-.6l-1.1-.6.3-.6 1.1.6-.3.6zm168.2-1.8l-.3-.5 1.1-.6.3.5-1.1.6zm-172.6-.7l-1.1-.6.3-.5 1.1.6-.3.5zm177-1.8l-.3-.5 1.1-.6.3.5c-.4.1-.8.4-1.1.6zm-181.4-.7c-.4-.2-.7-.4-1.1-.7l.3-.5c.4.2.7.4 1.1.7l-.3.5zm185.7-2l-.3-.5c.4-.2.7-.5 1.1-.7l.3.5c-.4.3-.8.5-1.1.7zm-190-.7c-.4-.2-.7-.5-1.1-.7l.4-.5c.4.2.7.5 1.1.7l-.4.5zm194.2-2l-.4-.5c.4-.2.7-.5 1-.7l.4.5c-.3.2-.7.4-1 .7zm-198.4-.8c-.4-.2-.7-.5-1-.7l.4-.5 1 .7-.4.5zm202.5-2.1l-.4-.5 1-.7.4.5c-.3.2-.6.5-1 .7zm-206.6-.8c-.3-.3-.7-.5-1-.8l.4-.5c.3.3.7.5 1 .7l-.4.6zm210.7-2.2l-.4-.5c.3-.3.7-.5 1-.8l.4.5-1 .8zm-214.7-.8c-.3-.3-.7-.5-1-.8l.4-.5c.3.3.7.5 1 .8l-.4.5zm218.6-2.3l-.4-.5c.3-.3.6-.5 1-.8l.4.5c-.3.3-.6.5-1 .8zm-222.6-.9c-.3-.3-.6-.5-1-.8l.4-.5c.3.3.6.5 1 .8l-.4.5zm226.5-2.3l-.4-.5c.3-.3.6-.5 1-.8l.4.5c-.3.2-.7.5-1 .8zm-230.3-.9c-.3-.3-.6-.5-.9-.8l.4-.5c.3.3.6.5.9.8l-.4.5zm234.1-2.4l-.4-.5.9-.9.4.5-.9.9zm-237.9-1l-.9-.9.4-.5.9.9-.4.5zm241.6-2.5l-.4-.5.9-.9.4.5c-.3.4-.6.6-.9.9zm-245.3-1l-.9-.9.4-.5.9.9-.4.5zm248.9-2.5l-.5-.4.9-.9.5.4-.9.9zm-252.4-1l-.9-.9.5-.4.9.9-.5.4zm255.9-2.6l-.5-.4.9-.9.5.4c-.3.2-.6.5-.9.9zM125.4 326l-.9-.9.5-.4.9.9-.5.4zm262.8-2.7l-.5-.4c.3-.3.5-.6.8-1l.5.4-.8 1zM122 322.2c-.3-.3-.6-.6-.8-1l.5-.4c.3.3.6.6.8 1l-.5.4zm269.5-2.7l-.5-.4c.3-.3.5-.6.8-1l.5.4c-.3.3-.6.7-.8 1zm-272.7-1.1c-.3-.3-.5-.6-.8-1l.5-.4c.3.3.5.6.8 1l-.5.4zm275.8-2.8l-.5-.4c.3-.3.5-.7.8-1l.5.4c-.3.3-.5.6-.8 1zm-278.9-1.2c-.3-.3-.5-.7-.8-1l.5-.4c.3.3.5.7.8 1l-.5.4zm282-2.9l-.5-.4c.3-.3.5-.7.7-1l.5.4c-.2.4-.5.7-.7 1zm-285.1-1.1c-.3-.3-.5-.7-.7-1l.5-.4.7 1-.5.4zm288-3l-.5-.4.7-1 .5.4c-.2.4-.4.7-.7 1zm-290.9-1.1c-.2-.4-.5-.7-.7-1l.5-.4c.2.4.5.7.7 1l-.5.4zm293.8-3l-.5-.4c.2-.4.5-.7.7-1.1l.5.3-.7 1.2zm-296.6-1.2c-.2-.4-.4-.7-.7-1.1l.5-.3c.2.4.4.7.7 1.1l-.5.3zm299.3-3.1l-.5-.3c.2-.4.4-.7.7-1.1l.5.3c-.3.4-.5.7-.7 1.1zm-301.9-1.2c-.2-.4-.4-.7-.7-1.1l.5-.3.6 1.1-.4.3zm304.4-3.1l-.5-.3.6-1.1.5.3c-.1.3-.3.7-.6 1.1zm-307-1.2l-.6-1.1.6-.3.6 1.1-.6.3zm309.5-3.3l-.6-.3.6-1.1.6.3-.6 1.1zm-311.9-1.1l-.6-1.1.6-.3.6 1.1-.6.3zm314.2-3.4l-.6-.3.6-1.1.6.3-.6 1.1zM97 284.6l-.6-1.1.6-.3.6 1.1-.6.3zm318.7-3.4l-.6-.3.5-1.1.6.3c-.1.3-.3.7-.5 1.1zm-320.8-1.1l-.5-1.1.6-.3c.2.4.3.8.5 1.1l-.6.3zm322.9-3.5l-.6-.3c.2-.4.3-.8.5-1.2l.6.3c-.2.4-.3.8-.5 1.2zm-324.9-1.1c-.2-.4-.3-.8-.5-1.2l.6-.2c.2.4.3.8.5 1.1l-.6.3zm326.9-3.6l-.6-.2c.2-.4.3-.8.5-1.2l.6.2c-.2.4-.4.8-.5 1.2zM91 270.8c-.2-.4-.3-.8-.4-1.2l.6-.2c.1.4.3.8.4 1.2l-.6.2zm330.6-3.6l-.6-.2c.1-.4.3-.8.4-1.2l.6.2c-.2.4-.3.8-.4 1.2zm-332.4-1.1c-.1-.4-.3-.8-.4-1.2l.6-.2c.1.4.3.8.4 1.2l-.6.2zm334-3.7l-.6-.2c.1-.4.3-.8.4-1.2l.6.2c-.1.4-.2.8-.4 1.2zm-335.6-1.1c-.1-.4-.3-.8-.4-1.2l.6-.2c.1.4.3.8.4 1.2l-.6.2zm337.2-3.7l-.6-.2c.1-.4.2-.8.4-1.2l.6.2c-.2.4-.3.8-.4 1.2zm-338.7-1.1c-.1-.4-.2-.8-.4-1.2l.6-.2c.1.4.2.8.4 1.2l-.6.2zm340-3.8l-.6-.2.3-1.2.6.2c0 .4-.2.8-.3 1.2zm-341.4-1.1l-.3-1.2.6-.2.3 1.2-.6.2zm342.7-3.8l-.6-.1.3-1.2.6.1-.3 1.2zm-343.9-1.1l-.3-1.2.6-.1.3 1.2-.6.1zm345-3.8l-.6-.1.3-1.2.6.1-.3 1.2zm-346.1-1.1l-.3-1.2.6-.1c.1.4.2.8.2 1.2l-.5.1zm347-3.8l-.6-.1c.1-.4.1-.8.2-1.2l.6.1c0 .3-.1.7-.2 1.2zm-347.9-1.2c-.1-.4-.1-.8-.2-1.2l.6-.1c.1.4.1.8.2 1.2l-.6.1zm348.8-3.8l-.6-.1c.1-.4.1-.8.2-1.2l.6.1c-.1.4-.2.8-.2 1.2zm-349.6-1.1c-.1-.4-.1-.8-.2-1.3l.6-.1c.1.4.1.8.2 1.2l-.6.2zm350.2-3.9l-.6-.1c0-.4.1-.8.1-1.3l.6.1c0 .4 0 .9-.1 1.3zm-350.8-1.1c-.1-.4-.1-.8-.1-1.3l.6-.1c0 .4.1.8.1 1.3l-.6.1zm351.4-3.9l-.6-.1c0-.4.1-.8.1-1.3l.6.1c-.1.4-.1.8-.1 1.3zm-351.9-1.2c0-.4-.1-.8-.1-1.3l.6-.1c0 .4.1.8.1 1.3l-.6.1zm352.3-3.9h-.6c0-.4 0-.8.1-1.3h.6c-.1.5-.1.9-.1 1.3zm-352.7-1.1c0-.4-.1-.8-.1-1.3h.6c0 .4 0 .8.1 1.3h-.6zm352.9-3.9h-.6v-1.3h.6v1.3zM79 211.8v-1.3h.6v1.3H79zm353.2-3.9h-.6v-1.6h.6v1.6zm-352.6-1.2H79v-1.2h.6v1.2zm351.9-4.1v-1.3h.6v1.3h-.6zm-351.9-.9H79v-1.3h.6v1.3zm351.8-4.2c0-.4 0-.8-.1-1.3h.6c0 .4 0 .8.1 1.3h-.6zm-351.6-.8h-.6c0-.4.1-.8.1-1.3h.6c0 .4 0 .9-.1 1.3zm351.2-4.2c0-.4-.1-.8-.1-1.3l.6-.1c0 .4.1.8.1 1.3l-.6.1zm-350.8-.8l-.6-.1c0-.4.1-.8.1-1.3l.6.1c0 .4-.1.8-.1 1.3zm350.4-4.2c0-.4-.1-.8-.1-1.3l.6-.1c0 .4.1.8.1 1.3l-.6.1zm-349.9-.8l-.6-.1c.1-.4.1-.8.2-1.3l.6.1c-.1.4-.2.8-.2 1.3zm349.3-4.2c-.1-.4-.1-.8-.2-1.2l.6-.1c.1.4.1.8.2 1.3h-.6zm-348.7-.8l-.6-.1c.1-.4.1-.8.2-1.3l.6.1c-.1.4-.1.9-.2 1.3zm347.9-4.1c-.1-.4-.1-.8-.2-1.2l.6-.1c.1.4.1.8.2 1.2l-.6.1zm-347.1-.9l-.6-.1c.1-.4.1-.8.2-1.2l.6.1c-.1.4-.1.8-.2 1.2zm346.2-4.1l-.3-1.2.6-.1.3 1.2-.6.1zM83 171.8l-.6-.1.3-1.2.6.1c-.1.3-.2.8-.3 1.2zm344.3-4.1l-.3-1.2.6-.1.3 1.2-.6.1zm-343.2-.8l-.6-.1.3-1.2.6.1c-.1.3-.2.7-.3 1.2zm342-4.1l-.3-1.2.6-.2.3 1.2-.6.2zM85.3 162l-.6-.2.3-1.2.6.2-.3 1.2zm339.5-4c-.1-.4-.2-.8-.4-1.2l.6-.2c.1.4.2.8.4 1.2l-.6.2zm-338.2-.9l-.6-.2c.1-.4.2-.8.4-1.2l.6.2c-.2.4-.3.8-.4 1.2zm336.7-4c-.1-.4-.3-.8-.4-1.2l.6-.2c.1.4.3.8.4 1.2l-.6.2zm-335.2-.8l-.6-.2c.1-.4.3-.8.4-1.2l.6.2c-.2.4-.3.8-.4 1.2zm333.6-3.9c-.1-.4-.3-.8-.4-1.2l.6-.2c.1.4.3.8.4 1.2l-.6.2zm-332-.9l-.6-.2c.1-.4.3-.8.4-1.2l.6.2c-.1.4-.2.8-.4 1.2zm330.3-3.8c-.1-.4-.3-.8-.5-1.2l.6-.2c.1.4.3.8.5 1.2l-.6.2zm-328.5-.9l-.6-.2c.2-.4.3-.8.5-1.2l.6.2c-.2.4-.4.8-.5 1.2zm326.6-3.8c-.2-.4-.3-.8-.5-1.1l.6-.3c.2.4.3.8.5 1.2l-.6.2zm-324.7-.9l-.6-.3c.2-.4.3-.8.5-1.2l.6.3c-.2.5-.4.8-.5 1.2zm322.8-3.7c-.2-.4-.3-.8-.5-1.1l.6-.3.5 1.1-.6.3zm-320.8-.9l-.6-.3c.2-.4.3-.8.5-1.1l.6.3-.5 1.1zm318.6-3.6l-.5-1.1.6-.3.5 1.1-.6.3zM97.6 129l-.6-.3.6-1.1.6.3c-.3.3-.5.7-.6 1.1zm314.2-3.6l-.6-1.1.6-.3.6 1.1-.6.3zm-312-.9l-.6-.3.6-1.1.6.3c-.2.3-.4.7-.6 1.1zm309.6-3.5l-.6-1.1.5-.3.6 1.1-.5.3zm-307.1-.9l-.6-.3.6-1.1.6.3c-.2.3-.4.7-.6 1.1zm304.6-3.5l-.6-1.1.5-.3.6 1.1-.5.3zm-302.1-.9l-.5-.3c.2-.4.4-.7.7-1.1l.5.3c-.3.4-.5.8-.7 1.1zm299.5-3.3c-.2-.4-.5-.7-.7-1.1l.5-.3c.2.3.5.7.7 1.1l-.5.3zm-296.8-1l-.5-.3c.2-.3.5-.7.7-1.1l.5.4c-.3.3-.5.7-.7 1zm294-3.2c-.2-.4-.5-.7-.7-1l.5-.4c.2.4.5.7.7 1l-.5.4zm-291.2-.9l-.5-.4c.2-.4.5-.7.7-1l.5.4c-.3.3-.5.6-.7 1zm288.4-3.2l-.7-1 .5-.4c.3.3.5.7.7 1l-.5.4zm-285.5-1l-.5-.4c.3-.3.5-.7.8-1l.5.4c-.4.4-.6.7-.8 1zm282.5-3.1c-.3-.3-.5-.7-.8-1l.5-.4c.3.3.5.7.8 1l-.5.4zm-279.5-.9l-.5-.4c.3-.3.5-.7.8-1l.5.4-.8 1zm276.4-3c-.3-.3-.5-.7-.8-1l.5-.4c.3.3.5.7.8 1l-.5.4zm-273.3-.9l-.5-.4c.3-.3.5-.7.8-1l.5.4c-.3.3-.5.7-.8 1zm270.1-3c-.3-.3-.5-.6-.8-.9l.5-.4c.3.3.5.6.8.9l-.5.4zm-266.9-.9l-.5-.4c.3-.3.6-.6.8-.9l.5.4c-.2.3-.5.6-.8.9zM386 88.4l-.9-.9.5-.4.9.9-.5.4zm-260.1-.8l-.5-.4.9-.9.5.4-.9.9zm256.7-2.8l-.9-.9.5-.4.9.9-.5.4zm-253.3-.9l-.4-.4.9-.9.4.4-.9.9zm249.8-2.7l-.9-.9.4-.4.9.9-.4.4zm-246.2-.8l-.4-.4.9-.9.4.5c-.3.2-.6.5-.9.8zm242.6-2.7c-.3-.3-.6-.6-.9-.8l.4-.5.9.9-.4.4zm-239-.8l-.4-.5.9-.9.4.5c-.2.4-.5.6-.9.9zm235.2-2.6c-.3-.3-.6-.6-1-.8l.4-.5c.3.3.6.6 1 .8l-.4.5zm-231.4-.7l-.4-.5c.3-.3.6-.6.9-.8l.4.5c-.3.2-.6.5-.9.8zm227.6-2.5c-.3-.3-.6-.5-1-.8l.4-.5c.3.3.6.5 1 .8l-.4.5zm-223.8-.8l-.4-.5c.3-.3.6-.5 1-.8l.4.5c-.3.3-.6.6-1 .8zM364 67.9c-.3-.3-.7-.5-1-.8l.4-.5c.3.3.7.5 1 .8l-.4.5zm-215.9-.7l-.4-.5c.3-.3.7-.5 1-.8l.4.5-1 .8zM360 64.9c-.3-.3-.7-.5-1-.7l.4-.5c.3.3.7.5 1 .8l-.4.4zm-207.9-.7l-.4-.5c.3-.3.7-.5 1-.7l.4.5-1 .7zm203.8-2.3l-1-.7.4-.5c.4.2.7.5 1 .7l-.4.5zm-199.7-.6l-.4-.5c.4-.2.7-.5 1-.7l.4.5-1 .7zm195.5-2.2c-.4-.2-.7-.5-1.1-.7l.3-.5c.4.2.7.5 1.1.7l-.3.5zm-191.3-.6l-.4-.5c.4-.2.7-.5 1.1-.7l.3.5c-.3.3-.7.5-1 .7zm187.1-2.1c-.4-.2-.7-.4-1.1-.7l.3-.5c.4.2.7.4 1.1.7l-.3.5zm-182.9-.5l-.3-.5c.4-.2.7-.4 1.1-.7l.3.5c-.4.2-.7.5-1.1.7zm178.5-2l-1.1-.6.3-.5 1.1.6-.3.5zm-174.2-.6l-.3-.5 1.1-.6.3.5c-.3.2-.7.4-1.1.6zm169.8-1.9l-1.1-.6.3-.6 1.1.6-.3.6zm-165.4-.5l-.3-.6 1.1-.6.3.6c-.3.2-.7.4-1.1.6zm161-1.8l-1.1-.6.3-.6 1.1.6-.3.6zm-156.5-.4l-.3-.6 1.1-.5.3.6c-.4.1-.7.3-1.1.5zm151.9-1.8c-.4-.2-.8-.3-1.1-.5l.3-.6c.4.2.8.3 1.1.5l-.3.6zm-147.4-.4l-.3-.6c.4-.2.8-.3 1.1-.5l.3.6c-.3.2-.7.3-1.1.5zm142.8-1.6c-.4-.2-.8-.3-1.2-.5l.3-.6c.4.2.8.3 1.2.5l-.3.6zm-138.2-.4l-.3-.6c.4-.2.8-.3 1.2-.5l.2.6c-.3.2-.7.3-1.1.5zm133.6-1.6c-.4-.2-.8-.3-1.2-.5l.2-.6c.4.2.8.3 1.2.5l-.2.6zm-129-.3l-.2-.6c.4-.2.8-.3 1.2-.5l.2.6c-.4.2-.8.3-1.2.5zm124.3-1.5c-.4-.1-.8-.3-1.2-.4l.2-.6c.4.1.8.3 1.2.4l-.2.6zm-119.6-.3l-.2-.6c.4-.1.8-.3 1.2-.4l.2.6c-.4.1-.8.3-1.2.4zM311 39.5c-.4-.1-.8-.3-1.2-.4l.2-.6c.4.1.8.3 1.2.4l-.2.6zm-110-.3l-.2-.6c.4-.1.8-.3 1.2-.4l.2.6c-.4.1-.8.3-1.2.4zM306.2 38c-.4-.1-.8-.2-1.2-.4l.2-.6c.4.1.8.2 1.2.4l-.2.6zm-100.4-.3l-.2-.6 1.2-.3.2.6-1.2.3zm95.6-1.1l-1.2-.3.2-.6 1.2.3-.2.6zm-90.8-.2l-.2-.6 1.2-.3.2.6c-.3.1-.8.2-1.2.3zm85.9-1l-1.2-.3.1-.6 1.2.3-.1.6zm-81-.2l-.1-.6 1.2-.3.1.6-1.2.3zm76.1-.9l-1.2-.3.1-.6 1.2.3-.1.6zm-71.2-.2l-.1-.6 1.2-.3.1.6c-.3.1-.8.2-1.2.3zm66.2-.8c-.4-.1-.8-.2-1.2-.2l.1-.6c.4.1.8.1 1.2.2l-.1.6zm-61.2-.1l-.1-.6c.4-.1.8-.1 1.2-.2l.1.6c-.4 0-.8.1-1.2.2zm56.3-.7c-.4-.1-.8-.1-1.2-.2l.1-.6c.4.1.8.1 1.3.2l-.2.6zm-51.4-.1l-.1-.6c.4-.1.8-.1 1.3-.2l.1.6c-.4.1-.8.1-1.3.2zm46.4-.6c-.4 0-.8-.1-1.3-.1l.1-.6c.4 0 .8.1 1.3.2l-.1.5zm-41.4-.1l-.1-.6c.4 0 .8-.1 1.3-.1l.1.6c-.4 0-.9.1-1.3.1zm36.4-.4c-.4 0-.8-.1-1.3-.1v-.6c.4 0 .8.1 1.3.1v.6zm-31.4-.1l-.1-.6c.4 0 .8-.1 1.3-.1l.1.6c-.4.1-.9.1-1.3.1zm26.4-.3c-.4 0-.8 0-1.3-.1v-.6c.4 0 .8 0 1.3.1v.6zm-21.4 0v-.6c.4 0 .8 0 1.3-.1v.6c-.4 0-.8 0-1.3.1zm16.4-.2h-1.3v-.6h1.3v.6zm-11.3 0v-.6h1.3v.6c-.5-.1-.9-.1-1.3 0zm6.2-.1h-1.3V30h1.3v.6z" fill="#3f3d56"/><linearGradient id="A" gradientUnits="userSpaceOnUse" x1="242.16" y1="112.147" x2="242.16" y2="63.513"><stop offset="0" stop-color="gray" stop-opacity=".25"/><stop offset=".54" stop-color="gray" stop-opacity=".12"/><stop offset="1" stop-color="gray" stop-opacity=".1"/></linearGradient><path d="M110.7 63.5h263v48.6h-263z" fill="url(#A)"/><path d="M112.2 65.1h259.6v44.5H112.2z" fill="#fff"/><path d="M128.1 74.2H279v26.5H128.1z" fill="#f5f5f5"/><linearGradient id="B" gradientUnits="userSpaceOnUse" x1="324.391" y1="120.323" x2="324.391" y2="64.385"><stop offset="0" stop-color="#b3b3b3" stop-opacity=".25"/><stop offset=".54" stop-color="#b3b3b3" stop-opacity=".1"/><stop offset="1" stop-color="#b3b3b3" stop-opacity=".05"/></linearGradient><path d="M334.1 71c-8.2-8.6-21.9-8.8-30.5-.6s-8.8 21.9-.6 30.5c7.2 7.5 18.9 8.8 27.5 3l15.6 16.2a1.09 1.09 0 0 0 1.5 0h0l3.9-3.7a1.09 1.09 0 0 0 0-1.5h0l-15.6-16.2c6.2-8.5 5.4-20.2-1.8-27.7zm-4.9 26c-6.1 5.9-15.9 5.7-21.8-.4s-5.7-15.9.4-21.8 15.9-5.7 21.8.4c5.9 6.2 5.7 15.9-.4 21.8h0z" fill="url(#B)"/><linearGradient id="C" gradientUnits="userSpaceOnUse" x1="319.49" y1="81.231" x2="319.49" y2="73"><stop offset="0" stop-opacity=".12"/><stop offset=".55" stop-opacity=".09"/><stop offset="1" stop-opacity=".02"/></linearGradient><path d="M319.2 73c-4.5-.1-8.7 2-11.2 5.8-.7 1.2 1.4 2.2 2.1 1 1.9-2.9 5.4-4.8 9.3-4.7s7.5 2.2 9.6 5.6c.7 1.2 2.7.1 1.9-1.1-2.3-3.9-6.9-6.5-11.7-6.6z" fill="url(#C)"/><path d="M334.1 68.6c-8.2-8.6-21.9-8.8-30.5-.6s-8.8 21.9-.6 30.5c7.2 7.5 18.9 8.8 27.5 3l15.6 16.2a1.09 1.09 0 0 0 1.5 0h0l3.9-3.7a1.09 1.09 0 0 0 0-1.5h0l-15.6-16.2c6.2-8.5 5.4-20.1-1.8-27.7zm-4.9 26.1c-6.1 5.9-15.9 5.7-21.8-.4s-5.7-15.9.4-21.8 15.9-5.7 21.8.4 5.7 15.9-.4 21.8h0zm-10-24.1c-4.5-.1-8.7 2-11.2 5.8-.7 1.2 1.4 2.2 2.1 1 1.9-2.9 5.4-4.8 9.3-4.7s7.5 2.2 9.6 5.6c.7 1.2 2.7.1 1.9-1.1-2.3-3.8-6.9-6.5-11.7-6.6z" class="q"/><path d="M131.4 76.9h.9v20.9h-.9z" fill="#585268"/><linearGradient id="D" gradientUnits="userSpaceOnUse" x1="401.269" y1="362.334" x2="401.269" y2="84.936"><stop offset="0" stop-color="gray" stop-opacity=".25"/><stop offset=".54" stop-color="gray" stop-opacity=".12"/><stop offset="1" stop-color="gray" stop-opacity=".1"/></linearGradient><path d="M346.7 118.5c.6.8 1.3 1.5 2.1 2.1l1.6 1.2.5.3v.1c-.1.2-.2.5-.1.8s.3.6.6.8c1.3 1.2 2.2 2.8 2.5 4.5.2 1-.5 2.1-.4 3.1s.4 2 .8 2.9c.8 2.2 1.8 4.4 3.5 6 .4 3.5 1.7 6.8 3.9 9.6 1.8 2.3 4.2 4 6.5 5.7.7.6 1.6 1.1 2.4 1.5.8.3 1.6.5 2.4.6a122.8 122.8 0 0 0 21 2.4c.2 4.2.3 8.4.3 12.6 0 .7-.1 1.4-.3 2-.3.6-.8 1.2-1.2 1.7-1.6 2.1-1.7 5.1-1.6 7.7.2 3.1.5 6.3 1.1 9.4.7 4 .1 8.3 1.5 12.1.6 1.5 1.1 3 1.7 4.5a3.08 3.08 0 0 1 .3 1.3c0 1-.6 1.8-1.1 2.7-.7 1.2-1 2.6-1 4.1a.9.9 0 0 0 .1.5c.2.2.5.2.9.2a23.08 23.08 0 0 1 3.7-.3l-.6.9a11.94 11.94 0 0 0-.8 1.6c-.4.9-.8 1.9-1.1 2.9 0 .1-.1.3-.1.4-.1.3-.1.6-.2.9-.3 1.8-.4 3.6-.3 5.4-.2 3.3-.3 6.8-.7 7.8-.5 1.4.1 3.7.7 6 0 1.5.3 3 .8 4.5 0 1.6.2 3.2.5 4.7l6.2 32.6.6 2.8a22.49 22.49 0 0 0 4.2 8.3c1.7 2.2 3.2 4.5 4.4 7-.1.6-.3 1.2-.4 1.8-1.2 5.2-2.8 10.3-3.4 15.6-.2 2.1-.3 4.3-1.1 6.2-.4 1-1 1.9-1.1 3-.1.7.1 1.4.5 2l-.4.3-.2.2c-1.6 1.2-3.7 1.5-5.7 2s-4.1 1.5-4.7 3.5c0 .1-.1.2-.1.4-.4 1.8.7 3.7 2.2 4.7 1.6 1.1 3.6 1.5 5.6 1.7 2 .3 4 .4 5.7 1.3 1.5.8 2.8 2 4.4 2.5l.3.1c-.4.2-.7.4-1.1.6-1.7.9-3.5 1.4-5.4 1.7s-4.1.4-5.1 2h0c-.8 1.4-.2 3.2.9 4.3s2.7 1.5 4.3 1.9c3.5.7 7.1 1.1 10.6 1.3l3.5.3c3.4.3 6.8.5 10.2.5 4.2 0 8.4-.4 12.5-1.1.6.1 1.1-.4 1.2-1v-.3c-.1-4.2-.6-8.5-1.5-12.6-.3-1.2-2 .5-2.9 1.5-.1-.6-.3-1.2-.4-1.8l.7-.3c.6-.2 1-.6 1.4-1.1.2-.4.2-.9.1-1.3-.1-2.7-.3-5.5-1.6-7.9-.8-1.4-1.9-2.7-3.1-3.8-.3-8.6-1.3-17.1-3.1-25.5-1-4.3-2.1-8.6-4.6-12.2-.3-.4-.6-.9-1-1.4a123.15 123.15 0 0 0-1.5-12.2c-.1-.5-.1-1.1 0-1.6a2.73 2.73 0 0 1 .9-1.2c1.5-1.9.9-4.6.7-7.1-.2-3.5.6-6.9 1.4-10.3l3-12.5c.2-1.2.6-2.4 1.1-3.5.8-1.5 1.7-3 2.7-4.4 2.8-4.4 4.1-9.7 3.8-14.9.6.2 1.1.4 1.7.6.4-3.5-1.1-7.5 0-10.8 1.8-1.3 3.3-3.1 4.3-5.1.8-1.9 1.1-3.9 1.9-5.8.5-1 1.2-2 1.5-3.1.4-1.7-.1-3.4-.1-5.1.1-3.7 2.8-7.2 2.2-10.9-.3-1.7-1.3-3.4-1.2-5.2.1-1 .3-1.9.7-2.8 2.1-5.4 4.1-11.2 3-17-.3-1.5-.7-2.9-.7-4.4.1-1.7.9-3.4.6-5.1a4.17 4.17 0 0 0-.8-1.8c.7-1.1 1.4-2.3 1.9-3.6.3-.7.5-1.5.5-2.3a3.66 3.66 0 0 0-1.6-2.7c-.9-.6-1.8-1.2-2.8-1.6-.3-.1-.6-.3-.8-.6s-.3-.6-.5-.9c-.5-1-1.7-1.2-2.7-1.8-3.4-2.1-3.1-7.4-6-10.2-2-1.8-5.1-2-7.3-.4-.3.3-.6.5-1 .5-.4-.1-.7-.3-1-.5-.7-.5-1.6-.7-2.5-.7-.5-2.1-.8-4.3-.7-6.5h.3c.3 0 .7 0 1-.1 1.5-.4 2.3-2 3-3.4.5-1.2 1-2.5 1.3-3.7 0-.1.1-.2.1-.4 2.9 2 6.2 4.1 7 3.7 1.5-.8-6.6-6.5-6.6-6.5h0c.9-.8 1.5-2.3 1.7-3.7.6-2.7.6-5.4.1-8.1-.6-2.6-2.2-5.1-4.6-6.4-1.1-.5-2.3-.9-3.1-1.8h0c-.1-.1-.2-.3-.3-.4h0c0-.1-.1-.1-.1-.2-.1-.2-.2-.5-.3-.7-.4-.5-1.2-.4-1.9-.3h-.6c-2.4 0-4.7-1.3-7.1-1.3-2.6 0-4.9 1.5-7.2 2.6-.5.2-.9.4-1.3.6-1.5.7-2.6 1.4-3.3 3-.5.5-.8 1.2-1 1.9-.1.3-.1.6-.1 1-6.3 6.2-6.3 16.3-.1 22.6 2 2 4.5 3.5 7.3 4.2.1.2.1.3.2.5.5 1.4.7 2.9.7 4.5v.3a12.81 12.81 0 0 0-3.4 1.4c-1.4.8-2.4 2.1-2.9 3.6 0 .1-.1.2-.1.3-.8-.3-1.7-.4-2.6-.4-.8-.1-1.6.1-2.3.7-.2.3-.4.6-.4.9-.3.3-.4.8-.6 1.1-.7 1.2-2.4.8-3.7 1.1-1.4.3-2.5 1.7-4 1.7-.6-.1-1.1-.1-1.7-.1-.5.1-1 .9-.6 1.2-.7-.1-1.3.2-1.7.8-.4.5-.7 1.1-1.1 1.6-.4-.6-1.1-.8-1.7-.7s-1.3.4-1.8.7c-.3.1-.5.2-.8.3-.3 0-.7 0-1-.1-1.6-.3-3.2 0-4.6.6-1.2.6-2.5-.5-3.9-.6-.5 0-1-.1-1.4-.4-.3-.3-.4-.7-.5-1.1-.6-1.8-2.2-3.2-4.1-3.6.8-2.4-.5-4.9-2.8-5.9.2-1.7-.5-3.3-1.7-4.4-.3-.2-.6-.4-.9-.7-.4-.4-.6-.9-.8-1.5l-1.2-3.3c-.5-.1-1-.3-1.5-.4v-.3a9.6 9.6 0 0 0-.6-3.3c-.6-1.7-1.5-3.3-2.6-4.8-1.2-1.7-2.5-3.3-4.3-4.3-.6-.3-1.2-.6-1.8-.8l-3.2-1.3c-.2-.1-.4-.1-.6-.1-.9 0-1 1.3-.5 2 1 1.4 3.2 1.8 3.8 3.5-1.1 0-2 .8-2.3 1.8 0 .3-.1.5-.3.7-.3.2-.7.1-1 .3-.6.3-.3 1.1-.4 1.8-.1.6-.3 1.1-.6 1.6-.9 1.1-.7 2.2-.1 3zm76.5 223.8l-.1-1c.1.2.1.4.2.5.6 1.5 1.2 2.9 1.9 4.4l-.1-.1c-.5-.2-1-.4-1.5-.4h-.4c.1-1.2.1-2.3 0-3.4z" fill="url(#D)"/><path d="M414.6 127c-.1 2.3-.8 4.6-1 6.9 6.9.3 13.6-3 20.4-2-1.9-1.2-2.9-3.4-3.5-5.6-.8-2.8-1-5.7-.7-8.6 0-.2 0-.3.1-.5.3-1.1.9-2.7.7-3.6-.2-1.2-1.3-.9-2.4-.9-3.1.2-6.1.6-9.2 1.2-.8.1-8.5 2.1-8.6 1.9 1.3 2.2 2.5 4.5 3.3 6.9.6 1.3.9 2.8.9 4.3zm-67.9-7.2c.6.8 1.3 1.5 2.1 2.1l1.6 1.2c1 .8 2.2 1.2 3.4 1.4 1.6.1 5.1-.8 6.1-2.2.4-.7.6-1.5.6-2.3a9.6 9.6 0 0 0-.6-3.3c-.6-1.7-1.5-3.3-2.6-4.8-1.2-1.6-2.5-3.3-4.3-4.3l-1.8-.8-3.2-1.3c-.2-.1-.4-.1-.6-.1-.9 0-1 1.3-.5 2 1 1.4 3.2 1.8 3.8 3.4-1.1 0-2 .7-2.3 1.8 0 .3-.1.5-.3.7-.3.2-.7.1-1 .3-.6.3-.3 1.1-.4 1.8-.1.6-.3 1.1-.6 1.6-.2.9 0 2 .6 2.8z" fill="#ee8e9e"/><path d="M441.3 353.4c-.5-.5-1.4-.4-2.1-.3-4 .6-8 .9-12 .9-.5-2.4 1-4.8 1.4-7.3.1-.6.2-1.3.5-1.9.6-1.1 1.9-1.6 3-1.8 2.2-.5 5.5-1.2 6.7.9 1.5 2.7 2 6.6 2.5 9.5z" fill="#65617d"/><use xlink:href="#J" fill="#b07473"/><use xlink:href="#J" class="p u"/><use xlink:href="#K" fill="#e8eaf2"/><use xlink:href="#K" class="p u"/><use xlink:href="#L" fill="#444053"/><use xlink:href="#L" class="p u"/><path d="M396 249.4c0 1.6.2 3.3.5 4.8 1.9 10.8 4 21.6 6.2 32.4l.6 2.8c.8 3 2.2 5.8 4.2 8.2 9.1 11.3 9.9 27.8 14.8 41.5.3.9.7 1.9 1 2.8.9 2.3 1.9 4.6 3 6.8.1.3.3.6.6.8s.7.2 1 .2a29.94 29.94 0 0 0 12.8-2.9c.6-.2 1-.6 1.4-1.1.2-.4.2-.9.1-1.3-.1-2.7-.3-5.5-1.6-7.9-.8-1.4-1.9-2.7-3.1-3.8-.3-8.5-1.3-17-3.1-25.3-1-4.2-2.1-8.5-4.6-12.1-1.8-2.6-4.4-5.3-4.1-8.5.1-1.4.7-3.2-.4-4-.5-.4-1.2-.4-1.6-.9-.1-.2-.2-.5-.2-.8-.2-2.2-.1-4.4.4-6.6.4-1.4.7-2.8 1-4.3.2-1.5-.2-3-1.1-4.1-.1-2.9 0-6 0-8.9-.1-1.7 0-3.3.4-4.9.2-.8.6-1.5.7-2.3.6-2.8-.9-6.2.9-8.4.8-.9 1.9-1.4 2.9-2 1.9-1.4 3.3-3.4 4-5.7.6-2.3 1-4.7 1.1-7 .1-.5.1-1 0-1.5 0-.3-.1-.5-.2-.8-.6-1.2-2.1-1.8-3.4-2.1-8.6-2.1-17.4-3.1-26.2-3.1-3.3-2.2-5.1-1.4-6.5.9-.8 1.4-1.4 2.9-1.8 4.5-.6 1.9-.7 12.6-1.3 14.5-.7 2.4 1.6 7.5 1.6 10.1z" fill="#444053"/><use xlink:href="#M" class="q"/><use xlink:href="#M" class="p u"/><path d="M410.5 115.7c1.3 2.2 2.5 4.5 3.3 6.9 1.2.3 2.5.5 3.8.5 4.9 0 8.4-2.8 11.4-6.4.2-1.1 1.8-2.2 1.6-3.1-.2-1.2-1.3-.9-2.4-.9-3.1.2-6.1.6-9.2 1.2-.7.1-8.4 2-8.5 1.8z" class="p r"/><circle cx="417.6" cy="106.7" r="15.8" fill="#ee8e9e"/><path d="M397.6 220.3c2.7-.2 5.5-.1 8.3.1 1.7 0 3.4.2 5.1.5 2.1.5 4 1.4 6.1 2 3.3 1 6.8 1 10.2 1.3 2.2.2 4.5.6 6.7 1 0-.3-.1-.5-.2-.8-.6-1.2-2.1-1.8-3.4-2.1-8.6-2.1-17.4-3.1-26.2-3.1-3.4-2.1-5.2-1.3-6.6 1.1z" class="p r"/><path d="M408.4 132.7c.7.8 1.6 1.7 2.6 1.4.4-.1.7-.3 1-.6 1.8-1.2 4.1-1.4 6.2-1.8 4.3-.7 8.6-1.6 12.8-2.9 1.2-.4 2.5-.7 3.8-.8 2.7 0 5.1 1.8 6.8 3.9s2.9 4.5 4.5 6.7c1.2 1.5 2.6 2.8 3.7 4.4 2.8 4 3.4 9.1 2.7 13.9s-2.6 9.3-4.5 13.7c-1 2.6-2.2 5.1-3.7 7.4.6 3.6.3 7.8-1.4 11-.6 1.1-1.2 2.1-1.4 3.3-.1.8-.1 1.6.1 2.4l.8 5.7c.2 1.7.5 3.5.8 5.2.6 3.2 1.4 6.6-.1 9.5-1.8 3.4.1 7.8-.4 11.7-5-1.9-10.1-3.1-15.4-3.7-3.4-.3-6.9-.4-10.2-1.3-2-.6-4-1.5-6.1-2-1.7-.3-3.4-.5-5.1-.5-3.8-.1-7.6-.3-11.4.3-.3 0-.7.1-.9-.2-.1-.1-.1-.3-.1-.4-.1-1.4.3-2.8 1-4 .5-.8 1.1-1.7 1.1-2.6 0-.5-.1-.9-.3-1.3l-1.7-4.5c-1.4-3.7-.7-8.1-1.5-12-.6-3.1-.9-6.2-1.1-9.3-.1-2.7-.1-5.6 1.6-7.7a6.57 6.57 0 0 0 1.2-1.7c.2-.6.3-1.3.3-2 0-5.3-.1-10.7-.4-16l4.3-7.6c1.6-2.9 3.3-5.9 4-9.2.4-2.2.4-4.4.7-6.6 0-1.2.9-2.3 2.1-2.3.2 0 .5 0 .7.1 1-.1 2 0 2.9.4z" class="q"/><path d="M350.4 123.2c1 .8 2.2 1.2 3.4 1.4 1.6.1 5.1-.8 6.1-2.2.4-.7.6-1.5.6-2.3-.2-.1-.4-.1-.7-.1-1.8-.2-3.6-.1-5.3.2-1.7.2-3.3 1.3-4.1 3 0 0 0-.1 0 0z" class="p r"/><path d="M403.1 157.4c-1 1.2-2 2.4-3.3 3.1-1.6.8-3.4.8-5.2.8-7.3-.2-14.6-1-21.7-2.4-.8-.1-1.6-.3-2.4-.6-.9-.4-1.7-.9-2.4-1.5-2.4-1.7-4.7-3.4-6.5-5.7-2.1-2.8-3.5-6-3.9-9.5-1.7-1.6-2.6-3.8-3.5-6-.4-.9-.7-1.9-.8-2.9 0-1 .6-2.1.4-3.1-.3-1.7-1.2-3.3-2.5-4.5-.3-.2-.5-.5-.6-.8 0-.3 0-.5.1-.8.8-1.6 2.3-2.8 4.1-3.1s3.5-.4 5.3-.2c.6.1 1.2.3 1.7.5l1.2 3.3c.2.5.4 1.1.8 1.5.3.3.6.5.9.7 1.3 1.1 1.9 2.7 1.7 4.4 2.3.9 3.5 3.5 2.8 5.8 1.9.4 3.4 1.8 4.1 3.6.1.4.3.8.5 1.1.4.3.9.5 1.4.4 1.4.1 2.6 1.2 3.9.6 1.4-.7 3.1-.9 4.6-.6.3.1.7.1 1 .1.3-.1.6-.1.8-.3.6-.3 1.2-.6 1.8-.7.7-.1 1.3.1 1.7.7.4-.5.7-1.1 1.1-1.6.4-.6 1-.9 1.7-.8-.4-.4 0-1.1.6-1.2.6 0 1.1 0 1.7.1 1.5 0 2.6-1.3 4-1.7 1.3-.3 3.1.1 3.7-1.1.2-.4.3-1 .7-1.2.3-.1.6-.2.9-.1.9.1 1.8.4 2.7.8 1.4 5.4.6 10.9-.4 16.4-.1 2.2-1.1 4.6-2.7 6.5z" class="q"/><path d="M403.2 176.7l6.8 13.7c-.7-1.2-2.3-1.8-3.5-2.6-1.6-1.1-2.7-2.7-3.4-4.5-.6-1.8-1.1-3.7-1.3-5.6-.1-.9-.4-2.1 0-2.9.8.2 1 1.2 1.4 1.9zm19.6 11.6c1.5 1.5 3.4 2.6 5.1 4 4 3.1 6.8 7.5 9.5 11.7.8 1.1 1.4 2.3 1.9 3.5-.3.3-.8 0-1.1-.3l-5.4-4.7a7.69 7.69 0 0 1-1.8-1.8c-.9-1.2-1.3-2.8-2.2-4.1a12.94 12.94 0 0 0-3.3-3.3c-1.2-1.1-6.9-5.8-5.5-7.7 1.2.5 2 1.9 2.8 2.7z" class="p r"/><use xlink:href="#N" class="q"/><use xlink:href="#N" class="p u"/><path d="M402.8 358.3c1.1 1.1 2.7 1.5 4.3 1.9 3.5.7 7.1 1.1 10.6 1.3l3.5.3c3.4.3 6.8.5 10.2.5 4.2 0 8.4-.3 12.5-1.1.6.1 1.1-.4 1.2-.9v-.3c-.1-4.2-.6-8.4-1.5-12.5-.4-1.7-3.4 2.1-3.6 2.3-.6.9-1.7 1.4-2.8 1.5-3.5.2-7.4-1.9-10.2-3.8-.6-.4-1.2-.8-1.9-1.2-.5-.2-1-.4-1.5-.4-1.8-.2-3.6.2-5.2 1-2.1 1-3.9 2.5-6 3.6-1.7.9-3.5 1.4-5.4 1.7s-4.1.4-5.1 2h0c-.8 1.3-.2 3.1.9 4.1z" fill="#b07473"/><path d="M402.8 359c1.1 1.1 2.7 1.5 4.3 1.9 3.5.7 7.1 1.1 10.6 1.3l3.5.3c3.4.3 6.8.5 10.2.5 4.2 0 8.4-.3 12.5-1.1.4 0 .7-.2 1-.5.3-.4.6-.9.8-1.4-.1-4.2-1.2-8.4-2.2-12.5-.4-1.7-3.4 2.1-3.6 2.3-.6.9-1.7 1.4-2.8 1.5-3.5.2-7.4-1.9-10.2-3.8-.6-.4-1.2-.8-1.9-1.2-.5-.2-1-.4-1.5-.4.4 2.5 4 5.5 5.9 6.5 3.7 1.9 8.2.9 12.4 1.2.3 0 .6.1.9.2.5.3.5 1 .5 1.6 0 1-.2 2.2-1 2.7-.4.2-.9.3-1.4.3-10.3.5-20.7.1-30.9-1.1-1.7-.1-3.4-.5-5-1.1a11.18 11.18 0 0 1-2.9-1.9c-1.4.8-.3 3.6.8 4.7z" fill="#e8eaf2"/><path d="M411.5 106.6c.1 1.6-1.1 4.8 2 3.9 1.8-.5 2.3-2.7 4.7-2.2s2.8 3.3 3.6 5.2c1.3 3 4 5.2 7.2 5.8.7.2 1.3.2 2 0 1.5-.4 2.3-2 3-3.4.5-1.2 1-2.5 1.3-3.7l.5-2.7v-1.9c-.3-3.7-2.4-7.1-5.1-9.7s-6-4.4-9.3-6.2c-1.1-.7-2.2-1.2-3.4-1.5-1.2-.2-2.4-.3-3.6-.1-1.6.1-3.1.4-4.6 1.1-.6.3-1.1.7-1.6 1.1-.7.6-1.2 1.4-1.4 2.3-.6 2.4.9 4.6 2.2 6.5 1 1.6 2.4 3.4 2.5 5.5z" fill="#3f3d56"/><path d="M359.9 141.7c.7-1.7 3.4-6.2 2.6-7.8-.8 1.2-1.5 2.4-2.1 3.7-.5 1.4-.1 3.1-.5 4.1zm48.9-40.7c-1.2-1.9-2.8-4.1-2.2-6.5a5 5 0 0 1 1.8-2.7c-.2.4-.4.7-.5 1.1-.6 2.4.9 4.6 2.2 6.5 1.1 1.7 2.5 3.5 2.6 5.6.1 1.6-1.1 4.8 2 3.9 1.8-.5 2.3-2.7 4.7-2.2 2.3.5 2.8 3.3 3.6 5.2 1.3 3 4 5.2 7.2 5.8.7.2 1.3.2 2 0 .3-.1.7-.2 1-.4-.5.9-1.3 1.7-2.3 2-.7.2-1.3.2-2 0-3.2-.6-5.9-2.8-7.2-5.8-.8-1.9-1.3-4.7-3.6-5.2s-2.8 1.7-4.7 2.2c-3.1.9-1.9-2.3-2-3.9-.1-2.1-1.4-3.9-2.6-5.6z" class="p r"/><path d="M408.2 97.7c.3.5.6.9.9 1.3a11.46 11.46 0 0 0 2.2 2.2l1.5 1.1c.9.7 1.9 1.3 3 1.8 3 1.4 6.2 2.6 9.5 3.4l6.3 1.8 3.7 2.7c.2-.9.4-1.8.5-2.7h0v-1.9c-.3-3.7-2.4-7.1-5.1-9.7s-6-4.4-9.3-6.2c-1.1-.7-2.2-1.2-3.4-1.5-1.2-.2-2.4-.3-3.6-.1-1.6.1-3.1.4-4.6 1.1-.6.3-1.1.7-1.6 1.1-.4.5-.6 1.1-.8 1.7-.5 1.4.1 2.8.8 3.9z" class="p r"/><path d="M408.2 97.3c.3.5.6.9.9 1.3a11.46 11.46 0 0 0 2.2 2.2l1.5 1.1c.9.7 1.9 1.3 3 1.8 3 1.4 6.2 2.6 9.5 3.4l6.3 1.8c2.2 1.7 9.6 7.1 10.8 6.5 1.5-.8-6.6-6.5-6.6-6.5l-.4.3c1.2-.7 1.8-2.5 2.1-3.9.6-2.6.6-5.4.1-8-.6-2.6-2.2-5.1-4.6-6.3-1.1-.5-2.3-.9-3.1-1.8-.1-.1-.2-.3-.3-.4 0-.1-.1-.1-.1-.2-.1-.2-.2-.5-.3-.7-.4-.5-1.2-.3-1.9-.3h-.7c-2.4 0-4.7-1.2-7.1-1.2-2.6 0-4.9 1.5-7.2 2.6l-1.3.6c-1.7.8-2.9 1.6-3.6 3.8-.5 1.3.1 2.7.8 3.9z" fill="#303d5c"/><path d="M426.6 87.7c-.1.2-.1.3-.1.5 0 .3.1.6.4.8s.6.3 1 .4c.3 0 .5.1.8.1.4 0 .7 0 1-.2.1 0 .1-.1.2-.1-.1-.1-.2-.3-.3-.4h-.4c-.4 0-.8-.1-1.2-.2-.2-.1-.3-.1-.5-.2-.2-.2-.4-.4-.5-.7h-.4zm9 21.2c-.3.2-.7.3-1.1.4-1 .3-2.1.1-2.9-.4" class="p r"/><path d="M328.3 148.5H167.5c-3.2 0-5.8-2-5.8-4.6v-20.1c0-2.5 2.6-4.6 5.8-4.6h160.8c3.2 0 5.8 2 5.8 4.6V144c.1 2.5-2.6 4.5-5.8 4.5zm26.6 239.2H178.1c-3.5 0-6.4-2-6.4-4.6V363c0-2.5 2.9-4.6 6.4-4.6h176.8c3.5 0 6.4 2 6.4 4.6v20.1c0 2.5-2.9 4.6-6.4 4.6zm8-103.1H232.3c-2.6 0-4.7-2-4.7-4.6v-20c0-2.5 2.1-4.6 4.7-4.6H363c2.6 0 4.7 2 4.7 4.6v20.1c0 2.5-2.2 4.5-4.8 4.5zm-186.7 3.9H80.6c-1.9 0-3.5-2-3.5-4.6v-20.1c0-2.5 1.6-4.6 3.5-4.6h95.6c1.9 0 3.5 2 3.5 4.6v20.1c-.1 2.5-1.6 4.6-3.5 4.6z" fill="#fff"/><g class="q"><path d="M171.7 128.9h4.3c1.1 0 1.9.3 2.5.8s.9 1.2.9 2.1-.3 1.6-.9 2.1-1.4.8-2.5.8h-2.5v4.2h-1.8v-10zm4.2 4.4c.6 0 1.1-.1 1.4-.4s.5-.6.5-1.1-.2-.9-.5-1.1c-.3-.3-.8-.4-1.4-.4h-2.3v3h2.3zm13.4 5.5h-1.9l-1.3-3.3c-.1-.3-.3-.5-.5-.6s-.5-.2-.9-.2h-1.8v4.1h-1.8v-10h4.3c1.1 0 2 .2 2.6.7s.9 1.2.9 2.1c0 .7-.2 1.2-.5 1.7s-.8.8-1.5 1c.6.1 1 .5 1.3 1.2l1.1 3.3zm-4.2-5.5c.7 0 1.2-.1 1.5-.4s.5-.6.5-1.1-.2-.9-.5-1.1-.8-.4-1.5-.4h-2.3v3h2.3zm7.6 5c-.7-.4-1.3-1-1.7-1.8s-.6-1.7-.6-2.7.2-1.9.6-2.7.9-1.4 1.6-1.8 1.6-.6 2.5-.6 1.8.2 2.5.6 1.3 1 1.6 1.8.6 1.7.6 2.7-.2 2-.6 2.7c-.4.8-.9 1.4-1.6 1.8s-1.5.6-2.5.6c-.8.1-1.6-.1-2.4-.6zm4.7-1.7c.5-.6.8-1.5.8-2.7s-.3-2.1-.8-2.7-1.2-.9-2.2-.9-1.6.3-2.2.9c-.5.6-.8 1.5-.8 2.7s.3 2.1.8 2.7 1.2 1 2.2 1 1.7-.4 2.2-1z"/><use xlink:href="#O"/><path d="M213.5 137.9c-.7-.7-1.1-1.7-1.1-3.1v-5.9h1.8v6c0 .9.2 1.5.6 2s1 .7 1.8.7 1.4-.2 1.8-.7c.4-.4.6-1.1.6-1.9v-6h1.8v5.9c0 1.4-.4 2.4-1.1 3.1s-1.7 1.1-3.1 1.1c-1.4-.1-2.4-.5-3.1-1.2zm11.3.4c-.7-.4-1.3-1-1.7-1.8s-.6-1.7-.6-2.7.2-1.9.6-2.7 1-1.4 1.7-1.8 1.6-.6 2.6-.6c.7 0 1.3.1 1.9.3s1.1.5 1.5.9l-.6 1.3c-.4-.4-.9-.6-1.3-.8s-.9-.2-1.4-.2c-1 0-1.7.3-2.2.9s-.8 1.5-.8 2.7.3 2.1.8 2.7 1.3.9 2.2.9c.5 0 1-.1 1.4-.2s.9-.4 1.3-.8l.6 1.3c-.4.4-.9.7-1.5.9s-1.2.3-1.9.3c-1 .1-1.9-.1-2.6-.6zm9.8.5v-8.5h-3.2v-1.5h8.3v1.5h-3.3v8.5h-1.8zm18.9 0h-2.2l-4.6-4.7v4.7h-1.8v-10h1.8v4.5l4.5-4.5h2.2l-4.8 4.8 4.9 5.2z"/><use xlink:href="#P"/><path d="M270.7 128.9l-4 6v3.9h-1.8v-3.9l-4-6h2.1l2.9 4.5 2.9-4.5h1.9z"/><path d="M284 128.9h1.7l-3.5 10h-1.5l-2.5-7.2-2.5 7.2h-1.5l-3.5-10h1.8l2.5 7.4 2.6-7.4h1.3l2.5 7.5 2.6-7.5zm4.8 9.4c-.7-.4-1.3-1-1.7-1.8s-.6-1.7-.6-2.7.2-1.9.6-2.7.9-1.4 1.6-1.8 1.6-.6 2.5-.6 1.8.2 2.5.6 1.3 1 1.6 1.8.6 1.7.6 2.7-.2 2-.6 2.7-.9 1.4-1.6 1.8-1.5.6-2.5.6c-.9.1-1.7-.1-2.4-.6zm4.7-1.7c.5-.6.8-1.5.8-2.7s-.3-2.1-.8-2.7-1.2-.9-2.2-.9-1.6.3-2.2.9c-.5.6-.8 1.5-.8 2.7s.3 2.1.8 2.7 1.2 1 2.2 1 1.6-.4 2.2-1zm12.6 2.2h-1.9l-1.3-3.3c-.1-.3-.3-.5-.5-.6s-.5-.2-.9-.2h-1.8v4.1h-1.8v-10h4.3c1.1 0 2 .2 2.6.7s.9 1.2.9 2.1c0 .7-.2 1.2-.5 1.7-.4.5-.8.8-1.5 1 .6.1 1 .5 1.3 1.2l1.1 3.3zm-4.2-5.5c.7 0 1.2-.1 1.5-.4s.5-.6.5-1.1-.2-.9-.5-1.1-.8-.4-1.5-.4h-2.3v3h2.3z"/><use xlink:href="#O" x="105.9"/><path d="M319.6 138.7c-.7-.2-1.2-.5-1.7-.9l.6-1.3c.5.4 1 .6 1.5.8s1.1.3 1.7.3c.7 0 1.2-.1 1.6-.4a1.1 1.1 0 0 0 .6-1c0-.4-.2-.7-.5-.9-.4-.2-.9-.4-1.7-.6-1.3-.3-2.2-.6-2.7-1.1-.6-.4-.9-1.1-.9-1.9 0-.6.2-1.1.5-1.6s.8-.8 1.4-1.1 1.3-.4 2-.4 1.4.1 2 .3 1.1.5 1.5.9l-.6 1.3c-.9-.7-1.9-1.1-2.9-1.1-.6 0-1.2.1-1.5.4s-.6.6-.6 1.1c0 .4.2.7.5.9s.9.4 1.7.6l2 .6a2.73 2.73 0 0 1 1.2.9c.3.4.4.8.4 1.4s-.2 1.1-.5 1.6a2.98 2.98 0 0 1-1.4 1c-.6.2-1.3.4-2.1.4-.7.1-1.4 0-2.1-.2zM182.4 368.2h4.3c1.1 0 1.9.3 2.5.8s.9 1.2.9 2.1-.3 1.6-.9 2.1-1.4.8-2.5.8h-2.5v4.2h-1.8v-10zm4.1 4.4c.6 0 1.1-.1 1.4-.4s.5-.6.5-1.1-.2-.9-.5-1.1c-.3-.3-.8-.4-1.4-.4h-2.3v3h2.3zm13.4 5.6H198l-1.3-3.3c-.1-.3-.3-.5-.5-.6s-.5-.2-.9-.2h-1.8v4.1h-1.8v-10h4.3c1.1 0 2 .2 2.6.7s.9 1.2.9 2.1c0 .7-.2 1.2-.5 1.7s-.8.8-1.5 1c.6.1 1 .5 1.3 1.2l1.1 3.3zm-4.2-5.6c.7 0 1.2-.1 1.5-.4s.5-.6.5-1.1-.2-.9-.5-1.1-.8-.4-1.5-.4h-2.3v3h2.3zm7.6 5.1c-.7-.4-1.3-1-1.7-1.8s-.6-1.7-.6-2.7.2-1.9.6-2.7.9-1.4 1.6-1.8 1.6-.6 2.5-.6 1.8.2 2.5.6 1.3 1 1.6 1.8c.4.8.6 1.7.6 2.7s-.2 2-.6 2.7c-.4.8-.9 1.4-1.6 1.8s-1.5.6-2.5.6c-.8 0-1.6-.2-2.4-.6zm4.7-1.8c.5-.6.8-1.5.8-2.7s-.3-2.1-.8-2.7-1.2-.9-2.2-.9-1.6.3-2.2.9c-.5.6-.8 1.5-.8 2.7s.3 2.1.8 2.7 1.2 1 2.2 1 1.7-.4 2.2-1zm4.4 2.3v-10h6.5v1.4h-4.7v2.7h4.4v1.5h-4.4v4.3h-1.8zm8 0v-10h1.8v10h-1.8zm6.3 0v-8.5h-3.2v-1.5h8.3v1.5h-3.3v8.5h-1.8zm12.8 0l-1-2.3h-4.9l-1 2.3h-1.8l4.5-10h1.5l4.5 10h-1.8zm-5.3-3.8h3.7l-1.8-4.3-1.9 4.3zm15.6-.5c.3.4.5.9.5 1.6 0 .8-.3 1.5-.9 2s-1.4.7-2.5.7h-4.5v-10h4.4c1 0 1.8.2 2.4.7a2.32 2.32 0 0 1 .9 1.9c0 .5-.1 1-.4 1.4s-.7.7-1.1.8a2.73 2.73 0 0 1 1.2.9zm-5.7-1.5h2.3c1.3 0 1.9-.5 1.9-1.4 0-.5-.2-.8-.5-1s-.8-.3-1.4-.3h-2.3v2.7zm4 4c.3-.2.5-.6.5-1.1s-.2-.9-.5-1.1-.8-.4-1.4-.4h-2.6v3h2.6c.6 0 1.1-.1 1.4-.4zm3.9 1.8v-10h1.8v8.5h4.7v1.5H252z"/><use xlink:href="#P" x="5.7" y="239.4"/><path d="M280.7 378.2h-2.2l-4.6-4.7v4.7H272v-10h1.8v4.5l4.5-4.5h2.2l-4.8 4.8 5 5.2z"/><use xlink:href="#P" x="27.2" y="239.4"/><path d="M297.9 368.2l-4 6v3.9H292v-3.9l-4-6h2.1l2.9 4.5 2.9-4.5h2z"/><path d="M311.2 368.2h1.7l-3.5 10h-1.5l-2.5-7.2-2.5 7.2h-1.5l-3.5-10h1.8l2.5 7.4 2.6-7.4h1.3l2.5 7.5 2.6-7.5zm4.8 9.5c-.7-.4-1.3-1-1.7-1.8s-.6-1.7-.6-2.7.2-1.9.6-2.7.9-1.4 1.6-1.8 1.6-.6 2.5-.6 1.8.2 2.5.6 1.3 1 1.6 1.8c.4.8.6 1.7.6 2.7s-.2 2-.6 2.7c-.4.8-.9 1.4-1.6 1.8s-1.5.6-2.5.6c-.9 0-1.7-.2-2.4-.6zm4.7-1.8c.5-.6.8-1.5.8-2.7s-.3-2.1-.8-2.7-1.2-.9-2.2-.9-1.6.3-2.2.9c-.5.6-.8 1.5-.8 2.7s.3 2.1.8 2.7 1.2 1 2.2 1 1.6-.4 2.2-1zm12.6 2.3h-1.9l-1.3-3.3c-.1-.3-.3-.5-.5-.6s-.5-.2-.9-.2h-1.8v4.1h-1.8v-10h4.3c1.1 0 2 .2 2.6.7s.9 1.2.9 2.1c0 .7-.2 1.2-.5 1.7-.4.5-.8.8-1.5 1 .6.1 1 .5 1.3 1.2l1.1 3.3zm-4.2-5.6c.7 0 1.2-.1 1.5-.4s.5-.6.5-1.1-.2-.9-.5-1.1-.8-.4-1.5-.4h-2.3v3h2.3z"/><use xlink:href="#O" x="133.1" y="239.3"/><path d="M346.8 378c-.7-.2-1.2-.5-1.7-.9l.6-1.3c.5.4 1 .6 1.5.8s1.1.3 1.7.3c.7 0 1.2-.1 1.6-.4a1.1 1.1 0 0 0 .6-1c0-.4-.2-.7-.5-.9-.4-.2-.9-.4-1.7-.6-1.3-.3-2.2-.6-2.7-1-.6-.4-.9-1.1-.9-1.9 0-.6.2-1.1.5-1.6s.8-.8 1.4-1.1 1.3-.4 2-.4 1.4.1 2 .3 1.1.5 1.5.9l-.6 1.3c-.9-.7-1.9-1.1-2.9-1.1-.6 0-1.2.1-1.5.4-.4.3-.6.6-.6 1.1 0 .4.2.7.5.9s.9.4 1.7.6l2 .6a2.73 2.73 0 0 1 1.2.9c.3.4.4.8.4 1.4s-.2 1.1-.5 1.6a2.98 2.98 0 0 1-1.4 1c-.6.2-1.3.4-2.1.4-.7 0-1.4-.1-2.1-.3zM239.9 274.7c-.7-.2-1.2-.5-1.7-.9l.6-1.3c.5.4 1 .6 1.5.8s1.1.3 1.7.3c.7 0 1.2-.1 1.6-.4a1.1 1.1 0 0 0 .6-1c0-.4-.2-.7-.5-.9s-.9-.4-1.7-.6c-1.3-.3-2.2-.6-2.7-1s-.9-1.1-.9-1.9c0-.6.2-1.1.5-1.6s.8-.8 1.4-1.1 1.3-.4 2-.4 1.4.1 2 .3 1.1.5 1.5.9l-.6 1.3c-.9-.7-1.9-1.1-2.9-1.1-.6 0-1.2.1-1.5.4-.4.3-.6.6-.6 1.1 0 .4.2.7.5.9s.9.4 1.7.6l2 .6a2.73 2.73 0 0 1 1.2.9c.3.4.4.8.4 1.4s-.2 1.1-.5 1.6-.8.8-1.4 1-1.3.4-2.1.4c-.7 0-1.4-.1-2.1-.3z"/><use xlink:href="#P" x="-6.4" y="136.1"/><path d="M263.5 274.9l-1-2.3h-4.9l-1 2.3h-1.8l4.5-10h1.5l4.5 10h-1.8zm-5.3-3.8h3.7l-1.8-4.3-1.9 4.3z"/><use xlink:href="#Q"/><path d="M278.1 274.4c-.7-.4-1.3-1-1.7-1.8s-.6-1.7-.6-2.7.2-1.9.6-2.7 1-1.4 1.7-1.8 1.6-.6 2.6-.6c.7 0 1.3.1 1.9.3s1.1.5 1.5.9l-.6 1.3c-.4-.4-.9-.6-1.3-.8s-.9-.2-1.4-.2c-1 0-1.7.3-2.2.9s-.8 1.5-.8 2.7.3 2.1.8 2.7 1.3.9 2.2.9c.5 0 1-.1 1.4-.2s.9-.4 1.3-.8l.6 1.3c-.4.4-.9.7-1.5.9s-1.2.3-1.9.3c-1 0-1.9-.2-2.6-.6zm14.5-9.5h1.8v10h-1.8v-4.3h-5.1v4.3h-1.8v-10h1.8v4.2h5.1v-4.2zm15.1 0h1.8l-4.4 10h-1.5l-4.4-10h1.9l3.3 7.7 3.3-7.7zm4.4 9.5c-.7-.4-1.3-1-1.7-1.8s-.6-1.7-.6-2.7.2-1.9.6-2.7.9-1.4 1.6-1.8 1.6-.6 2.5-.6 1.8.2 2.5.6 1.3 1 1.6 1.8c.4.8.6 1.7.6 2.7s-.2 2-.6 2.7c-.4.8-.9 1.4-1.6 1.8s-1.5.6-2.5.6c-.8 0-1.7-.2-2.4-.6zm4.7-1.8c.5-.6.8-1.5.8-2.7s-.3-2.1-.8-2.7-1.2-.9-2.2-.9-1.6.3-2.2.9c-.5.6-.8 1.5-.8 2.7s.3 2.1.8 2.7 1.2 1 2.2 1 1.7-.3 2.2-1zm4.4 2.3v-10h1.8v8.5h4.7v1.5h-6.5zm8.5-.9c-.7-.7-1.1-1.7-1.1-3.1V265h1.8v6c0 .9.2 1.5.6 2s1 .7 1.8.7 1.4-.2 1.8-.7c.4-.4.6-1.1.6-1.9v-6h1.8v5.9c0 1.4-.4 2.4-1.1 3.1s-1.7 1.1-3.1 1.1c-1.4-.2-2.4-.5-3.1-1.2zm17.6-9.1h1.4v10h-1.6v-6.2l-2.6 6.2h-1.2l-2.7-6.1v6.1H339v-10h1.4l3.4 7.8 3.5-7.8z"/><use xlink:href="#P" x="96.8" y="136.1"/><path d="M89.2 278.9v-8.5H86v-1.5h8.3v1.5H91v8.5h-1.8z"/><use xlink:href="#Q" x="-170.8" y="4"/><path d="M112.9 278.9l-1-2.3H107l-1 2.3h-1.8l4.5-10h1.5l4.5 10h-1.8zm-5.3-3.8h3.7l-1.8-4.3-1.9 4.3zm9.8 3.3c-.7-.4-1.3-1-1.7-1.8s-.6-1.7-.6-2.7.2-1.9.6-2.7 1-1.4 1.7-1.8 1.6-.6 2.6-.6c.7 0 1.3.1 1.9.3s1.1.5 1.5.9l-.6 1.3c-.4-.4-.9-.6-1.3-.8s-.9-.2-1.4-.2c-1 0-1.7.3-2.2.9s-.8 1.5-.8 2.7.3 2.1.8 2.7 1.3.9 2.2.9c.5 0 1-.1 1.4-.2s.9-.4 1.3-.8l.6 1.3c-.4.4-.9.7-1.5.9s-1.2.3-1.9.3c-1 0-1.8-.2-2.6-.6zm16.3.5h-2.2l-4.6-4.7v4.7h-1.8v-10h1.8v4.5l4.5-4.5h2.2l-4.8 4.8 4.9 5.2zm12.1 0l-1-2.3H140l-1 2.3h-1.8l4.5-10h1.5l4.5 10h-1.9zm-5.2-3.8h3.7l-1.8-4.3-1.9 4.3zm9.2 3.6c-.7-.2-1.2-.5-1.7-.9l.6-1.3c.5.4 1 .6 1.5.8s1.1.3 1.7.3c.7 0 1.2-.1 1.6-.4a1.1 1.1 0 0 0 .6-1c0-.4-.2-.7-.5-.9s-.9-.4-1.7-.6c-1.3-.3-2.2-.6-2.7-1.1-.6-.4-.9-1.1-.9-1.9 0-.6.2-1.1.5-1.6s.8-.8 1.4-1.1 1.3-.4 2-.4 1.4.1 2 .3 1.1.5 1.5.9l-.6 1.3c-.9-.7-1.9-1.1-2.9-1.1-.6 0-1.2.1-1.5.4-.4.3-.6.6-.6 1.1 0 .4.2.7.5.9s.9.4 1.7.6l2 .6a2.73 2.73 0 0 1 1.2.9c.3.4.4.8.4 1.4s-.2 1.1-.5 1.6a2.98 2.98 0 0 1-1.4 1c-.6.2-1.3.4-2.1.4-.7.1-1.4 0-2.1-.2zm7.8.2v-10h1.8v10h-1.8zm10.7-10h1.7v10h-1.3l-5.4-7v7h-1.7v-10h1.3l5.4 7v-7z"/></g><path d="M286.1 326.5c0 15.3-12.4 27.5-27.5 27.5-15.2 0-27.6-12.4-27.6-27.5s12.4-27.5 27.5-27.5h0c15.2-.1 27.6 12.2 27.6 27.5z" fill="#aeaef4" class="p s"/><path d="M256.2 347.5v-5.2c-3-.1-6.1-1-7.9-2.2l1.2-3.5c1.8 1.2 5.1 2.2 8 2.2 3.7 0 6.1-2.1 6.1-5.1 0-2.8-2-4.6-5.9-6.1-5.2-2.1-7.9-4.4-7.9-8.9 0-4.3 2.7-7.5 7.5-8.3v-5.2h2.6v5c3.1.1 5.2 1 6.7 1.8l-1.3 3.4c-1.8-1.2-4-1.8-6.2-1.8-3.9 0-4.9 2.4-4.9 4.4 0 2.6 1.3 4 5.8 5.9 5.3 2.2 8.6 4.8 8.6 9.4 0 4.1-2.8 7.9-8.1 8.8v5.5h-4.3z" class="q"/><linearGradient id="E" gradientUnits="userSpaceOnUse" x1="127.879" y1="255.4" x2="127.879" y2="188.2"><stop offset="0" stop-color="gray" stop-opacity=".25"/><stop offset=".54" stop-color="gray" stop-opacity=".12"/><stop offset="1" stop-color="gray" stop-opacity=".1"/></linearGradient><path d="M68.7 188.2H187v67.2H68.7z" fill="url(#E)"/><path d="M69.9 198h115.4v55.8H69.9z" fill="#fff"/><linearGradient id="F" gradientUnits="userSpaceOnUse" x1="77.829" y1="223.85" x2="117.881" y2="223.85"><stop offset="0" stop-color="gray" stop-opacity=".25"/><stop offset=".54" stop-color="gray" stop-opacity=".12"/><stop offset="1" stop-color="gray" stop-opacity=".1"/></linearGradient><path d="M77.8 202.7h40.1V245H77.8z" fill="url(#F)"/><g class="q"><path d="M79.1 203.6h37.8V244H79.1z" fill-opacity="0"/><path d="M69.9 189.4h115.4v8.5H69.9z"/></g><path d="M132.4 215.5h43.8v2.8h-43.8z" fill="#e0e0e0"/><path d="M132.4 227.5h43.8v2.8h-43.8z" fill="#f5f5f5"/><path d="M132 221.5h25.9v2.8H132z" class="p q t"/><g fill="#69f0ae"><path d="M132 233.4h17.7v2.8H132z" class="p t"/><path d="M152.9 233.4h17.7v2.8h-17.7z"/></g><g class="s"><path d="M87.1 209.2s14.1.7 21.1.3l-.2 1.9-12.4 1.6-3.7-1.1-4.8-2.7z" class="q"/><path d="M108.2 209.5l-.2 1.9-12.4 1.6-3.7-1.1-4.9-2.6h.8c3.1.1 14.1.6 20.1.2h.3z" class="p r"/><path d="M113.1 235.8c-2.7 1.6-12.2.1-12.2.1l-2.6-9.3-2.9 9.5c-4.2 1.5-12.7-.7-12.7-.7l3.3-20.6.6-2.8.5-2.7 5.3 1.6s1.6 1.1 8.2.8 7.6-2.1 7.6-2.1c.3.1.6 1.1.9 2.4.4 1.9.8 4.3 1.3 5.1.8 1.2 2.7 18.7 2.7 18.7z" class="q"/><use xlink:href="#R" class="p r"/><path d="M108.2 209.5l-.2 1.9-12.4 1.6-3.7-1.1-4.9-2.6h.8l4.5 1.4s1.6 1.1 8.2.8c5.2-.2 6.9-1.4 7.4-1.9l.3-.1z" class="p r"/><use xlink:href="#R" y="-0.2" class="q"/><circle cx="99" cy="214" r=".5" class="p r"/><circle cx="99" cy="213.8" r=".5" fill="none" stroke="#6c63ff"/><path d="M85.2 223.5s1 2.8 1.6 2.8-1.6-2.8-1.6-2.8zm-.6 2.7s.6 1.7 1.2 2m-1.2-.2s.9 1.2 1.5 1.5m23.6-12.2s.9 1.3 0 1.6m.4.5c-1-1.2-.4 1.6-.4 1.6s.7-1.2.4-1.6zm.5 1.5s-1.5 2.3-1.2 2.5" class="p r"/><use xlink:href="#S" class="p r"/><use xlink:href="#S" y="-0.2" class="q"/><use xlink:href="#T" class="p r"/><use xlink:href="#T" y="-0.2" class="q"/></g><linearGradient id="G" gradientUnits="userSpaceOnUse" x1="161.702" y1="261.467" x2="161.702" y2="201.208"><stop offset="0" stop-color="#b3b3b3" stop-opacity=".25"/><stop offset=".54" stop-color="#b3b3b3" stop-opacity=".1"/><stop offset="1" stop-color="#b3b3b3" stop-opacity=".05"/></linearGradient><path d="M172.1 208.3c-8.9-9.2-23.6-9.5-32.8-.7-9.2 8.9-9.5 23.6-.7 32.8 7.8 8.1 20.3 9.5 29.7 3.2l16.8 17.4c.4.4 1.1.5 1.6 0h0l4.2-4c.4-.4.5-1.1 0-1.6h0L174.1 238c6.7-9 5.8-21.5-2-29.7zm-5.2 28.1c-6.6 6.4-17.1 6.1-23.5-.5s-6.1-17.1.5-23.5c6.6-6.3 17.1-6.1 23.5.5 6.3 6.6 6.1 17.1-.5 23.5h0z" fill="url(#G)"/><linearGradient id="H" gradientUnits="userSpaceOnUse" x1="156.422" y1="219.355" x2="156.422" y2="210.488"><stop offset="0" stop-opacity=".12"/><stop offset=".55" stop-opacity=".09"/><stop offset="1" stop-opacity=".02"/></linearGradient><path d="M156.1 210.5c-4.8-.1-9.4 2.2-12 6.2-.8 1.2 1.5 2.3 2.2 1.1 2-3.2 5.8-5.2 10-5 4.2.1 8.1 2.4 10.4 6 .8 1.3 2.9.1 2.1-1.2-2.6-4.2-7.5-7-12.7-7.1z" fill="url(#H)"/><path d="M172.1 205.8c-8.9-9.2-23.6-9.5-32.8-.7-9.2 8.9-9.5 23.6-.7 32.8 7.8 8.1 20.3 9.5 29.7 3.2l16.8 17.4c.4.4 1.1.5 1.6 0h0l4.2-4c.4-.4.5-1.1 0-1.6h0l-16.8-17.4c6.7-9.1 5.8-21.6-2-29.7zm-5.2 28c-6.6 6.4-17.1 6.1-23.5-.5s-6.1-17.1.5-23.5c6.6-6.3 17.1-6.1 23.5.5 6.3 6.7 6.1 17.2-.5 23.5h0zm-10.8-25.9c-4.8-.1-9.4 2.2-12 6.2-.8 1.2 1.5 2.3 2.2 1.1 2-3.2 5.8-5.2 10-5 4.2.1 8.1 2.4 10.4 6 .8 1.3 2.9.1 2.1-1.2-2.6-4.1-7.5-6.9-12.7-7.1z" class="q"/><g fill="none" stroke="#b5b5b5" stroke-miterlimit="10" class="p"><path d="M224.6 189.6l157.9.8m-158 11.6l157.9.7m-157.9 11.6l157.9.7m-158 11.6l157.9.8" class="t"/><path d="M238.7 223.3l-.1 15.7" stroke-dasharray="12" class="t"/><path d="M224.4 238.9l157.8.8" class="t"/></g><g class="q"><path d="M360.3 211.7c-2.8.3-5.6-1.2-7.3-2.8-1.8-1.7-3.1-3.8-4.4-5.8l-1.2-1.9c-2.2-3.3-4.4-5.6-6.8-7-.9-.5-1.9-.9-2.9-1.2-.1.2-.2.4-.4.6-.4.4-.9.6-1.4.6h-.1c-1 0-1.8-.7-2-1.7-.9.1-1.8.3-2.6.6-2.5 1-4.3 3.1-6 5.1l-5.8 7.7c-.4.5-.7 1.1-1.1 1.6-2 2.9-4 5.9-6.7 8.2-3.6 3.2-8 4.6-11.7 3.8-4.5-.9-7.8-4.8-10.1-8.1-.3-.4-.6-.8-.9-1.3-2.2-3.1-4.5-6.3-7.7-8.2-4.3-2.4-10.2-1.9-14 1.3-1.9 1.5-3.2 3.6-4.6 5.6-.5.7-.9 1.4-1.4 2.1-2.5 3.5-5.1 5.5-7.9 5.9-1.1.1-2.2.2-3.3.1-.7 0-1.5-.1-2.3 0-3.8.2-7.2 2.5-8.9 5.8l-.1 16.5 124 .6.1-27.3c-.8.5-1.9.2-2.3-.6-.1 0-.1-.1-.2-.2h0z" class="p t"/><path d="M337.5 191c-.4-.4-.9-.6-1.4-.5-1 0-1.8.8-1.9 1.7v.5c.1.4.3.9.6 1.2.4.3.8.5 1.3.5h.1c.5 0 1-.3 1.4-.6.2-.2.3-.4.4-.6s.1-.4.1-.6v-.3c0-.5-.2-1-.6-1.3zm0 2c-.1.1-.1.3-.3.4-.5.6-1.4.6-2 .1-.2-.2-.4-.5-.4-.8v-.5c.1-.6.7-1.1 1.3-1.1h.1c.8 0 1.4.6 1.4 1.4v.1c0 .1 0 .3-.1.4z"/><circle cx="362.2" cy="211.3" r="1.7"/><path d="M334.7 192.5v.2h-.6c-.9.1-1.8.3-2.6.6-2.5 1-4.3 3.1-6 5.1l-5.8 7.7c-.4.5-.7 1.1-1.1 1.6-2 2.9-4 5.9-6.7 8.2-3.6 3.2-8 4.6-11.7 3.8-4.5-.9-7.7-4.8-10.1-8.1-.3-.4-.6-.8-.9-1.3-2.2-3.1-4.5-6.3-7.7-8.2-4.3-2.4-10.2-1.9-14 1.3-1.8 1.5-3.2 3.6-4.6 5.6-.5.7-.9 1.4-1.4 2.1-2.5 3.5-5.1 5.5-7.9 5.9-1.1.1-2.2.2-3.3.1-.8-.1-1.5-.1-2.3 0-4.1.3-7.7 2.8-9.3 6.5l-.5-.2c1.7-4 5.5-6.6 9.8-6.9h2.3c1.1.1 2.2.1 3.2-.1 2.6-.4 5.1-2.3 7.5-5.7.5-.7 1-1.4 1.4-2.1 1.4-2 2.8-4.2 4.7-5.8 4.2-3.4 10-3.9 14.7-1.4 3.4 1.9 5.7 5.2 7.9 8.3.3.4.6.8.9 1.3 2.3 3.2 5.5 7 9.8 7.9 3.6.8 7.8-.6 11.2-3.7 2.6-2.3 4.7-5.3 6.6-8.1.4-.5.7-1.1 1.1-1.6 1.8-2.6 3.8-5.2 5.9-7.7 1.7-2.1 3.6-4.2 6.3-5.3a7.06 7.06 0 0 1 2.8-.6h.6c-.2.4-.2.5-.2.6zm27.6 19.1c-3.3 1.3-6.9-.5-9-2.4-1.8-1.7-3.1-3.8-4.4-5.8l-1.2-1.9c-2.2-3.3-4.4-5.6-6.8-7-.9-.5-1.9-.9-2.9-1.2-.2-.1-.4-.1-.6-.1.1-.2.1-.4.1-.6.2 0 .4.1.6.1 1.1.3 2.1.7 3 1.3 2.5 1.5 4.8 3.8 7 7.2.4.6.8 1.3 1.2 2 1.2 2 2.5 4.1 4.3 5.7 1.9 1.8 5.3 3.5 8.4 2.3l.3.4z"/><path d="M224.9 187h5.3c.1 0 .3.1.3.3v2.1c0 .1-.1.3-.3.3h-5.3c-.1 0-.3-.1-.3-.3v-2.1c0-.1.1-.3.3-.3z" class="p s"/><path d="M224.8 199.4h5.3c.1 0 .3.1.3.3v2.1c0 .1-.1.3-.3.3h-5.3c-.1 0-.3-.1-.3-.3v-2.1c0-.2.2-.3.3-.3z"/><path d="M224.7 211.7h5.3c.1 0 .3.1.3.3v2.1c0 .1-.1.3-.3.3h-5.3c-.1 0-.3-.1-.3-.3V212c.1-.2.2-.3.3-.3zm0 12.3h5.3c.1 0 .3.1.3.3v2.1c0 .1-.1.3-.3.3h-5.3c-.1 0-.3-.1-.3-.3v-2.1c0-.1.1-.3.3-.3zm-.1 12.4h5.3c.1 0 .3.1.3.3v2.1c0 .1-.1.3-.3.3h-5.3c-.1 0-.3-.1-.3-.3v-2.1c.1-.2.2-.3.3-.3z" class="p s"/><use xlink:href="#U" class="p s"/><path d="M253.8 241.7h5.3c.1 0 .3.1.3.3v2.1c0 .1-.1.3-.3.3h-5.3c-.1 0-.3-.1-.3-.3V242c0-.2.1-.3.3-.3z" class="p s"/><path d="M271.5 242.6l5.3.1c.1 0 .3.1.3.3v2.1c0 .1-.1.3-.3.3l-5.3-.1c-.1 0-.3-.1-.3-.3v-2.1c0-.2.1-.3.3-.3z"/><use xlink:href="#U" x="54.2" y="0.3" class="p s"/><path d="M307 241.9h5.3c.1 0 .3.1.3.3v2.1c0 .1-.1.3-.3.3H307c-.1 0-.3-.1-.3-.3v-2.1c.1-.1.2-.3.3-.3z" class="p s"/><path d="M323.2 242h5.3c.1 0 .3.1.3.3v2.1c0 .1-.1.3-.3.3h-5.3c-.1 0-.3-.1-.3-.3v-2.1c.1-.2.2-.3.3-.3z"/><use xlink:href="#U" x="104.7" y="0.5"/><path d="M358.9 243.4h5.1c.2 0 .4.2.4.4v1.8c0 .2-.2.4-.4.4h-5.1c-.2 0-.4-.2-.4-.4v-1.8c0-.2.2-.4.4-.4z"/></g><circle cx="246.2" cy="33.2" r="26.8" fill="#fdd835"/><path d="M239.4 26.3H253v7.8h-13.6c-2.1 0-3.9-1.8-3.9-3.9s1.7-3.9 3.9-3.9zm10.5 9.3h0-13.6v7.8h13.6c2.1 0 3.9-1.8 3.9-3.9.1-2.1-1.6-3.8-3.9-3.9zm4.5-9.3v7.9l7.3-3.9z" fill="#fff"/><defs ><path id="J" d="M397.4 344.1c1.6 1.1 3.6 1.5 5.6 1.7 2 .3 4 .4 5.7 1.3 1.5.8 2.8 2 4.4 2.5 1.5.4 3.1.4 4.6.1 1.8-.3 3.7-1 4.7-2.6.9-1.4.8-3.2.7-4.8l-.4-5.6c0-.5-.1-.9-.3-1.3-1.3-1.9-4.5.8-6.2.8-2.7 0-5.6-1.5-7.6-3.3-.2-.2-.4-.3-.6-.4-.8-.3-1.5.3-2.2.9l-.2.2c-1.6 1.2-3.7 1.5-5.7 2s-4.1 1.5-4.7 3.5c0 .1-.1.2-.1.4-.3 1.7.8 3.6 2.3 4.6z"/><path id="K" d="M397.4 344.7c1.6 1.1 3.6 1.5 5.6 1.7 2 .3 4 .4 5.7 1.3 1.5.8 2.8 2 4.4 2.5 1.5.4 3.1.4 4.6.1 1.9-.4 3.6-1.6 4.7-3.2.9-1.4.8-3.2.7-4.8l-.4-5.6c0-.5-.1-.9-.3-1.3-1.3-1.9-4.5.8-6.2.8-2.7 0-5.6-1.5-7.6-3.3-.2-.2-.4-.3-.6-.4-.8-.3-1.5.3-2.2.9.4 1.4 1.1 2.7 1.9 3.9 1.3 2.1 3.5 3.5 6 3.7 1.2.1 2.5-.1 3.6.2s2.3 1.5 1.9 2.6-1.8 1.4-3 1.4c-1.6.2-3.3.1-4.9-.3-1-.3-1.9-.8-2.8-1.2-4-1.6-9-.7-12.3-3.5-.3-.3-.6-.5-1-.8-.9 1.8.7 4.3 2.2 5.3z"/><path id="L" d="M440.5 223.2c1.3 6.2.1 12.7-3.4 18-1 1.4-1.9 2.8-2.7 4.4-.5 1.1-.8 2.3-1.1 3.5l-3 12.5c-.8 3.4-1.6 6.8-1.4 10.3.2 2.4.8 5.1-.7 7-.4.4-.7.8-.9 1.2-.1.5-.1 1.1 0 1.6 1.5 9.1 2.7 18.5-.1 27.3-2.5 7.9-2.6 16.8-4.8 24.8-.2 1-.6 2-1.3 2.8-.6.5-1.3.8-2 .9-3.1.7-6.4-.1-9.4-1.5-2-.9-4.3-2.6-4.1-4.9.1-1.1.7-2 1.1-3 .8-1.9.9-4.1 1.1-6.2.6-5.3 2.2-10.4 3.4-15.5s2.1-10.5 1-15.7c-2.1-10.7-5.5-21.2-10.1-31.1-.2-.5-.5-1-.9-1.4-.5-.3-.9-.6-1.3-.9-.3-.5-.5-1-.6-1.6-.5-1.6-1.8-2.9-2.7-4.3-2.3-3.6-1.6-8.3-1.5-12.6.1-4.2-.5-8.4.2-12.5s3.1-8.4 7-9.7c2-.6 4.1-.5 6.2-.3 11.1 1 21.8 2.9 32 6.9z"/><path id="M" d="M454.9 152.3c.2 1.7-.6 3.3-.6 5-.1 1.5.4 2.9.7 4.4 1 5.7-1 11.5-3 16.9-.4.9-.6 1.8-.7 2.8-.1 1.8 1 3.4 1.2 5.1.6 3.7-2.1 7.1-2.2 10.8 0 1.7.5 3.4.1 5.1-.4 1.1-.9 2.1-1.5 3.1-.9 1.8-1.1 3.9-1.9 5.7-1.5 3.3-4.7 5.5-7.8 7.5-1.7-.6-3.6-1.2-4.6-2.8-.4-.8-.7-1.6-.8-2.5-.7-3.8-.6-7.7-.6-11.5-.1-3.3.1-6.6.5-9.9.6-4.2 2-8.2 3-12.3 1.2-5.2 1.9-10.6 3.7-15.5 1.7-4.4 4.3-8.3 7.1-12.1 1.1-1.4 1.9-3.5 3.9-3.2 1.8.2 3.2 1.6 3.5 3.4z"/><path id="N" d="M411.1 128.7c1.8-1 3.7-1.6 5.7-1.9 1.2-.3 2.4-.4 3.6-.3 1.1.1 2.2.6 3.3.6 1.6.1 3.1-.5 4.6-1 1.5-.4 3.3-.6 4.6.3.3.3.6.5 1 .5s.8-.2 1-.5c2.2-1.6 5.2-1.4 7.3.4 2.9 2.7 2.6 8 6 10.1.9.6 2.1.9 2.7 1.8.1.3.3.6.5.9.2.2.5.4.8.6 1 .4 1.9 1 2.8 1.6a3.66 3.66 0 0 1 1.6 2.7c0 .8-.2 1.6-.5 2.3-3.4 8.4-11.7 13.7-20.8 13.3-.8 0-1.6-.2-2.2-.7-.3-.4-.6-.8-.8-1.2-1.6-3.4-4.6-5.8-6.5-9-1.1-1.9-1.9-4-3-5.9-1.8-2.8-4.5-4.9-7.2-7-1.5-1.1-3.2-2.4-5.1-2.3-1.7.1-2.9.2-2.3-1.9.5-1.3 1.5-2.6 2.9-3.4z"/><path id="O" d="M201.8 128.9h3.7c1.6 0 2.9.4 3.8 1.3s1.4 2.1 1.4 3.7-.5 2.8-1.4 3.7-2.2 1.3-3.8 1.3h-3.7v-10zm3.6 8.5c2.3 0 3.4-1.2 3.4-3.5s-1.1-3.5-3.4-3.5h-1.8v7h1.8z"/><path id="P" d="M254.1 138.8v-10h6.7v1.4h-4.9v2.8h4.6v1.4h-4.6v2.9h4.9v1.4h-6.7z"/><path id="Q" d="M274.6 274.9h-1.9l-1.3-3.3c-.1-.3-.3-.5-.5-.6s-.5-.2-.9-.2h-1.8v4.1h-1.8v-10h4.3c1.1 0 2 .2 2.6.7s.9 1.2.9 2.1c0 .7-.2 1.2-.5 1.7s-.8.8-1.5 1c.6.1 1 .5 1.3 1.2l1.1 3.3zm-4.2-5.6c.7 0 1.2-.1 1.5-.4s.5-.6.5-1.1-.2-.9-.5-1.1-.8-.4-1.5-.4h-2.3v3h2.3z"/><path id="R" d="M109 212.1c-5.9 3.2-11 3.2-11 3.2-1.3.2-11.5-3.1-11.5-3.1l.5-2.7 5.3 1.6s1.6 1.1 8.2.8 7.6-2.1 7.6-2.1c.4 0 .7 1 .9 2.3z"/><path id="S" d="M90.2 217.4c-1.9 0-3.9-.9-4-.9l.1-.2s3.8 1.7 5.9.4c.8-.5 1.2-1.3 1.3-2.5h.2c-.1 1.2-.6 2.1-1.4 2.6-.6.4-1.4.6-2.1.6z"/><path id="T" d="M105.7 217.5c-.5 0-1-.1-1.4-.3-1.5-.7-1.8-2.5-1.8-2.6h.2s.2 1.8 1.7 2.5c1.3.6 3.1.2 5.4-1.2l.1.2c-1.6.9-3 1.4-4.2 1.4z"/><path id="U" d="M235.6 241.6h5.3c.1 0 .3.1.3.3v2.1c0 .1-.1.3-.3.3h-5.3c-.1 0-.3-.1-.3-.3v-2.1c0-.2.1-.3.3-.3z"/></defs></svg>