<svg xmlns="http://www.w3.org/2000/svg" width="512" height="512" viewBox="0 0 512.001 512.001"  fill="#2d94f3" xmlns:v="https://vecta.io/nano"><path d="M21.976 0v430.114h15V15h290.585v60.35h60.351v421.651H36.976v-51.886h-15v66.886h380.936V64.743L338.168 0zm320.585 25.606l34.745 34.744h-34.745zm147.464 80.087l-14.902-16.658V54.4h-44.999v34.635l-14.902 16.658 7.774 291.683h7.129v24.27l22.5 44.999 22.499-44.999v-24.27h7.129zm-52.424 276.683l-2.858-107.25h35.762l-2.858 107.25zm-3.258-122.251l-3.968-148.874 10.603-11.852h23.292l10.603 11.852-3.968 148.874zM445.124 69.4h14.999v14.999h-14.999zm14.999 348.704l-7.499 14.999-7.5-14.999v-20.729h14.999zM72.306 325.033h15v15h-15zm29.999 0h106.968v15H102.305zM261.913 248.5h90.667v15h-90.667zm-189.607 0h174.606v15H72.306zm0 38.267h55.376v15H72.306zm70.376 0H352.58v15H142.682zm-70.376-76.534h55.376v15H72.306zm70.376 0H352.58v15H142.682zM261.913 133.7h90.667v15h-90.667zm-189.607 0h174.606v15H72.306zm174.606 38.267H72.306v15H352.58v-15h-90.667zM102.305 363.3h106.968v15H102.305zm-29.999 0h15v15h-15zM275.613 95.434h76.967v15h-76.967zm-60 0h15.001v15h-15.001zm30 0h15v15h-15zm199.511 26.465h15v65.228h-15zm0 80.228h15v15h-15zM96.976 30h15v15h-15zM51.975 82.5h15V45h15V30h-30zM126.976 30h15v15h-15zm163.436 437.001h15v15h-15zm82.5-15h-15v15h-37.5v15h52.5zM352.58 363.3h-90v52.5h90zm-15 37.5h-60v-22.5h60z"/></svg>