<svg id="Capa_1" enable-background="new 0 0 512 512" height="512" viewBox="0 0 512 512" width="512" xmlns="http://www.w3.org/2000/svg"><g><path d="m499.085 483.653h-486.17c-7.133 0-12.915-5.782-12.915-12.915v-29.922c0-7.133 5.782-12.915 12.915-12.915h486.171c7.133 0 12.915 5.782 12.915 12.915v29.922c-.001 7.133-5.783 12.915-12.916 12.915z" fill="#365e7d"/><path d="m499.085 427.901h-27.239c7.133 0 12.915 5.782 12.915 12.915v29.922c0 7.133-5.782 12.915-12.915 12.915h27.239c7.133 0 12.915-5.782 12.915-12.915v-29.922c0-7.132-5.782-12.915-12.915-12.915z" fill="#2b4d66"/><path d="m292.199 458.866h-72.398c-2.296 0-4.345-1.441-5.122-3.601l-9.839-27.364h102.319l-9.839 27.364c-.776 2.16-2.825 3.601-5.121 3.601z" fill="#81a7c6"/><path d="m477.719 427.901h-443.438v-271.385c0-13.262 10.751-24.012 24.012-24.012h395.414c13.262 0 24.012 10.751 24.012 24.012z" fill="#365e7d"/><path d="m65.186 392.703v-225.001c0-2.371 1.922-4.293 4.293-4.293h373.043c2.371 0 4.293 1.922 4.293 4.293v225.001c0 2.371-1.922 4.293-4.293 4.293h-373.043c-2.371 0-4.293-1.922-4.293-4.293z" fill="#cbe2ff"/><path d="m442.522 163.409h-23.05c2.371 0 4.293 1.922 4.293 4.293v225.001c0 2.371-1.922 4.293-4.293 4.293h23.05c2.371 0 4.293-1.922 4.293-4.293v-225.001c0-2.371-1.922-4.293-4.293-4.293z" fill="#bed8fb"/><path d="m388.291 352.085h-264.582c-11.044 0-19.997-8.953-19.997-19.997v-254.297h304.576v254.298c0 11.044-8.953 19.996-19.997 19.996z" fill="#f9f6f9"/><path d="m385.03 77.791v254.298c0 11.044-8.953 19.997-19.997 19.997h23.258c11.044 0 19.997-8.953 19.997-19.997v-254.298z" fill="#dddaec"/><path d="m388.291 28.347h-264.582c-11.044 0-19.997 8.953-19.997 19.997v29.447h304.576v-29.447c0-11.044-8.953-19.997-19.997-19.997z" fill="#61a2f9"/><path d="m388.291 28.347h-23.258c11.044 0 19.997 8.953 19.997 19.997v29.447h23.258v-29.447c0-11.044-8.953-19.997-19.997-19.997z" fill="#5490f9"/><g><g><path d="m139.546 60.795h-4.692c-4.268 0-7.726-3.459-7.726-7.726s3.459-7.726 7.726-7.726h4.692c4.268 0 7.726 3.459 7.726 7.726s-3.458 7.726-7.726 7.726z" fill="#ffd064"/></g><g><path d="m171.993 60.795h-4.693c-4.268 0-7.726-3.459-7.726-7.726s3.459-7.726 7.726-7.726h4.692c4.268 0 7.726 3.459 7.726 7.726s-3.458 7.726-7.725 7.726z" fill="#ffd064"/></g><g><path d="m204.438 60.795h-4.692c-4.268 0-7.726-3.459-7.726-7.726s3.459-7.726 7.726-7.726h4.692c4.268 0 7.726 3.459 7.726 7.726s-3.458 7.726-7.726 7.726z" fill="#ffd064"/></g></g><g><g><path d="m169.966 166.742h-15.039c-15.329 0-27.8-12.471-27.8-27.799 0-15.329 12.471-27.8 27.8-27.8h15.039c4.268 0 7.726 3.459 7.726 7.726v40.146c.001 4.268-3.458 7.727-7.726 7.727zm-15.039-40.146c-6.808 0-12.347 5.539-12.347 12.347s5.539 12.346 12.347 12.346h7.313v-24.693z" fill="#ffd064"/></g><g><path d="m205.078 179.882c-.912 0-1.829-.162-2.707-.49l-35.113-13.141c-3.018-1.13-5.018-4.014-5.018-7.236v-40.146c0-3.222 2-6.107 5.018-7.236l35.113-13.14c2.374-.887 5.03-.556 7.112.887 2.081 1.444 3.323 3.816 3.323 6.349v66.427c0 2.533-1.241 4.905-3.323 6.349-1.312.91-2.852 1.377-4.405 1.377zm-27.385-26.225 19.66 7.358v-44.145l-19.66 7.357z" fill="#ffd064"/></g><g><path d="m161.94 196.115c-3.494 0-6.661-2.386-7.509-5.933l-7.019-29.371c-.992-4.15 1.569-8.319 5.719-9.311 4.15-.991 8.319 1.569 9.311 5.719l7.019 29.371c.992 4.15-1.569 8.319-5.719 9.311-.604.144-1.207.214-1.802.214z" fill="#ffd064"/></g><g><path d="m239.127 146.669h-6.455c-4.268 0-7.726-3.459-7.726-7.726s3.459-7.726 7.726-7.726h6.455c4.268 0 7.726 3.459 7.726 7.726s-3.458 7.726-7.726 7.726z" fill="#ffd064"/></g><g><g><path d="m232.735 119.591c-3.512 0-6.689-2.41-7.518-5.978-.967-4.157 1.619-8.31 5.775-9.276l6.316-1.469c4.154-.97 8.31 1.618 9.276 5.775.967 4.157-1.619 8.31-5.775 9.276l-6.316 1.469c-.589.136-1.178.203-1.758.203z" fill="#ffd064"/></g><g><path d="m239.065 175.22c-.579 0-1.167-.065-1.756-.202l-6.316-1.468c-4.157-.967-6.743-5.119-5.778-9.275.967-4.157 5.119-6.743 9.275-5.778l6.316 1.468c4.157.967 6.743 5.119 5.778 9.275-.83 3.568-4.007 5.98-7.519 5.98z" fill="#ffd064"/></g></g></g><g><g><path d="m373.756 118.313h-48.019c-4.268 0-7.726-3.459-7.726-7.726 0-4.268 3.459-7.726 7.726-7.726h48.019c4.268 0 7.726 3.459 7.726 7.726.001 4.267-3.458 7.726-7.726 7.726z" fill="#2b4d66"/></g><g><path d="m373.756 153.097h-89.226c-4.268 0-7.726-3.459-7.726-7.726s3.459-7.726 7.726-7.726h89.226c4.268 0 7.726 3.459 7.726 7.726s-3.458 7.726-7.726 7.726z" fill="#2b4d66"/></g><g><path d="m373.756 187.88h-89.226c-4.268 0-7.726-3.459-7.726-7.726 0-4.268 3.459-7.726 7.726-7.726h89.226c4.268 0 7.726 3.459 7.726 7.726.001 4.268-3.458 7.726-7.726 7.726z" fill="#2b4d66"/></g><g><path d="m373.756 222.664h-171.641c-4.268 0-7.726-3.459-7.726-7.726s3.459-7.726 7.726-7.726h171.641c4.268 0 7.726 3.459 7.726 7.726s-3.458 7.726-7.726 7.726z" fill="#2b4d66"/></g><g><path d="m373.756 257.448h-235.512c-4.268 0-7.726-3.459-7.726-7.726s3.459-7.726 7.726-7.726h235.512c4.268 0 7.726 3.459 7.726 7.726s-3.458 7.726-7.726 7.726z" fill="#2b4d66"/></g><g><path d="m373.756 292.232h-235.512c-4.268 0-7.726-3.459-7.726-7.726s3.459-7.726 7.726-7.726h235.512c4.268 0 7.726 3.459 7.726 7.726s-3.458 7.726-7.726 7.726z" fill="#2b4d66"/></g><g><path d="m373.756 327.016h-235.512c-4.268 0-7.726-3.459-7.726-7.726 0-4.268 3.459-7.726 7.726-7.726h235.512c4.268 0 7.726 3.459 7.726 7.726.001 4.268-3.458 7.726-7.726 7.726z" fill="#2b4d66"/></g></g><path d="m453.707 132.504h-30.905c13.262 0 24.012 10.751 24.012 24.012v230.737c0 13.345-10.818 24.163-24.163 24.163h-388.37v16.486h443.439v-271.386c-.001-13.262-10.751-24.012-24.013-24.012z" fill="#2b4d66"/></g></svg>