<svg xmlns="http://www.w3.org/2000/svg" width="512" height="512" viewBox="0 0 64 64"  fill="#2d94f3" xmlns:v="https://vecta.io/nano"><path d="M16.137 17.847A2.991 2.991 0 0 0 22 17V7a2.991 2.991 0 0 0-5.863-.847l-8.18 1.636A.984.984 0 0 0 7 7H5a3 3 0 0 0-3 3v4a3 3 0 0 0 2 2.816V23a1 1 0 0 0 1 1h2a3 3 0 0 0 3-3v-4.38zM8 9.82l8-1.6v7.56l-8-1.6zM18 7a1 1 0 0 1 2 0v10a1 1 0 0 1-2 0zM4 10a1 1 0 0 1 1-1h1v6H5a1 1 0 0 1-1-1zm4 11a1 1 0 0 1-1 1H6v-5h1a.984.984 0 0 0 .957-.789L8 16.22zm16-10h6v2h-6zm-.555-2.831l6-4 1.109 1.664-6 4zm0 7.662l1.109-1.664 6 4-1.109 1.664z"/><path d="M61 2H33a1 1 0 0 0-1 1v20.38A3.985 3.985 0 0 0 25 26h-1a4.009 4.009 0 0 0-3.89 3.07A6 6 0 0 0 15 35v1.18A5.76 5.76 0 0 0 11 42a5.76 5.76 0 0 0 4 5.82V49a6 6 0 0 0 5.11 5.93A4.009 4.009 0 0 0 24 58h1a3.985 3.985 0 0 0 7 2.62A3.985 3.985 0 0 0 39 58h1a4.009 4.009 0 0 0 3.89-3.07A6 6 0 0 0 49 49v-1.18A5.76 5.76 0 0 0 53 42a5.76 5.76 0 0 0-4-5.82V35a6 6 0 0 0-5.11-5.93A4.009 4.009 0 0 0 40 26h21a1 1 0 0 0 1-1V3a1 1 0 0 0-1-1zM31 36a2 2 0 0 1-4 0h-2a4 4 0 0 0 4 4 3.906 3.906 0 0 0 2-.56v5.12a3.906 3.906 0 0 0-2-.56 4 4 0 0 0-4 4h2a2 2 0 0 1 4 0v10a2 2 0 0 1-4 0v-.14A4 4 0 0 0 30 54h-2a2.006 2.006 0 0 1-2 2h-2a1.991 1.991 0 0 1-1.83-1.2A3.981 3.981 0 0 0 25 51h-2a2.006 2.006 0 0 1-2 2 4 4 0 0 1-4-4v-1.14A4 4 0 0 0 20 44h-2a2 2 0 0 1-1.94 1.99C13.95 45.73 13 43.81 13 42s.95-3.73 3.06-3.99A2 2 0 0 1 18 40h2a4 4 0 0 0-3-3.86V35a4 4 0 0 1 4-4 2.006 2.006 0 0 1 2 2h2a3.981 3.981 0 0 0-2.83-3.8A1.991 1.991 0 0 1 24 28h2a2.006 2.006 0 0 1 2 2h2a4 4 0 0 0-3-3.86V26a2 2 0 0 1 4 0zm10.83-6.8A3.981 3.981 0 0 0 39 33h2a2.006 2.006 0 0 1 2-2 4 4 0 0 1 4 4v1.14A4 4 0 0 0 44 40h2a2 2 0 0 1 1.94-1.99C50.05 38.27 51 40.19 51 42s-.95 3.73-3.06 3.99A2 2 0 0 1 46 44h-2a4 4 0 0 0 3 3.86V49a4 4 0 0 1-4 4 2.006 2.006 0 0 1-2-2h-2a3.981 3.981 0 0 0 2.83 3.8A1.991 1.991 0 0 1 40 56h-2a2.006 2.006 0 0 1-2-2h-2a4 4 0 0 0 3 3.86V58a2 2 0 0 1-4 0V48a2 2 0 0 1 4 0h2a4 4 0 0 0-4-4 3.906 3.906 0 0 0-2 .56v-5.12a3.906 3.906 0 0 0 2 .56 4 4 0 0 0 4-4h-2a2 2 0 0 1-4 0V26a2 2 0 0 1 4 0v.14A4 4 0 0 0 34 30h2a2.006 2.006 0 0 1 2-2h2a1.991 1.991 0 0 1 1.83 1.2zM60 24H38.44A3.98 3.98 0 0 0 35 22a4.091 4.091 0 0 0-1 .14V4h26zm-4-14h2v12h-2zm-5 2h2v10h-2zm-5 2h2v8h-2z"/><path d="M41 16h2v6h-2zm-.586-2H43a1 1 0 0 0 .832-.445L45.535 11H52a1 1 0 0 0 .707-.293L55.414 8H58V6h-3a1 1 0 0 0-.707.293L51.586 9H45a1 1 0 0 0-.832.445L42.465 12H40a1 1 0 0 0-.707.293l-3 3 1.414 1.414zM36 18h2v4h-2z"/></svg>