<?xml version="1.0" encoding="utf-8"?>
<svg version="1.1" xmlns="http://www.w3.org/2000/svg" xmlns:xlink="http://www.w3.org/1999/xlink" x="0px" y="0px" viewBox="0 0 371.3 378.5" enable-background="new 0 0 371.3 378.5" xml:space="preserve">
<defs><linearGradient id="shadow_gr" x1="0" y1="0" x2="1" y2="0"><stop offset="0" style="stop-color:#BCC0E5"/><stop offset="1" style="stop-color:#BCC0E5;stop-opacity:0"/></linearGradient><linearGradient id="screen_glow_gr" gradientUnits="userSpaceOnUse" x1="758.4238" y1="238.0349" x2="734.8076" y2="201.5749" gradientTransform="matrix(-1 0 0 1 958.395 0)"><stop offset="0" style="stop-color:#D2440E"/><stop offset="1" style="stop-color:#FFAD6F;stop-opacity:0"/></linearGradient><linearGradient id="SVGID_1_" gradientUnits="userSpaceOnUse" x1="367.4962" y1="297.0174" x2="-2.4364" y2="297.0174"><stop offset="0.3962" style="stop-color:#BCC0E5"/><stop offset="0.6076" style="stop-color:#D0D3F5"/></linearGradient><linearGradient id="SVGID_2_" gradientUnits="userSpaceOnUse" x1="0" y1="251.4588" x2="371.3125" y2="251.4588"><stop offset="0" style="stop-color:#F7F8FF"/><stop offset="1" style="stop-color:#F2F3FA"/></linearGradient><linearGradient id="SVGID_3_" gradientUnits="userSpaceOnUse" x1="241.391" y1="78.4266" x2="215.8813" y2="123.1316"><stop offset="0" style="stop-color:#FFAD6F"/><stop offset="1" style="stop-color:#FF5A6F"/></linearGradient><linearGradient id="SVGID_10_" gradientUnits="userSpaceOnUse" x1="628.3221" y1="208.8665" x2="617.0407" y2="251.1298" gradientTransform="matrix(-1 0 0 1 736.1981 0)"><stop offset="0" style="stop-color:#BCC0E5"/><stop offset="1" style="stop-color:#FFFFFF"/></linearGradient><linearGradient id="SVGID_11_" gradientUnits="userSpaceOnUse" x1="641.9747" y1="199.7385" x2="637.7082" y2="227.3456" gradientTransform="matrix(-1 0 0 1 736.1981 0)"><stop offset="0" style="stop-color:#BCC0E5"/><stop offset="1" style="stop-color:#FFFFFF"/></linearGradient><linearGradient id="SVGID_12_" gradientUnits="userSpaceOnUse" x1="642.019" y1="223.2123" x2="650.4379" y2="295.2786" gradientTransform="matrix(-1 0 0 1 736.1981 0)"><stop offset="0" style="stop-color:#080078"/><stop offset="1" style="stop-color:#5B68F5"/></linearGradient><linearGradient id="SVGID_16_" gradientUnits="userSpaceOnUse" x1="581.9613" y1="240.9954" x2="597.5045" y2="303.1685" gradientTransform="matrix(-1 0 0 1 736.1981 0)"><stop offset="0" style="stop-color:#5B68F5"/><stop offset="0.9996" style="stop-color:#3F51B5"/></linearGradient><linearGradient id="SVGID_17_" gradientUnits="userSpaceOnUse" x1="570.0718" y1="231.1594" x2="578.3807" y2="302.2843" gradientTransform="matrix(-1 0 0 1 736.1981 0)"><stop offset="3.785800e-04" style="stop-color:#5B68F5"/><stop offset="1" style="stop-color:#3F51B5"/></linearGradient><linearGradient id="SVGID_18_" gradientUnits="userSpaceOnUse" x1="561.6995" y1="170.3619" x2="571.1287" y2="211.4464" gradientTransform="matrix(-1 0 0 1 736.1981 0)"><stop offset="7.571600e-04" style="stop-color:#EE6F40"/><stop offset="0.3889" style="stop-color:#EE7143"/><stop offset="1" style="stop-color:#F7B7A9"/></linearGradient></defs><g><path fill="#9295B2" d="M371.3,271.3c-0.3-4.5-3.7-9.1-10-12.8l-153.6-88.6c-12.2-7-30.6-7.8-41.1-1.7L7.1,260.4c-5,2.9-7.3,6.8-7.1,10.9c0.3,4.5,3.7,9.1,10,12.8l153.6,88.6c12.2,7,30.6,7.8,41.1,1.7l159.5-92.2C369.2,279.4,371.6,275.4,371.3,271.3z"/><path fill="url(#SVGID_1_)" d="M371.3,268L371.3,268l0-15.2L309,283.1l-101.3-58.5c-12.2-7-30.6-7.8-41.1-1.7L62.4,283.1L0,252.8v14.1c0,0.4,0,0.8,0,1.1c0.3,4.5,3.7,9.1,10,12.8l153.6,88.6c6.3,3.6,14.3,5.6,22,5.8l0,0l0,0c7.1,0.2,14-1.2,19.1-4.1l159.5-92.2C369.2,276,371.6,272.1,371.3,268z"/><path fill="#FFFFFF" d="M371.3,252.8c-0.3-4.5-3.7-9.1-10-12.8l-153.6-88.6c-12.2-7-30.6-7.8-41.1-1.7L7.1,241.9c-5,2.9-7.3,6.8-7.1,10.9c0.3,4.5,3.7,9.1,10,12.8l153.6,88.6c12.2,7,30.6,7.8,41.1,1.7l159.5-92.2C369.2,260.8,371.6,256.9,371.3,252.8z"/><path fill="url(#SVGID_2_)" d="M371.3,251.5c-0.3-4.5-3.7-9.1-10-12.8l-153.6-88.6c-12.2-7-30.6-7.8-41.1-1.7L7.1,240.5c-5,2.9-7.3,6.8-7.1,10.9c0.3,4.5,3.7,9.1,10,12.8l153.6,88.6c12.2,7,30.6,7.8,41.1,1.7l159.5-92.2C369.2,259.5,371.6,255.5,371.3,251.5z"/></g><g><g><path fill="#080078" d="M310.6,108.5v150.8c0,4.5-4.9,7.3-8.8,5.1l-157.3-90.8c-6-3.5-9.8-9.9-9.8-16.9V5.9c0-4.5,4.9-7.3,8.8-5.1l157.3,90.8C306.8,95.1,310.6,101.5,310.6,108.5z"/><g><g><g><polygon fill="#FFFFFF" points="267.8,180.4 271,182.3 271,178.6 267.8,176.7"/><polygon fill="#FFFFFF" points="276.1,185.2 279.3,187 279.3,183.3 276.1,181.5"/><polygon fill="#EE6F40" points="284.3,190 287.5,191.8 287.5,188.1 284.3,186.3"/><polygon fill="#EE6F40" points="292.6,194.7 295.8,196.6 295.8,192.9 292.6,191"/><polygon fill="#FFFFFF" points="243.1,175.6 246.3,177.5 246.3,173.8 243.1,171.9"/><polygon fill="#FFFFFF" points="251.3,180.4 254.5,182.2 254.5,178.5 251.3,176.7"/><polygon fill="#FFFFFF" points="259.6,185.1 262.8,187 262.8,183.3 259.6,181.5"/><polygon fill="#FFFFFF" points="267.8,189.9 271,191.7 271,188.1 267.8,186.2"/><polygon fill="#FFFFFF" points="276.1,194.7 279.3,196.5 279.3,192.8 276.1,191"/><polygon fill="#EE6F40" points="284.3,199.4 287.5,201.3 287.5,197.6 284.3,195.8"/><polygon fill="#EE6F40" points="292.6,204.2 295.8,206 295.8,202.4 292.6,200.5"/><polygon fill="#FFFFFF" points="243.1,185.1 246.3,186.9 246.3,183.3 243.1,181.4"/><polygon fill="#FFFFFF" points="251.3,189.9 254.5,191.7 254.5,188 251.3,186.2"/><polygon fill="#FFFFFF" points="259.6,194.6 262.8,196.5 262.8,192.8 259.6,190.9"/><polygon fill="#FFFFFF" points="267.8,199.4 271,201.2 271,197.6 267.8,195.7"/><polygon fill="#FFFFFF" points="276.1,204.2 279.3,206 279.3,202.3 276.1,200.5"/><polygon fill="#EE6F40" points="284.3,208.9 287.5,210.8 287.5,207.1 284.3,205.2"/><polygon fill="#EE6F40" points="292.6,213.7 295.8,215.5 295.8,211.9 292.6,210"/><polygon fill="#FFFFFF" points="243.1,194.6 246.3,196.4 246.3,192.7 243.1,190.9"/><polygon fill="#FFFFFF" points="251.3,199.4 254.5,201.2 254.5,197.5 251.3,195.7"/><polygon fill="#FFFFFF" points="259.6,204.1 262.8,206 262.8,202.3 259.6,200.4"/><polygon fill="#FFFFFF" points="267.8,208.9 271,210.7 271,207 267.8,205.2"/><polygon fill="#FFFFFF" points="276.1,213.6 279.3,215.5 279.3,211.8 276.1,210"/><polygon fill="#EE6F40" points="284.3,218.4 287.5,220.3 287.5,216.6 284.3,214.7"/><polygon fill="#EE6F40" points="292.6,223.2 295.8,225 295.8,221.3 292.6,219.5"/><polygon fill="#FFFFFF" points="243.1,204.1 246.3,205.9 246.3,202.2 243.1,200.4"/><polygon fill="#FFFFFF" points="251.3,208.8 254.5,210.7 254.5,207 251.3,205.2"/><polygon fill="#FFFFFF" points="259.6,213.6 262.8,215.4 262.8,211.8 259.6,209.9"/><polygon fill="#FFFFFF" points="267.8,218.4 271,220.2 271,216.5 267.8,214.7"/><polygon fill="#FFFFFF" points="276.1,223.1 279.3,225 279.3,221.3 276.1,219.5"/></g></g><g><g><path fill="#FFFFFF" d="M151.7,83c-0.2,0-0.3-0.1-0.3-0.3V63.8c0-0.2,0.1-0.3,0.3-0.3c0.2,0,0.3,0.1,0.3,0.3v18.8C152,82.8,151.9,83,151.7,83z"/><path fill="#FFFFFF" d="M175.2,96.6c-0.2,0-0.3-0.1-0.3-0.3V50.1c0-0.2,0.1-0.3,0.3-0.3c0.2,0,0.3,0.1,0.3,0.3v46.1C175.5,96.4,175.4,96.6,175.2,96.6z"/><polygon fill="#FFFFFF" points="179.1,104.2 171.4,99.7 171.4,103.5 179.1,108"/><polygon fill="#FFFFFF" points="155.2,90.4 147.4,85.9 147.4,89.7 155.2,94.1"/><path fill="#FFFFFF" d="M198.8,110.1c-0.2,0-0.3-0.1-0.3-0.3V91c0-0.2,0.1-0.3,0.3-0.3c0.2,0,0.3,0.1,0.3,0.3v18.8C199.1,110,198.9,110.1,198.8,110.1z"/><polygon fill="#FFFFFF" points="202.7,117.8 194.9,113.3 194.9,117.1 202.7,121.5"/><path fill="#FFFFFF" d="M222.3,123.6c-0.2,0-0.3-0.1-0.3-0.3V77.2c0-0.2,0.1-0.3,0.3-0.3c0.2,0,0.3,0.1,0.3,0.3v46.1C222.6,123.5,222.5,123.6,222.3,123.6z"/><polygon fill="#FFFFFF" points="226.2,131.4 218.4,126.9 218.4,130.6 226.2,135.1"/><path fill="#C9C9C9" d="M245.8,137.2c-0.2,0-0.3-0.1-0.3-0.3v-18.8c0-0.2,0.1-0.3,0.3-0.3c0.2,0,0.3,0.1,0.3,0.3v18.8C246.1,137.1,246,137.2,245.8,137.2z"/><polygon fill="#FFFFFF" points="249.7,145 241.9,140.5 241.9,144.2 249.7,148.7"/><path fill="#FFFFFF" d="M269.4,150.8c-0.2,0-0.3-0.1-0.3-0.3v-46.1c0-0.2,0.1-0.3,0.3-0.3c0.2,0,0.3,0.1,0.3,0.3v46.1C269.7,150.7,269.5,150.8,269.4,150.8z"/><polygon fill="#FFFFFF" points="273.3,158.6 265.5,154.1 265.5,157.8 273.3,162.3"/><path fill="#FFFFFF" d="M292.9,164.4c-0.2,0-0.3-0.1-0.3-0.3v-18.8c0-0.2,0.1-0.3,0.3-0.3c0.2,0,0.3,0.1,0.3,0.3v18.8C293.2,164.3,293.1,164.4,292.9,164.4z"/><polygon fill="#FFFFFF" points="296.8,172.2 289,167.7 289,171.4 296.8,175.9"/><g><path fill="url(#SVGID_3_)" d="M147,68c-0.5-0.3-0.9-0.9-0.9-1.5c0-0.5,0.4-0.8,0.9-0.5l4.7,2.7c0,0,0,0,0.1,0c3.2,1.8,6.8-0.7,10.3-3.1c4.1-2.9,8.4-5.9,13.2-3.2c0,0,0.1,0,0.1,0.1c4.5,2.6,8.4,8.9,12.2,15c3.6,5.7,7.3,11.6,11.2,13.9c3.5,2,6.7-3.9,9.8-9.6c3.8-7.1,7.8-14.4,13.7-11c5.8,3.3,9.6,12.9,13.3,22.2c3.3,8.1,6.4,15.8,10.2,18c0,0,0,0,0,0c4.5,2.5,8.3,3.6,11.9,4.7c3.6,1,7.2,2.1,11.6,4.5c4.5,2.4,8.1,7.2,11.5,11.9c3.5,4.7,7.1,9.6,11.9,12.4c0,0,0.1,0,0.1,0.1l8.3,4.8c0.5,0.3,0.9,0.9,0.9,1.5c0,0.5-0.4,0.8-0.9,0.5l-8.3-4.8c0,0-0.1-0.1-0.1-0.1c-5.3-3.1-9.2-8.3-12.9-13.3c-3.4-4.5-6.5-8.8-10.5-11c-4.1-2.3-7.6-3.3-11.2-4.3c-3.8-1.1-7.7-2.2-12.3-4.9c0,0,0,0-0.1,0c-4.8-2.8-8.1-11-11.6-19.8c-3.5-8.7-7.1-17.6-11.9-20.4c-4.8-2.8-8.7,4.4-12.2,10.7c-3.5,6.4-6.8,12.5-11.4,9.9c-4.5-2.6-8.5-8.9-12.3-15c-3.7-6-7.2-11.6-11.1-13.8c0,0-0.1,0-0.1-0.1c-4-2.2-8,0.6-11.9,3.3c-3.9,2.7-7.7,5.3-11.6,3.1c0,0-0.1,0-0.1-0.1L147,68C147,68,147,68,147,68z"/></g></g><polygon fill="#EE6F40" points="220.9,65.2 222,69 223.1,66.5 225.9,68.1 225.9,61.8 218.1,57.3 218.1,63.6"/></g><g><g><path fill="#EE6F40" d="M214,151.3c-9.3-5.4-16.9-1-16.9,9.7c0,10.8,7.6,23.9,16.9,29.2c9.3,5.4,16.9,1,16.9-9.7C230.9,169.8,223.4,156.7,214,151.3z M214,185.7c-7.1-4.1-12.9-14.2-12.9-22.4c0-8.2,5.8-11.6,12.9-7.5c7.1,4.1,12.9,14.2,12.9,22.4C227,186.5,221.2,189.9,214,185.7z"/><path fill="#FFFFFF" d="M227,178.3c0,3.5-1,6-2.7,7.6l3.1,4.6c2.2-2,3.6-5.4,3.6-9.9c0-10.8-7.6-23.9-16.9-29.2v4.6C221.2,160,227,170,227,178.3z"/></g><g><path fill="#EE6F40" d="M164.3,122.6c-9.3-5.4-16.9-1-16.9,9.7c0,10.8,7.6,23.9,16.9,29.2c9.3,5.4,16.9,1,16.9-9.7C181.2,141.1,173.6,128,164.3,122.6z M164.3,157c-7.1-4.1-12.9-14.2-12.9-22.4c0-8.2,5.8-11.6,12.9-7.5c7.1,4.1,12.9,14.2,12.9,22.4S171.4,161.1,164.3,157z"/><path fill="#FFFFFF" d="M175,139.8l3.3-0.7c-3-6.9-8.1-13.2-13.9-16.5v4.6C168.7,129.7,172.6,134.6,175,139.8z"/></g></g></g></g><polygon fill="url(#screen_glow_gr)" points="148.9,193.6 292.6,277.2 292.6,218.2 148.9,134.6"/></g><g><g><path fill="url(#shadow_gr)" d="M111.4,255.4c-9.8,0-17.7,4.1-17.7,9.2c0,5.1,7.9,9.2,17.7,9.2h90.1v-18.5H111.4z"/><path fill="#080078" d="M105.8,253.8c-1.2,1.2-0.9,3.7-0.2,4.7c1.1,1.8,2.6,0.8,3.6,1.4c2.7,1.7,8.3,3.3,9.5,2.5c1.2-0.8,2.1-3.3-4.2-5.7c-2.8-1.1-4.2-2.6-4.2-2.6L105.8,253.8z"/><path fill="#FFFFFF" d="M105.9,251.7c-0.2,1.6-0.3,2.6-0.4,3.1c-0.1,0.4,0.1,0.8,0.3,1c0.8,0.7,2.6,1.8,4.5,0.9c0,0,1.2-0.5,0.6-2c-0.5-1.5-0.8-3.4-0.8-3.4L105.9,251.7z"/><path fill="#080078" d="M94.6,262.8c-1.2,1.2-1,3.8-0.2,4.7c0.8,0.9,2.1,0.2,2.7,1.2c2.2,3.9,6.3,3.4,7.7,3.3c2.1-0.2,2.2-2-1.3-5.2c-3.4-3.2-4-4-4-4L94.6,262.8z"/><path fill="url(#SVGID_10_)" d="M96.1,167.1c-4,9.8,0.3,12,3.3,24.3c2.7,11,1,33.3,6.1,62.2c0.3,1.8,5.8,2.2,5.7-1.1c0-5.7,3.1-26.3,3.4-38.6c0.2-8.3,0-34.2,0-34.2L96.1,167.1z"/><path fill="#FFFFFF" d="M94.6,260.7c-0.2,1.6-0.3,2.6-0.4,3.1c-0.1,0.4,0.1,0.8,0.3,1c0.8,0.7,2.6,1.8,4.5,0.9c0,0,1.2-0.5,0.6-2c-0.5-1.5-0.8-3.4-0.8-3.4L94.6,260.7z"/><path fill="#F5D5D5" d="M116.9,161.2c5,3.8,7,5.3,7,5.3l4.9-2.7l-7-10l-2.3-1.9l-3.2,4.5L116.9,161.2z"/><path fill="url(#SVGID_11_)" d="M84.1,174c-4,9.8-1,22.3,1.8,34.6c4.9,21.1,6.9,38.7,8,53.2c0.1,1.8,5.8,3.3,6.2,0c0.5-4,2.4-29.7,3.2-38.5c1.3-14.5-0.7-36.6-0.7-36.6L84.1,174z"/><path fill="#2C35B0" d="M112.4,143.6l0.3,19.3c0,0,3-2.4,4.3-1.7c0,0-0.6-6.7,4.9-7.3C121.8,153.9,114.1,144.6,112.4,143.6z"/><path fill="#2C35B0" d="M81.1,180.6c1.5,8.6,12.1,13.4,25.6,5.9c13.5-7.5,7.1-10.4,6.9-17.6c-0.2-7.2-4.4-11-1.4-21.6c3.1-10.6-12.7-3.6-20.5,3C83.9,156.8,79.7,172.7,81.1,180.6z"/><path fill="url(#SVGID_12_)" d="M89.2,150.5c-6.3,8-7.9,33-6.5,40.9c1.2,6.8,7.3,6.6,16.8,4.4c-0.2-1.3-1.1-9.3-1.1-12.1c-0.3-11.7,2.6-21.7,0.9-35.9c0,0-6.3-1.1-0.2-3.9c6.1-2.8,8.8-2.8,9.6-0.5c0.8,2.3,0.3,20.7,0.7,33.2c0.2,4.6,2,10.9,2.1,13.1c8.2-5.8,3.4-14.4,3.2-20.8c-0.2-7.2-1.8-10.7-1.6-21.7C113.3,135.9,95.5,142.4,89.2,150.5z"/><path fill="#F5D5D5" d="M102,136.2c-2.7,5.7-1.8,6.7-4.1,8.8c-0.9,0.8,2.2,2.4,4.4,2.5l4.2,5.1l-0.2-7.1c0,0,1.4-0.6,1.1-1.8c-0.3-1.2-1.3-2.1-0.3-3.7C107.4,139.3,102,136.2,102,136.2z"/><path fill="#F5D5D5" d="M100.7,136.2c1.2,3.9,4.8,4.7,7.6,4.6c2.8-0.1,6.5-10,4.7-13.5c-1.9-3.5-8.6-5.5-11.1-1.9C99.4,129,100.7,136.2,100.7,136.2z"/><g><path fill="#FFFFFF" d="M115.3,169.3c0,0-0.1,0-0.1,0l-4.5-1.2c-0.3-0.1-0.4-0.3-0.3-0.6c0.1-0.3,0.3-0.4,0.6-0.3l4.5,1.2c0.3,0.1,0.4,0.3,0.3,0.6C115.7,169.2,115.6,169.3,115.3,169.3z"/></g><path fill="#2C35B0" d="M91.7,150.3c-4.8,1.3-5.5,9.4-6.9,16.2c-1.4,6.8,5.3,5.1,7.7,2.6C94.8,166.7,98.3,148.5,91.7,150.3z"/><path fill="#F5D5D5" d="M115.7,167.8c-1.7-0.4-1.9,0.5-3.4,2.6c0,0,0,0,0,0c-3.4,1.3-11.4,4.4-14.9,5.8c0,0-2.4-19-3.4-21.9l-7.1,12.2c2.5,10.8,5.2,15.2,7.4,17.3c1.7,1.7,15.3-6.6,20.6-9.9l0,0c0,0,1.7,0.3,4.5-1.9C122.1,169.7,117.6,168.3,115.7,167.8z"/><path fill="#FFAD6F" d="M100.1,136.5c1.2,2.5-1.9,1.8-2.1,3.5c-0.2,1.7,4,1,5.1-1.3c0.6-1.3,1.5-1.1,0.1-2.4c-1.4-1.3,0.6-2.6,1.8-1.8c1.2,0.8,2-0.6,2.2-1.6c0.2-1,3.7,0.2,6,0c2.3-0.2,5.1-1.8,3.9-4.3c-1.2-2.6-2-0.8-2.7-1.7c-0.7-0.9,1.6-1.5-0.1-2.6c-1.7-1.1-2.8,1-3.6,0c-0.7-1.1-2.8-0.7-3.9-1.7c-1.1-0.9-2.3,1.1-2.9,0.8c-0.6-0.3-3.1,0.4-3.5,4.1c-0.4,3.8-0.7,2.3-1.2,4.2C98.7,133.5,100.1,136.5,100.1,136.5z"/><polygon fill="#FF5A6F" points="116.4,170.5 129.9,159.4 122.1,173.5 108.7,185.4"/><path fill="#F5D5D5" d="M128,162.8c3.5,4.7,1.9,6.9,0.9,8.3c-1,1.3-11,7.5-12.4,10c-1.4,2.5-4.8,1.9-6,1.2c-1.2-0.6-1.9-2.9-1.1-4.6c0.9-2.1,4.2-0.1,4.2-0.1l11.8-9.9L128,162.8z"/><path fill="#2C35B0" d="M95.7,164.5c-2.2-1.8-7.9,1.1-8.4,4.3l-1.4-1.7l3.8-10.9l3.7-3.3l1.9,1.4L95.7,164.5z"/></g><g><path fill="url(#shadow_gr)" d="M167.2,274.3c-9.8,0-17.7,4.1-17.7,9.2s7.9,9.2,17.7,9.2h90.1v-18.5H167.2z"/><path fill="#F5D5D5" d="M193.5,137.2c2.1-2.8,3.5-3.2,4.6-4.4c1.1-1.2,0.4-1.5-0.4-1c-0.8,0.5-1.3,0.9-1.2,0.5c0-0.2-0.1-1,2.3-2.3c2.4-1.3,3.2-3.2,1.8-2.6c-1.4,0.5-2.1,1.7-3.6,1.5c-1.5-0.2-2.4-1.2-3.5,0.8c-1.1,2-2.1,5.2-2.1,5.2L193.5,137.2z"/><path fill="#F5D5D5" d="M207.3,201.4c2.4,2,2.9,1.8,4.6,2.9c1.7,1.1,3.9,1,3.8,1.6c-0.1,0.7-2.8-0.1-3.4-0.1c-0.4,0-0.8,1.9-2.1,2.1c-2.2,0.3-2.3-2.1-3.5-3.1C205.4,203.8,207.3,201.4,207.3,201.4z"/><path fill="#ED6F3F" d="M175.3,164.7c-4.2-3.4-15.5,0.3-18.4,7.7c0,0,4.1-9.2,7.1-13.7c3.1-4.5,15.9-11,16.8-12.2c0.8-1.2,7-9.9,10-12.6c2-1.8,4.4,2.3,3.7,3.4c-3.8,6.4-9.3,14.9-9.3,14.9L175.3,164.7z"/><path fill="#8992F5" d="M179.2,285.8c1,1.7-4.7,4.2-7.3,4.8c-1.6,0.4-3.6,2.5-5.2,2.1c-3.9-1.1-2.2-4.1-1.6-5.4c1-2,2.7-1.9,2.7-1.9s4.2,0.2,5.5-0.1C174.6,285,177.9,283.5,179.2,285.8z"/><path fill="#8992F5" d="M164.5,276.6c1,1.7-4.7,4.2-7.3,4.8c-1.6,0.4-3.6,2.5-5.2,2.1c-3.9-1.1-2.2-4.1-1.6-5.4c1-2,2.8-1.9,2.8-1.9s4.2,0.2,5.5-0.1C159.9,275.8,163.2,274.3,164.5,276.6z"/><path fill="url(#SVGID_16_)" d="M151.6,202.9c-3.2,16.9,1.6,38.7,1.6,43.1c0.1,7.2-0.9,23.6-1.6,30.4c-0.1,1.1,3.8,2.4,4.2,1.4c4-11.2,9.8-30.9,9.5-34c-0.6-5.3,2.9-41.6,2.9-41.6l-5.3-7.5C162.8,194.7,154.1,189.5,151.6,202.9z"/><path fill="url(#SVGID_17_)" d="M178.3,197.9c4.6,15.6-1.6,38.2-2.7,55.6c-0.3,4.2-2.4,24-4.7,32.6c-0.4,1.3-5.9,3.3-5.7-0.1c0.4-7.5-0.6-25.6-1-31.4c-1.7-19.5-7.1-51.6-7.1-51.6L178.3,197.9z"/><path fill="url(#SVGID_18_)" d="M151,198.6c7.2-10.7,1.4-13.5,6.2-28.2c4.3-13.2,10.2-11.8,17-9.6c1.3,0.6,12.6,5.2,9.4,12.7c-2.1,4.8-1.7,10.3-0.7,18.6c1.6,13.7,0.2,21.5-3,23.1C169.7,220.3,144.1,208.9,151,198.6z"/><path fill="#ED6F3F" d="M179.3,164.7c-4.7-1.1-0.3,37.1,2.8,19.6c0,0,2.6,7.3,7.5,11.4c4.8,4,9.3,5.3,16,8.8c1.8,1,3.1-2.3,2.1-3.2c-3.8-3.4-7.7-7.6-13.1-12.2C192.9,187.6,183.7,165.7,179.3,164.7z"/><path fill="#F5D5D5" d="M169.5,143.7c8.8,3.8,9.8,6.4,9.5,8.3c-0.3,1.9-2.3,2-2.9,4.1c-0.7,2.1-0.6,3.1,0.2,5.2c0.5,1.5-2.7,1.3-4.7-0.1c-2-1.4-2.7-1.6-1.9-5c0.9-3.4-2.6-4-3-8C166.4,144.1,169.5,143.7,169.5,143.7z"/><path fill="#080078" d="M170.4,143.2c2.2,0.6,0.7,7.1,1.1,7.3c0,0-2,0-1,1.4c1,1.4,2,0.4,2,0.4s0.2,1.8-1,2.5c-1.3,0.7-1.6,0.5-1.6,0.5s-3.2,0.3-5.5-2.2C161.7,150.2,165.6,141.9,170.4,143.2z"/><path fill="#080078" d="M164.6,150c0.9,0.3,0.6,2,0.3,2.3c-0.4,0.3-3.3,1.8-3.3,4.9c0,3.2,2.3,2.8,2.5,7.9c0.2,5.1-13.4,8.7-11.9,12.9c1.5,4.2,6.8,1.4,7.6,5.5c0.3,1.8-0.3,4-8.2,2.3c-7.8-1.7-8.6-9.1-3.2-16.1c5.4-7,2.5-10.8,3.8-14.3C153.5,151.9,160.1,148.8,164.6,150z"/></g></g>
</svg>
