<?xml version="1.0"?>
<svg xmlns="http://www.w3.org/2000/svg" xmlns:xlink="http://www.w3.org/1999/xlink" xmlns:svgjs="http://svgjs.com/svgjs" version="1.1" width="512" height="512" x="0" y="0" viewBox="0 0 74 74" style="enable-background:new 0 0 512 512" xml:space="preserve" class=""><g><path xmlns="http://www.w3.org/2000/svg" d="m49.34 72.01h-3.73a1 1 0 0 1 0-2h3.73a1 1 0 0 1 0 2z" fill="#9c6dff" data-original="#000000" style="" class=""/><path xmlns="http://www.w3.org/2000/svg" d="m69 72.01h-10.85a1 1 0 1 1 0-2h10.85a1 1 0 0 0 1-1v-64a1 1 0 0 0 -1-1h-64a1 1 0 0 0 -1 1v64a1 1 0 0 0 1 1h19.34a1 1 0 1 1 0 2h-19.34a3 3 0 0 1 -3-3v-64a3 3 0 0 1 3-3h64a3 3 0 0 1 3 3v64a3 3 0 0 1 -3 3z" fill="#9c6dff" data-original="#000000" style="" class=""/><path xmlns="http://www.w3.org/2000/svg" d="m36.8 72.01h-3.66a1 1 0 0 1 0-2h3.66a1 1 0 0 1 0 2z" fill="#9c6dff" data-original="#000000" style="" class=""/><path xmlns="http://www.w3.org/2000/svg" d="m71 19.008h-68a1 1 0 0 1 0-2h68a1 1 0 0 1 0 2z" fill="#9c6dff" data-original="#000000" style="" class=""/><path xmlns="http://www.w3.org/2000/svg" d="m62.5 13.825a3.318 3.318 0 1 1 3.317-3.317 3.321 3.321 0 0 1 -3.317 3.317zm0-4.635a1.318 1.318 0 1 0 1.317 1.318 1.319 1.319 0 0 0 -1.317-1.318z" fill="#9c6dff" data-original="#000000" style="" class=""/><path xmlns="http://www.w3.org/2000/svg" d="m52.833 13.825a3.318 3.318 0 1 1 3.317-3.317 3.321 3.321 0 0 1 -3.317 3.317zm0-4.635a1.318 1.318 0 1 0 1.317 1.318 1.318 1.318 0 0 0 -1.317-1.318z" fill="#9c6dff" data-original="#000000" style="" class=""/><path xmlns="http://www.w3.org/2000/svg" d="m43.172 13.825a3.318 3.318 0 1 1 3.317-3.317 3.322 3.322 0 0 1 -3.317 3.317zm0-4.635a1.318 1.318 0 1 0 1.317 1.318 1.319 1.319 0 0 0 -1.317-1.318z" fill="#9c6dff" data-original="#000000" style="" class=""/><path xmlns="http://www.w3.org/2000/svg" d="m33.521 11.508h-24.333a1 1 0 1 1 0-2h24.333a1 1 0 0 1 0 2z" fill="#9c6dff" data-original="#000000" style="" class=""/><path xmlns="http://www.w3.org/2000/svg" d="m37.25 39.947h-28a1 1 0 0 1 -1-1v-11.447a1 1 0 0 1 1-1h28a1 1 0 0 1 1 1v11.447a1 1 0 0 1 -1 1zm-27-2h26v-9.447h-26z" fill="#9c6dff" data-original="#000000" style="" class=""/><path xmlns="http://www.w3.org/2000/svg" d="m64.75 39.947h-19.5a1 1 0 0 1 -1-1v-11.447a1 1 0 0 1 1-1h19.5a1 1 0 0 1 1 1v11.447a1 1 0 0 1 -1 1zm-18.5-2h17.5v-9.447h-17.5z" fill="#9c6dff" data-original="#000000" style="" class=""/><path xmlns="http://www.w3.org/2000/svg" d="m37.25 47.173h-28a1 1 0 0 1 0-2h28a1 1 0 0 1 0 2z" fill="#9c6dff" data-original="#000000" style="" class=""/><path xmlns="http://www.w3.org/2000/svg" d="m63.5 47.173h-16.5a1 1 0 0 1 0-2h16.5a1 1 0 0 1 0 2z" fill="#9c6dff" data-original="#000000" style="" class=""/><path xmlns="http://www.w3.org/2000/svg" d="m37.25 54.845h-28a1 1 0 0 1 0-2h28a1 1 0 0 1 0 2z" fill="#9c6dff" data-original="#000000" style="" class=""/><path xmlns="http://www.w3.org/2000/svg" d="m63.5 54.845h-16.5a1 1 0 0 1 0-2h16.5a1 1 0 0 1 0 2z" fill="#9c6dff" data-original="#000000" style="" class=""/><path xmlns="http://www.w3.org/2000/svg" d="m37.25 62.516h-28a1 1 0 1 1 0-2h28a1 1 0 0 1 0 2z" fill="#9c6dff" data-original="#000000" style="" class=""/><path xmlns="http://www.w3.org/2000/svg" d="m63.5 62.516h-16.5a1 1 0 0 1 0-2h16.5a1 1 0 0 1 0 2z" fill="#9c6dff" data-original="#000000" style="" class=""/></g></svg>
