<svg width="229" height="200" xmlns="http://www.w3.org/2000/svg" clip-rule="evenodd">

 <g>
  <title>background</title>
  <rect fill="none" id="canvas_background" height="202" width="231" y="-1" x="-1"/>
 </g>
 <g>
  <title>Layer 1</title>
  <path id="svg_1" fill-rule="nonzero" fill="#21a366" d="m141.5,5.75l-73.334,0c-5.028,0 -9.167,4.139 -9.167,9.166l0,38.959l82.501,48.125l41.25,17.405l41.25,-17.405l0,-48.125l-82.5,-48.125z"/>
  <path id="svg_2" fill="#107c41" d="m58.999,53.875l82.501,0l0,48.125l-82.501,0l0,-48.125z"/>
  <path id="svg_3" fill-rule="nonzero" fill="#33c481" d="m214.834,5.75l-73.334,0l0,48.125l82.5,0l0,-38.959c0,-5.027 -4.139,-9.166 -9.166,-9.166z"/>
  <path id="svg_4" fill-rule="nonzero" fill="#185c37" d="m141.5,102l-82.501,0l0,87.084c0,5.027 4.139,9.166 9.167,9.166l146.668,0c5.027,0 9.166,-4.139 9.166,-9.166l0,-38.959l-82.5,-48.125z"/>
  <path id="svg_5" fill="#107c41" d="m141.5,102l82.5,0l0,48.125l-82.5,0l0,-48.125z"/>
  <g id="svg_6" fill-rule="nonzero">
   <path id="svg_33" fill-opacity="0.09412" d="m118.584,40.125l-59.584,0l0,130.625l59.584,0c5.022,-0.014 9.152,-4.144 9.166,-9.166l0,-112.293c-0.014,-5.022 -4.144,-9.152 -9.166,-9.166z"/>
   <g id="svg_37" fill-opacity="0.2">
    <path id="svg_34" d="m111.709,47l-52.709,0l0,130.625l52.709,0c5.022,-0.014 9.152,-4.144 9.166,-9.166l0,-112.293c-0.014,-5.022 -4.144,-9.152 -9.166,-9.166z"/>
    <path id="svg_35" d="m111.709,47l-52.709,0l0,116.875l52.709,0c5.022,-0.014 9.152,-4.144 9.166,-9.166l0,-98.543c-0.014,-5.022 -4.144,-9.152 -9.166,-9.166z"/>
    <path id="svg_36" d="m104.834,47l-45.834,0l0,116.875l45.834,0c5.022,-0.014 9.152,-4.144 9.166,-9.166l0,-98.543c-0.014,-5.022 -4.144,-9.152 -9.166,-9.166z"/>
   </g>
   <path id="svg_38" fill="#107c41" d="m13.166,47l91.668,0c5.027,0 9.166,4.139 9.166,9.166l0,91.668c0,5.027 -4.138,9.166 -9.166,9.166l-91.668,0c-5.027,0 -9.166,-4.139 -9.166,-9.166l0,-91.668c0,-5.027 4.139,-9.166 9.166,-9.166z"/>
   <path id="svg_39" fill="#fff" d="m28.292,136.375l22.246,-34.471l-20.376,-34.279l16.397,0l11.123,21.909c1.022,2.079 1.725,3.63 2.109,4.652l0.144,0c0.734,-1.661 1.502,-3.276 2.302,-4.843l11.889,-21.718l15.055,0l-20.904,34.087l21.431,34.663l-16.014,0l-12.849,-24.067c-0.605,-1.023 -1.118,-2.099 -1.534,-3.212l-0.191,0c-0.376,1.091 -0.874,2.136 -1.487,3.115l-13.232,24.164l-16.109,0z"/>
  </g>
 </g>
</svg>