<svg height="480pt" viewBox="0 0 480 480" width="480pt" xmlns="http://www.w3.org/2000/svg"><path d="m392 200v-80h-47.519531c-.71875-1.921875-1.441407-3.761719-2.242188-5.679688l33.523438-33.519531-.800781-.800781-31.519532-31.441406-24.242187-24.320313-33.519531 33.523438c-1.917969-.800781-3.757813-1.523438-5.679688-2.242188v-47.519531h-80v47.519531c-1.921875.71875-3.761719 1.441407-5.679688 2.242188l-33.519531-33.523438-.800781.800781-23.441406 23.519532-32.320313 32.242187 33.523438 33.519531c-.800781 1.917969-1.523438 3.757813-2.242188 5.679688h-47.519531v80h47.519531c.71875 1.921875 1.441407 3.761719 2.242188 5.679688l-33.523438 33.519531 55.761719 55.761719v49.039062h160v-49.039062l55.761719-55.761719-25.839844-25.839844-7.683594-7.679687c.800781-1.917969 1.523438-3.757813 2.242188-5.679688zm-96-40c0 30.929688-25.070312 56-56 56s-56-25.070312-56-56 25.070312-56 56-56c30.914062.035156 55.964844 25.085938 56 56zm0 0" fill="#9bc9ff"/><g fill="#57a4ff"><path d="m24 0h-16c-4.417969 0-8 3.582031-8 8s3.582031 8 8 8h16c4.417969 0 8-3.582031 8-8s-3.582031-8-8-8zm0 0"/><path d="m24 144h-16c-4.417969 0-8 3.582031-8 8s3.582031 8 8 8h16c4.417969 0 8-3.582031 8-8s-3.582031-8-8-8zm0 0"/><path d="m24 328h-16c-4.417969 0-8 3.582031-8 8s3.582031 8 8 8h16c4.417969 0 8-3.582031 8-8s-3.582031-8-8-8zm0 0"/><path d="m456 16h16c4.417969 0 8-3.582031 8-8s-3.582031-8-8-8h-16c-4.417969 0-8 3.582031-8 8s3.582031 8 8 8zm0 0"/><path d="m400 200v-40h32c4.417969 0 8-3.582031 8-8s-3.582031-8-8-8h-32v-24c0-4.417969-3.582031-8-8-8h-36.160156l25.601562-25.519531c3.09375-3.15625 3.09375-8.207031 0-11.359375l-26.640625-26.640625 32.480469-32.480469h44.71875c4.417969 0 8-3.582031 8-8s-3.582031-8-8-8h-48c-2.121094.015625-4.15625.847656-5.679688 2.320312l-34.800781 34.878907-18.640625-18.640625c-3.207031-2.957032-8.152344-2.957032-11.359375 0l-25.519531 25.601562v-36.160156c0-4.417969-3.582031-8-8-8h-80c-4.417969 0-8 3.582031-8 8v36.160156l-25.519531-25.601562c-3.15625-3.09375-8.207031-3.09375-11.359375 0l-18.640625 18.640625-34.800781-34.878907c-1.523438-1.472656-3.558594-2.304687-5.679688-2.320312h-48c-4.417969 0-8 3.582031-8 8s3.582031 8 8 8h44.71875l32.480469 32.480469-26.640625 26.640625c-3.09375 3.152344-3.09375 8.203125 0 11.359375l25.601562 25.519531h-36.160156c-4.417969 0-8 3.582031-8 8v24h-32c-4.417969 0-8 3.582031-8 8s3.582031 8 8 8h32v40c0 4.417969 3.582031 8 8 8h36.160156l-25.601562 25.519531c-3.09375 3.15625-3.09375 8.207031 0 11.359375l22.722656 22.640625-60.5625 60.480469h-12.71875c-4.417969 0-8 3.582031-8 8s3.582031 8 8 8h16c2.128906.019531 4.175781-.816406 5.679688-2.320312l62.878906-62.878907 19.441406 19.4375v45.761719c0 4.417969 3.582031 8 8 8h24v120c0 4.417969 3.582031 8 8 8h96c4.417969 0 8-3.582031 8-8v-120h24c4.417969 0 8-3.582031 8-8v-45.761719l19.519531-19.4375 62.800781 62.878907c1.523438 1.472656 3.558594 2.304687 5.679688 2.320312h16c4.417969 0 8-3.582031 8-8s-3.582031-8-8-8h-12.71875l-60.480469-60.480469 22.640625-22.640625c3.117188-3.144531 3.117188-8.214844 0-11.359375l-25.601562-25.519531h36.160156c4.417969 0 8-3.582031 8-8zm-72 75.679688v-43.679688c-.039062-13.238281-10.761719-23.960938-24-24-4.417969 0-8 3.582031-8 8s3.582031 8 8 8 8 3.582031 8 8v104h-16v-72c0-4.417969-3.582031-8-8-8s-8 3.582031-8 8v72h-80v-72c0-4.417969-3.582031-8-8-8s-8 3.582031-8 8v72h-16v-104c0-4.417969 3.582031-8 8-8s8-3.582031 8-8-3.582031-8-8-8c-13.238281.039062-23.960938 10.761719-24 24v43.679688l-36.480469-36.480469 27.921875-27.839844c2.273438-2.332031 2.933594-5.792969 1.679688-8.800781-.722656-1.757813-1.441406-3.519532-2.082032-5.359375-1.183593-3.125-4.175781-5.195313-7.519531-5.199219h-39.519531v-64h39.519531c3.34375-.003906 6.335938-2.074219 7.519531-5.199219.640626-1.839843 1.359376-3.601562 2.082032-5.359375 1.253906-3.007812.59375-6.46875-1.679688-8.800781l-27.921875-27.839844 45.28125-45.28125 27.839844 27.921875c2.332031 2.273438 5.792969 2.933594 8.800781 1.679688 1.757813-.722656 3.519532-1.441406 5.359375-2.082032 3.125-1.183593 5.195313-4.175781 5.199219-7.519531v-39.519531h64v39.519531c.003906 3.34375 2.074219 6.335938 5.199219 7.519531 1.839843.640626 3.601562 1.359376 5.359375 2.082032 3.007812 1.253906 6.46875.59375 8.800781-1.679688l27.839844-27.921875 45.28125 45.28125-27.921875 27.839844c-2.273438 2.332031-2.933594 5.792969-1.679688 8.800781.722656 1.757813 1.441406 3.519532 2.082032 5.359375 1.183593 3.125 4.175781 5.195313 7.519531 5.199219h39.519531v64h-39.519531c-3.34375.003906-6.335938 2.074219-7.519531 5.199219-.640626 1.839843-1.359376 3.601562-2.082032 5.359375-1.253906 3.007812-.59375 6.46875 1.679688 8.800781l27.921875 27.839844zm-48 188.320312h-32v-88c0-4.417969-3.582031-8-8-8s-8 3.582031-8 8v88h-32v-112h80zm0 0"/><path d="m472 144h-16c-4.417969 0-8 3.582031-8 8s3.582031 8 8 8h16c4.417969 0 8-3.582031 8-8s-3.582031-8-8-8zm0 0"/><path d="m472 328h-16c-4.417969 0-8 3.582031-8 8s3.582031 8 8 8h16c4.417969 0 8-3.582031 8-8s-3.582031-8-8-8zm0 0"/><path d="m240 88c-39.765625 0-72 32.234375-72 72s32.234375 72 72 72 72-32.234375 72-72c-.0625-39.738281-32.261719-71.9375-72-72zm0 128c-30.929688 0-56-25.070312-56-56s25.070312-56 56-56 56 25.070312 56 56c-.035156 30.914062-25.085938 55.964844-56 56zm0 0"/></g></svg>