<?xml version="1.0" encoding="iso-8859-1"?>
<!-- Generator: Adobe Illustrator 19.0.0, SVG Export Plug-In . SVG Version: 6.00 Build 0)  -->
<svg version="1.1" id="Capa_1" xmlns="http://www.w3.org/2000/svg" xmlns:xlink="http://www.w3.org/1999/xlink" x="0px" y="0px"
	 viewBox="0 0 512 512" style="enable-background:new 0 0 512 512;" xml:space="preserve">
<path style="fill:#303C42;" d="M256,106.667C124.406,106.667,0,163.688,0,224c0,114.844,41.885,181.333,256,181.333
	S512,338.844,512,224C512,163.688,387.594,106.667,256,106.667z"/>
<path style="fill:#D7D8D6;" d="M256,128c136.125,0,234.667,57.344,234.667,96c0,36.063-94.292,74.667-234.667,74.667
	S21.333,260.063,21.333,224C21.333,185.344,119.875,128,256,128z"/>
<path style="opacity:0.1;enable-background:new    ;" d="M409.406,155.167c24.637,15.781,38.594,32.961,38.594,47.5
	c0,36.063-94.292,74.667-234.667,74.667c-71.897,0-131.576-10.158-172.818-24.884C74.78,277.809,152.863,298.667,256,298.667
	c140.375,0,234.667-38.604,234.667-74.667C490.667,202.466,460.026,175.155,409.406,155.167z"/>
<path style="fill:#FAFAFA;" d="M256,384C88.303,384,36.297,343.23,24.426,267.299C67.659,302.003,162.168,320,256,320
	s188.341-17.997,231.574-52.701C475.703,343.23,423.697,384,256,384z"/>
<path style="opacity:0.1;enable-background:new    ;" d="M449.268,288.805c-25.464,47.837-85.618,73.229-217.694,73.229
	c-91.22,0-148.025-12.156-182.943-35.38C78.754,364.223,139.345,384,256,384c167.697,0,219.703-40.77,231.574-116.701
	C477.461,275.418,464.328,282.531,449.268,288.805z"/>
<g>
	<circle style="fill:#FAFAFA;" cx="192" cy="160" r="10.667"/>
	<circle style="fill:#FAFAFA;" cx="234.667" cy="160" r="10.667"/>
	<circle style="fill:#FAFAFA;" cx="277.333" cy="160" r="10.667"/>
	<circle style="fill:#FAFAFA;" cx="320" cy="160" r="10.667"/>
</g>
<path style="fill:#303C42;" d="M266.667,341.333h-21.333c-5.896,0-10.667,4.771-10.667,10.667c0,5.896,4.771,10.667,10.667,10.667
	h21.333c5.896,0,10.667-4.771,10.667-10.667C277.333,346.104,272.563,341.333,266.667,341.333z"/>
<linearGradient id="SVGID_1_" gradientUnits="userSpaceOnUse" x1="-45.3919" y1="639.2835" x2="-24.4487" y2="629.5174" gradientTransform="matrix(21.3333 0 0 -21.3333 996.3334 13791.667)">
	<stop  offset="0" style="stop-color:#FFFFFF;stop-opacity:0.2"/>
	<stop  offset="1" style="stop-color:#FFFFFF;stop-opacity:0"/>
</linearGradient>
<path style="fill:url(#SVGID_1_);" d="M256,106.667C124.406,106.667,0,163.688,0,224c0,114.844,41.885,181.333,256,181.333
	S512,338.844,512,224C512,163.688,387.594,106.667,256,106.667z"/>
<g>
</g>
<g>
</g>
<g>
</g>
<g>
</g>
<g>
</g>
<g>
</g>
<g>
</g>
<g>
</g>
<g>
</g>
<g>
</g>
<g>
</g>
<g>
</g>
<g>
</g>
<g>
</g>
<g>
</g>
</svg>
