<?xml version="1.0" encoding="UTF-8"?>
<!DOCTYPE svg PUBLIC "-//W3C//DTD SVG 1.1//EN" "http://www.w3.org/Graphics/SVG/1.1/DTD/svg11.dtd">
<!-- Creator: CorelDRAW 2020 (64-Bit Evaluation Version) -->
<svg xmlns="http://www.w3.org/2000/svg" xml:space="preserve" width="270.933mm" height="203.2mm" version="1.1" style="shape-rendering:geometricPrecision; text-rendering:geometricPrecision; image-rendering:optimizeQuality; fill-rule:evenodd; clip-rule:evenodd"
viewBox="0 0 27093.32 20320"
 xmlns:xlink="http://www.w3.org/1999/xlink"
 xmlns:xodm="http://www.corel.com/coreldraw/odm/2003">
 <defs>
  <style type="text/css">
   <![CDATA[
    .fil2 {fill:#34A852;fill-rule:nonzero}
    .fil0 {fill:#3C8BD9;fill-rule:nonzero}
    .fil3 {fill:#E1C025;fill-rule:nonzero}
    .fil1 {fill:#FABC04;fill-rule:nonzero}
   ]]>
  </style>
 </defs>
 <g id="Layer_x0020_1">
  <metadata id="CorelCorpID_0Corel-Layer"/>
  <g id="_3023349340304">
   <g>
    <path class="fil0" d="M10953.49 2690.36c155.91,-409.26 370.28,-786.04 688.59,-1091.36 1273.25,-1240.77 3378.01,-928.95 4241.99,630.13 649.62,1182.3 1338.21,2338.62 2007.31,3507.93 1117.34,1942.35 2247.67,3884.71 3352.02,5833.55 928.95,1630.54 -77.95,3689.82 -1922.86,3969.16 -1130.33,168.9 -2189.21,-350.79 -2773.86,-1364.19 -980.91,-1708.49 -1968.33,-3416.97 -2949.25,-5118.97 -19.49,-38.98 -45.47,-71.46 -71.46,-103.94 -103.94,-84.45 -149.41,-207.88 -214.37,-318.31 -435.24,-766.55 -883.48,-1526.6 -1318.72,-2286.65 -279.34,-493.71 -571.66,-980.92 -851,-1474.63 -253.35,-441.74 -370.28,-922.46 -357.29,-1429.16 19.48,-259.85 51.96,-519.7 168.9,-753.56z"/>
    <path class="fil1" d="M10953.49 2690.36c-58.47,233.86 -110.43,467.72 -123.43,714.58 -19.49,545.68 116.93,1052.38 389.77,1526.6 714.58,1227.77 1429.15,2462.05 2137.24,3696.32 64.96,110.43 116.93,220.87 181.89,324.81 -389.77,675.6 -779.54,1344.71 -1175.81,2020.31 -545.68,941.93 -1091.36,1890.37 -1643.53,2832.32 -25.98,0 -32.48,-12.99 -38.98,-32.48 -6.5,-51.97 12.99,-97.44 25.98,-149.41 266.34,-974.42 45.47,-1838.41 -623.63,-2578.97 -409.26,-448.24 -928.95,-701.59 -1526.6,-786.04 -779.54,-110.43 -1468.13,90.95 -2085.27,578.16 -110.43,84.45 -181.89,207.88 -311.82,272.84 -25.98,0 -38.98,-12.99 -45.47,-32.48 311.82,-539.18 617.14,-1078.36 928.95,-1617.54 1286.25,-2234.69 2572.5,-4469.38 3865.23,-6697.56 12.99,-25.98 32.48,-45.47 45.48,-71.46z"/>
    <path class="fil2" d="M6139.83 11096.4c123.43,-110.43 240.36,-227.37 370.28,-331.3 1578.57,-1247.26 3949.67,-344.3 4293.96,1630.53 84.45,474.22 38.98,928.95 -103.94,1383.68 -6.5,38.98 -12.99,71.46 -25.98,110.43 -58.47,103.94 -110.43,214.37 -175.4,318.31 -578.16,954.94 -1429.16,1429.16 -2546.5,1357.7 -1279.74,-90.95 -2286.64,-1052.38 -2462.04,-2325.63 -84.45,-617.14 38.98,-1195.29 357.29,-1727.98 64.96,-116.93 142.92,-220.86 214.37,-337.79 32.48,-25.98 19.49,-77.95 77.96,-77.95z"/>
    <path class="fil1" d="M6139.83 11096.4c-25.98,25.98 -25.98,71.46 -71.46,77.95 -6.5,-45.47 19.49,-71.46 45.47,-103.94l25.99 25.99z"/>
    <path class="fil3" d="M10674.15 13889.74c-25.98,-45.47 0,-77.95 25.98,-110.43 6.5,6.5 19.49,19.49 25.98,25.98l-51.96 84.45z"/>
   </g>
  </g>
 </g>
</svg>
