<svg xmlns="http://www.w3.org/2000/svg" width="512" height="512" viewBox="0 0 511.997 511.997"  fill="#2d94f3" xmlns:v="https://vecta.io/nano"><path d="M506.76 242.828l-118.4-125.44c-7.277-7.718-19.424-8.07-27.142-.787-7.706 7.277-8.064 19.43-.781 27.142l105.965 112.256-105.965 112.269c-7.283 7.712-6.925 19.859.781 27.142a19.15 19.15 0 0 0 13.178 5.235c5.101 0 10.195-2.022 13.965-6.01l118.4-125.446a19.21 19.21 0 0 0-.001-26.361zM151.566 368.262L45.608 255.999l105.958-112.262c7.277-7.712 6.925-19.866-.787-27.142-7.706-7.277-19.866-6.925-27.142.787l-118.4 125.44a19.21 19.21 0 0 0 0 26.362L123.643 394.63a19.14 19.14 0 0 0 13.965 6.016 19.13 19.13 0 0 0 13.171-5.242 19.2 19.2 0 0 0 .787-27.142zM287.061 52.697c-10.477-1.587-20.282 5.606-21.882 16.083l-56.32 368.64c-1.6 10.483 5.6 20.282 16.083 21.882a19.78 19.78 0 0 0 2.925.218 19.21 19.21 0 0 0 18.957-16.301l56.32-368.64c1.6-10.484-5.6-20.282-16.083-21.882z"/></svg>