<?xml version="1.0" encoding="UTF-8"?>
<!DOCTYPE svg PUBLIC "-//W3C//DTD SVG 1.1//EN" "http://www.w3.org/Graphics/SVG/1.1/DTD/svg11.dtd">
<!-- Creator: CorelDRAW 2020 (64-Bit Evaluation Version) -->
<svg xmlns="http://www.w3.org/2000/svg" xml:space="preserve" width="508mm" height="381mm" version="1.1" style="shape-rendering:geometricPrecision; text-rendering:geometricPrecision; image-rendering:optimizeQuality; fill-rule:evenodd; clip-rule:evenodd"
viewBox="0 0 50800 38100"
 xmlns:xlink="http://www.w3.org/1999/xlink"
 xmlns:xodm="http://www.corel.com/coreldraw/odm/2003">
 <defs>
  <style type="text/css">
   <![CDATA[
    .str0 {stroke:#2B2A29;stroke-width:20;stroke-miterlimit:22.9256}
    .fil1 {fill:white}
    .fil0 {fill:white;fill-rule:nonzero}
   ]]>
  </style>
 </defs>
 <g id="Layer_x0020_1">
  <metadata id="CorelCorpID_0Corel-Layer"/>
  <g id="_2374667669632">
   <g>
    <path class="fil0" d="M18401.85 10311.2l794.14 0c1048.96,0 2002.07,428.63 2692.63,1119.18 690.55,690.56 1119.19,1643.67 1119.19,2692.63l0 5859.93c-722.98,-64.63 -1157.2,-376.27 -1365.41,-575.48l0 -5284.45c0,-672.04 -275.43,-1283.51 -719.16,-1727.25 -443.74,-443.73 -1055.21,-719.16 -1727.25,-719.16l-794.14 0c-672.05,0 -1283.51,275.43 -1727.25,719.16 -443.73,443.74 -719.16,1055.21 -719.16,1727.25l0 6434.43c0,672.06 275.43,1283.51 719.16,1727.25 443.74,443.73 1055.2,719.16 1727.25,719.16l794.14 0c672.04,0 1283.51,-275.43 1727.25,-719.16 247.09,-247.1 441.96,-546.21 566.18,-878.83 608.56,272.83 1099.68,310.19 1338.1,308.27 -187.65,585.61 -513.55,1110.6 -938.9,1535.95 -690.56,690.54 -1643.67,1119.18 -2692.63,1119.18l-794.14 0c-1048.96,0 -2002.07,-428.64 -2692.63,-1119.18 -690.55,-690.56 -1119.19,-1643.67 -1119.19,-2692.64l0 -6434.43c0,-1048.96 428.64,-2002.07 1119.19,-2692.63 690.56,-690.55 1643.67,-1119.18 2692.63,-1119.18z"/>
    <path class="fil0" d="M27201.27 16521.42l794.14 0c1048.97,0 2002.08,428.64 2692.64,1119.18 337.1,337.11 611.75,736.83 804.62,1179.68 -338.36,554.68 -824.02,822.78 -1118.83,941.75 -107.49,-444.02 -337.17,-842.03 -651.18,-1156.04 -443.74,-443.73 -1055.19,-719.16 -1727.25,-719.16l-794.14 0c-672.04,0 -1283.5,275.43 -1727.24,719.16 -443.74,443.74 -719.17,1055.2 -719.17,1727.25l0 6434.43c0,672.05 275.43,1283.51 719.17,1727.25 443.74,443.73 1055.2,719.16 1727.24,719.16l794.14 0c672.06,0 1283.51,-275.43 1727.25,-719.16 443.74,-443.74 719.17,-1055.2 719.17,-1727.25l0 -5187.84c678.42,-124.23 1132.91,-412.66 1365.4,-596.63l0 5784.47c0,1048.96 -428.64,2002.07 -1119.18,2692.63 -690.56,690.55 -1643.67,1119.18 -2692.64,1119.18l-794.14 0c-1048.95,0 -2002.07,-428.63 -2692.63,-1119.18 -690.54,-690.56 -1119.18,-1643.67 -1119.18,-2692.63l0 -6434.43c0,-1048.96 428.64,-2002.08 1119.18,-2692.64 690.56,-690.54 1643.68,-1119.18 2692.63,-1119.18z"/>
    <path class="fil0" d="M33344.69 16910.07l0 794.14c0,1048.96 -428.63,2002.07 -1119.18,2692.63 -690.56,690.55 -1643.67,1119.19 -2692.63,1119.19l-4580 0c-17.12,-377.43 -28.3,-958.24 34.19,-1365.41l4545.81 0c672.05,0 1283.51,-275.43 1727.25,-719.16 443.73,-443.74 719.16,-1055.2 719.16,-1727.25l0 -794.14c0,-672.04 -275.43,-1283.51 -719.16,-1727.25 -443.74,-443.73 -1055.2,-719.16 -1727.25,-719.16l-6313.89 0c-2.83,-330.7 -21.21,-960.15 -114.33,-1365.41l6428.22 0c1048.96,0 2002.07,428.64 2692.63,1119.19 690.55,690.56 1119.18,1643.67 1119.18,2692.63zm-10238.26 4605.96l-7.98 0c-1048.97,0 -2002.08,-428.64 -2692.64,-1119.19 -690.54,-690.56 -1119.18,-1643.67 -1119.18,-2692.63l0 -794.14c0,-1048.96 428.64,-2002.07 1119.18,-2692.63 272.49,-272.49 585.89,-504.15 929.9,-684.83 38.14,327.03 108.93,1053.59 63.73,1622.47 -9.48,9.18 -18.91,18.41 -28.24,27.74 -443.73,443.74 -719.16,1055.21 -719.16,1727.25l0 794.14c0,672.05 275.43,1283.51 719.16,1727.25 443.74,443.73 1055.19,719.16 1727.25,719.16l45.5 0c-24.19,276.62 -60.45,814.87 -37.52,1365.41z"/>
    <circle class="fil1" cx="18807.45" cy="8853.22" r="2021.36"/>
    <circle class="fil1" cx="34603.19" cy="17352" r="2021.36"/>
    <circle class="fil1" cx="27517.89" cy="31920.61" r="2021.36"/>
   </g>
  </g>
  <path class="fil1 str0" d="M20405.81 20396.84c-690.54,-690.56 -1119.18,-1643.67 -1119.18,-2692.63l0 -794.14c0,-1048.96 428.64,-2002.07 1119.18,-2692.63 272.49,-272.49 585.89,-504.15 929.9,-684.83 38.14,327.03 108.93,1053.59 63.73,1622.47 -9.48,9.18 -18.91,18.41 -28.24,27.74 -443.73,443.74 -719.16,1055.21 -719.16,1727.25l0 794.14c0,672.05 275.43,1283.51 719.16,1727.25 443.74,443.73 1055.19,719.16 1727.25,719.16l45.5 0c-24.19,276.62 -60.45,814.87 -37.52,1365.41l-7.98 0c-1048.97,0 -2002.08,-428.64 -2692.64,-1119.19zm1083.61 1009.02c608.56,272.83 1099.68,310.19 1338.1,308.27 -187.65,585.61 -513.55,1110.6 -938.9,1535.95 -690.56,690.54 -1643.67,1119.18 -2692.63,1119.18l-794.14 0c-1048.96,0 -2002.07,-428.64 -2692.63,-1119.18 -690.55,-690.56 -1119.19,-1643.67 -1119.19,-2692.64l0 -6434.43c0,-1048.96 428.64,-2002.07 1119.19,-2692.63 491.56,-491.56 1116.16,-850.4 1813.67,-1016.39 -449.94,-370.74 -736.8,-932.25 -736.8,-1560.77 0,-1116.37 905,-2021.36 2021.36,-2021.36 1116.36,0 2021.36,904.99 2021.36,2021.36 0,630.31 -288.5,1193.24 -740.66,1563.94 692.19,167.36 1312.01,524.77 1800.47,1013.22 690.55,690.56 1119.19,1643.67 1119.19,2692.63l0 5859.93c-722.98,-64.63 -1157.2,-376.27 -1365.41,-575.48l0 -5284.45c0,-672.04 -275.43,-1283.51 -719.16,-1727.25 -443.74,-443.73 -1055.21,-719.16 -1727.25,-719.16l-794.14 0c-672.05,0 -1283.51,275.43 -1727.25,719.16 -443.73,443.74 -719.16,1055.21 -719.16,1727.25l0 6434.43c0,672.06 275.43,1283.51 719.16,1727.25 443.74,443.73 1055.2,719.16 1727.25,719.16l794.14 0c672.04,0 1283.51,-275.43 1727.25,-719.16 247.09,-247.1 441.96,-546.21 566.18,-878.83zm1900.04 5361.81l0 -6434.43c0,-1048.96 428.64,-2002.08 1119.18,-2692.64 690.56,-690.54 1643.68,-1119.18 2692.63,-1119.18l794.14 0c1048.97,0 2002.08,428.64 2692.64,1119.18 337.1,337.11 611.75,736.83 804.62,1179.68 -338.36,554.68 -824.02,822.78 -1118.83,941.75 -107.49,-444.02 -337.17,-842.03 -651.18,-1156.04 -443.74,-443.73 -1055.19,-719.16 -1727.25,-719.16l-794.14 0c-672.04,0 -1283.5,275.43 -1727.24,719.16 -443.74,443.74 -719.17,1055.2 -719.17,1727.25l0 6434.43c0,672.05 275.43,1283.51 719.17,1727.25 443.74,443.73 1055.2,719.16 1727.24,719.16l794.14 0c672.06,0 1283.51,-275.43 1727.25,-719.16 443.74,-443.74 719.17,-1055.2 719.17,-1727.25l0 -5187.84c678.42,-124.23 1132.91,-412.66 1365.4,-596.63l0 5784.47c0,1048.96 -428.64,2002.07 -1119.18,2692.63 -480.64,480.63 -1088.47,834.38 -1767.29,1005.04 381.3,367.65 618.48,883.76 618.48,1455.27 0,1116.37 -904.99,2021.36 -2021.35,2021.36 -1116.37,0 -2021.36,-904.99 -2021.36,-2021.36 0,-589.21 252.1,-1119.54 654.33,-1489.01 -628.41,-181.14 -1191.29,-520.38 -1642.22,-971.3 -690.54,-690.56 -1119.18,-1643.67 -1119.18,-2692.63zm8589.83 -9063.46l0 -794.14c0,-672.04 -275.43,-1283.51 -719.16,-1727.25 -443.74,-443.73 -1055.2,-719.16 -1727.25,-719.16l-6313.89 0c-2.83,-330.7 -21.21,-960.15 -114.33,-1365.41l6428.22 0c1048.96,0 2002.07,428.64 2692.63,1119.19 458.51,458.51 801.54,1032.78 980.31,1673.99 363,-347.39 855.26,-560.79 1397.37,-560.79 1116.36,0 2021.36,904.99 2021.36,2021.36 0,1116.36 -905,2021.35 -2021.36,2021.35 -552.26,0 -1052.8,-221.47 -1417.63,-580.45 -183.74,613 -518.3,1162.19 -960.05,1603.94 -690.56,690.55 -1643.67,1119.19 -2692.63,1119.19l-4580 0c-17.12,-377.43 -28.3,-958.24 34.19,-1365.41l4545.81 0c672.05,0 1283.51,-275.43 1727.25,-719.16 443.73,-443.74 719.16,-1055.2 719.16,-1727.25z"/>
  <path class="fil1 str0" d="M34603.19 15330.64c1116.36,0 2021.36,904.99 2021.36,2021.36 0,1116.36 -905,2021.35 -2021.36,2021.35 -552.26,0 -1052.8,-221.47 -1417.63,-580.45 -183.74,613 -518.3,1162.19 -960.05,1603.94 -690.56,690.55 -1643.67,1119.19 -2692.63,1119.19l-4580 0c-17.12,-377.43 -28.3,-958.24 34.19,-1365.41l4545.81 0c672.05,0 1283.51,-275.43 1727.25,-719.16 443.73,-443.74 719.16,-1055.2 719.16,-1727.25l0 -794.14c0,-672.04 -275.43,-1283.51 -719.16,-1727.25 -443.74,-443.73 -1055.2,-719.16 -1727.25,-719.16l-6313.89 0c-2.83,-330.7 -21.21,-960.15 -114.33,-1365.41l6428.22 0c1048.96,0 2002.07,428.64 2692.63,1119.19 458.51,458.51 801.54,1032.78 980.31,1673.99 363,-347.39 855.26,-560.79 1397.37,-560.79zm-3915.14 2309.96c337.1,337.11 611.75,736.83 804.62,1179.68 -338.36,554.68 -824.02,822.78 -1118.83,941.75 -107.49,-444.02 -337.17,-842.03 -651.18,-1156.04 -443.74,-443.73 -1055.19,-719.16 -1727.25,-719.16l-794.14 0c-672.04,0 -1283.5,275.43 -1727.24,719.16 -443.74,443.74 -719.17,1055.2 -719.17,1727.25l0 6434.43c0,672.05 275.43,1283.51 719.17,1727.25 443.74,443.73 1055.2,719.16 1727.24,719.16l794.14 0c672.06,0 1283.51,-275.43 1727.25,-719.16 443.74,-443.74 719.17,-1055.2 719.17,-1727.25l0 -5187.84c678.42,-124.23 1132.91,-412.66 1365.4,-596.63l0 5784.47c0,1048.96 -428.64,2002.07 -1119.18,2692.63 -480.64,480.63 -1088.47,834.38 -1767.29,1005.04 381.3,367.65 618.48,883.76 618.48,1455.27 0,1116.37 -904.99,2021.36 -2021.35,2021.36 -1116.37,0 -2021.36,-904.99 -2021.36,-2021.36 0,-589.21 252.1,-1119.54 654.33,-1489.01 -628.41,-181.14 -1191.29,-520.38 -1642.22,-971.3 -690.54,-690.56 -1119.18,-1643.67 -1119.18,-2692.63l0 -6434.43c0,-1048.96 428.64,-2002.08 1119.18,-2692.64 690.56,-690.54 1643.68,-1119.18 2692.63,-1119.18l794.14 0c1048.97,0 2002.08,428.64 2692.64,1119.18zm-7680.24 -3517.59l0 5859.93c-722.98,-64.63 -1157.2,-376.27 -1365.41,-575.48l0 -5284.45c0,-672.04 -275.43,-1283.51 -719.16,-1727.25 -443.74,-443.73 -1055.21,-719.16 -1727.25,-719.16l-794.14 0c-672.05,0 -1283.51,275.43 -1727.25,719.16 -443.73,443.74 -719.16,1055.21 -719.16,1727.25l0 6434.43c0,672.06 275.43,1283.51 719.16,1727.25 443.74,443.73 1055.2,719.16 1727.25,719.16l794.14 0c672.04,0 1283.51,-275.43 1727.25,-719.16 247.09,-247.1 441.96,-546.21 566.18,-878.83 608.56,272.83 1099.68,310.19 1338.1,308.27 -187.65,585.61 -513.55,1110.6 -938.9,1535.95 -690.56,690.54 -1643.67,1119.18 -2692.63,1119.18l-794.14 0c-1048.96,0 -2002.07,-428.64 -2692.63,-1119.18 -690.55,-690.56 -1119.19,-1643.67 -1119.19,-2692.64l0 -6434.43c0,-1048.96 428.64,-2002.07 1119.19,-2692.63 491.56,-491.56 1116.16,-850.4 1813.67,-1016.39 -449.94,-370.74 -736.8,-932.25 -736.8,-1560.77 0,-1116.37 905,-2021.36 2021.36,-2021.36 1116.36,0 2021.36,904.99 2021.36,2021.36 0,630.31 -288.5,1193.24 -740.66,1563.94 692.19,167.36 1312.01,524.77 1800.47,1013.22 690.55,690.56 1119.19,1643.67 1119.19,2692.63zm-2355.77 3581.2c0,672.05 275.43,1283.51 719.16,1727.25 443.74,443.73 1055.19,719.16 1727.25,719.16l45.5 0c-24.19,276.62 -60.45,814.87 -37.52,1365.41l-7.98 0c-1048.97,0 -2002.08,-428.64 -2692.64,-1119.19 -690.54,-690.56 -1119.18,-1643.67 -1119.18,-2692.63l0 -794.14c0,-1048.96 428.64,-2002.07 1119.18,-2692.63 272.49,-272.49 585.89,-504.15 929.9,-684.83 38.14,327.03 108.93,1053.59 63.73,1622.47 -9.48,9.18 -18.91,18.41 -28.24,27.74 -443.73,443.74 -719.16,1055.21 -719.16,1727.25l0 794.14z"/>
 </g>
</svg>
