<svg id="Capa_1" enable-background="new 0 0 512 512" height="512" viewBox="0 0 512 512" width="512" xmlns="http://www.w3.org/2000/svg"><g><g><g><path d="m464.903 425.013h-417.806c-7.011 0-12.695-5.684-12.695-12.695v-312.629c0-7.011 5.684-12.695 12.695-12.695h417.806c7.011 0 12.695 5.684 12.695 12.695v312.63c0 7.011-5.684 12.694-12.695 12.694z" fill="#f2fbff"/></g><g><path d="m477.595 99.69v312.624c0 7.018-5.678 12.696-12.696 12.696h-20.553c7.008 0 12.696-5.678 12.696-12.696v-312.624c0-7.008-5.688-12.696-12.696-12.696h20.553c7.018 0 12.696 5.688 12.696 12.696z" fill="#dff6fd"/></g><g><path d="m256 256.004-194.374 169.009h194.374 194.374z" fill="#c8effe"/></g><g><path d="m34.402 99.689v78.158l211.621 103.647c6.294 3.083 13.66 3.083 19.954 0l211.621-103.647v-78.158c0-7.011-5.684-12.695-12.695-12.695h-417.806c-7.011 0-12.695 5.683-12.695 12.695z" fill="#99e6fc"/></g></g><g><g><g><path d="m495.842 73.02-84.096-61.647c-8.907-6.53-21.419-4.601-27.945 4.304-6.528 8.905-4.601 21.417 4.304 27.945l31.913 23.394h-100.651c-12.221 0-22.128 9.907-22.128 22.128 0 12.221 9.907 22.128 22.128 22.128h100.653l-31.914 23.395c-8.905 6.528-10.832 19.039-4.304 27.945 3.917 5.344 9.987 8.175 16.141 8.174 4.101 0 8.242-1.258 11.804-3.87l84.096-61.647c5.138-3.765 8.173-9.755 8.173-16.124-.001-6.371-3.036-12.36-8.174-16.125z" fill="#d1f19e"/></g><g><g><path d="m420.02 111.268h-100.651c-6.108 0-11.646-2.479-15.655-6.478-3.999-4.009-6.478-9.537-6.478-15.645 0-1.589.17-3.139.49-4.628.09.1.19.2.28.29 4.009 3.999 9.537 6.478 15.655 6.478h113.22c6.453 0 9.151 8.245 3.947 12.06z" fill="#bbec6c"/></g><g><path d="m504.011 89.146c0 6.368-3.029 12.356-8.167 16.125l-84.102 61.649c-3.559 2.609-7.697 3.869-11.796 3.869-6.158 0-12.226-2.829-16.145-8.177-3.759-5.118-4.708-11.436-3.149-17.114 3.759 3.479 8.647 5.308 13.586 5.308 4.098 0 8.237-1.26 11.796-3.879l84.102-61.639c3.679-2.699 6.268-6.528 7.447-10.826 4.079 3.757 6.428 9.076 6.428 14.684z" fill="#bbec6c"/></g></g></g><g><g><path d="m16.158 406.737 84.096-61.647c8.907-6.53 21.419-4.601 27.945 4.304 6.528 8.905 4.601 21.417-4.304 27.945l-31.913 23.394h100.652c12.221 0 22.128 9.907 22.128 22.128 0 12.221-9.907 22.128-22.128 22.128h-100.654l31.914 23.395c8.905 6.528 10.832 19.039 4.304 27.945-3.917 5.344-9.987 8.175-16.141 8.174-4.101 0-8.242-1.258-11.804-3.87l-84.096-61.647c-5.138-3.765-8.173-9.754-8.173-16.124.001-6.371 3.036-12.36 8.174-16.125z" fill="#d9b1ee"/></g><g><g><path d="m91.98 444.985h100.651c6.108 0 11.646-2.479 15.655-6.478 3.999-4.009 6.478-9.537 6.478-15.645 0-1.589-.17-3.139-.49-4.628-.09.1-.19.2-.28.29-4.009 3.999-9.537 6.478-15.655 6.478h-113.22c-6.453 0-9.151 8.245-3.947 12.06z" fill="#cb97e7"/></g><g><path d="m7.989 422.862c0 6.368 3.029 12.356 8.167 16.125l84.102 61.649c3.559 2.609 7.697 3.869 11.796 3.869 6.158 0 12.226-2.829 16.145-8.177 3.759-5.118 4.708-11.436 3.149-17.114-3.759 3.479-8.647 5.308-13.585 5.308-4.098 0-8.237-1.26-11.796-3.879l-84.102-61.639c-3.679-2.699-6.268-6.528-7.447-10.826-4.08 3.758-6.429 9.076-6.429 14.684z" fill="#cb97e7"/></g></g><path d="m500.275 66.973-84.095-61.647c-5.923-4.342-13.182-6.117-20.44-4.999s-13.645 4.995-17.985 10.917c-4.341 5.923-6.117 13.181-4.999 20.438s4.995 13.645 10.917 17.986l13.437 9.85h-30.611c-4.141 0-7.497 3.356-7.497 7.497s3.357 7.498 7.497 7.498h53.52c3.242 0 6.117-2.084 7.126-5.165 1.008-3.082-.078-6.462-2.693-8.379l-31.913-23.395c-5.557-4.074-6.763-11.908-2.69-17.466 1.973-2.691 4.875-4.454 8.174-4.962 3.298-.511 6.597.299 9.291 2.273l84.097 61.648c3.198 2.343 5.107 6.11 5.107 10.077 0 3.966-1.909 7.734-5.108 10.078l-84.097 61.648c-2.157 1.582-4.706 2.418-7.371 2.418-4.034.001-7.713-1.862-10.093-5.11-1.973-2.691-2.78-5.99-2.272-9.289.508-3.3 2.27-6.203 4.962-8.176l31.914-23.395c2.615-1.916 3.701-5.297 2.693-8.379-1.008-3.081-3.883-5.165-7.126-5.165h-100.653c-8.068 0-14.631-6.563-14.631-14.631s6.563-14.631 14.631-14.631h12.841c4.141 0 7.497-3.356 7.497-7.498s-3.357-7.497-7.497-7.497h-12.841c-12.958 0-23.993 8.366-28.004 19.979h-244.266c-11.134 0-20.192 9.057-20.192 20.191v289.874l-15.18 11.128c-7.037 5.157-11.238 13.446-11.238 22.171s4.201 17.015 11.238 22.171l84.095 61.646c4.747 3.481 10.362 5.322 16.236 5.322h.004c8.733 0 17.027-4.202 22.185-11.238 4.341-5.923 6.117-13.181 4.999-20.438s-4.995-13.645-10.917-17.986l-13.438-9.851h77.745c12.957 0 23.991-8.365 28.003-19.976h244.266c11.134 0 20.192-9.058 20.192-20.191v-59.161c0-4.141-3.357-7.498-7.497-7.498s-7.497 3.356-7.497 7.498v59.161c0 2.865-2.331 5.197-5.197 5.197h-11.725l-161.38-140.321 178.301-87.328v129.086c0 4.141 3.357 7.498 7.497 7.498s7.497-3.356 7.497-7.498v-196.51l15.179-11.127c7.037-5.157 11.238-13.447 11.238-22.172s-4.199-17.015-11.236-22.171zm-458.375 122.894 178.302 87.328-83.224 72.364c-.753-1.6-1.664-3.139-2.732-4.597-4.34-5.923-10.727-9.8-17.985-10.918-7.259-1.122-14.517.655-20.439 5l-53.922 39.526zm150.733 247.624h-100.653c-3.242 0-6.117 2.084-7.126 5.165-1.008 3.082.078 6.462 2.693 8.379l31.914 23.396c2.692 1.973 4.454 4.876 4.962 8.176.508 3.299-.299 6.597-2.273 9.29-2.38 3.247-6.057 5.109-10.092 5.109 0 0-.001 0-.002 0-2.664 0-5.213-.837-7.371-2.419l-84.097-61.648c-3.198-2.343-5.107-6.11-5.107-10.077s1.909-7.734 5.107-10.077c0-.001.001-.001.001-.001l84.096-61.647c2.166-1.588 4.725-2.421 7.362-2.421.64 0 1.284.049 1.929.148 3.299.508 6.201 2.271 8.174 4.963 4.073 5.557 2.867 13.391-2.69 17.465l-31.913 23.394c-2.615 1.917-3.701 5.297-2.693 8.379 1.008 3.081 3.883 5.165 7.126 5.165h100.652c8.068 0 14.631 6.563 14.631 14.63.001 8.068-6.562 14.631-14.63 14.631zm237.692-19.976h-208.558c-2.525-13.792-14.623-24.28-29.133-24.28h-77.744l13.437-9.85c5.232-3.835 8.864-9.268 10.411-15.486l96.083-83.545 7.905 3.872c4.219 2.067 8.746 3.1 13.275 3.1 4.528 0 9.057-1.034 13.274-3.1l7.905-3.872zm39.775-244.345-207.422 101.59c-4.243 2.08-9.112 2.08-13.357 0l-207.421-101.59v-73.482c0-2.865 2.331-5.197 5.197-5.197h243.137c2.526 13.79 14.624 24.278 29.133 24.278h77.744l-13.437 9.85c-5.922 4.341-9.799 10.729-10.917 17.986s.657 14.516 4.998 20.438c5.158 7.039 13.451 11.239 22.184 11.239h.004c5.875 0 11.49-1.84 16.236-5.32l53.921-39.527z"/></g></g></g></svg>