<?xml version="1.0" encoding="UTF-8"?>
<!DOCTYPE svg PUBLIC "-//W3C//DTD SVG 1.1//EN" "http://www.w3.org/Graphics/SVG/1.1/DTD/svg11.dtd">
<!-- Creator: CorelDRAW 2020 (64-Bit Evaluation Version) -->
<svg xmlns="http://www.w3.org/2000/svg" xml:space="preserve" width="210mm" height="297mm" version="1.1" style="shape-rendering:geometricPrecision; text-rendering:geometricPrecision; image-rendering:optimizeQuality; fill-rule:evenodd; clip-rule:evenodd"
viewBox="0 0 21000 29700"
 xmlns:xlink="http://www.w3.org/1999/xlink"
 xmlns:xodm="http://www.corel.com/coreldraw/odm/2003">
 <defs>
  <style type="text/css">
   <![CDATA[
    .fil0 {fill:#2D94F3;fill-rule:nonzero}
   ]]>
  </style>
 </defs>
 <g id="Layer_x0020_1">
  <metadata id="CorelCorpID_0Corel-Layer"/>
  <g id="_2093679917792">
   <path class="fil0" d="M4234.67 8725.78c-81.14,35.28 -183.44,119.94 -229.31,183.44l-84.67 119.94 0 4639.03 0 4639.03 84.67 119.94c45.86,63.5 148.17,148.17 229.31,183.44 137.58,59.97 275.17,67.03 2395.36,67.03l2247.19 0 0 282.22 0 282.22 -261.06 0c-141.11,0 -338.67,14.11 -440.97,35.28 -603.25,112.89 -1083.03,617.36 -1174.75,1231.19 -45.86,292.81 -3.53,409.22 165.81,483.31 105.83,42.33 582.08,49.39 3400.78,42.33 3220.86,-10.58 3277.31,-10.58 3354.92,-81.14 119.94,-105.83 141.11,-204.61 102.31,-448.03 -49.39,-306.92 -172.86,-557.39 -381,-779.64 -313.97,-331.61 -698.5,-483.31 -1227.67,-483.31l-292.81 0 0 -282.22 0 -282.22 2257.78 0c1841.5,0 2282.47,-10.58 2374.19,-49.39 137.58,-56.44 289.28,-215.19 338.67,-349.25 52.92,-141.11 52.92,-9080.5 0,-9221.61 -49.39,-134.06 -201.08,-292.81 -338.67,-349.25 -95.25,-42.33 -1114.78,-49.39 -6244.17,-49.39 -5901.97,0 -6138.33,3.53 -6275.92,67.03l0.01 0.02zm12297.83 4942.41l0 4409.72 -6014.86 0 -6014.86 0 0 -4409.72 0 -4409.72 6014.86 0 6014.86 0 0 4409.72zm-5009.44 5291.67l0 282.22 -1023.06 0 -1023.06 0 0 -282.22 0 -282.22 1023.06 0 1023.06 0 0 282.22zm1428.75 977.19c148.17,77.61 285.75,211.67 388.06,370.42l59.97 98.78 -2878.67 0 -2882.19 0 81.14 -144.64c45.86,-81.14 141.11,-186.97 211.67,-232.83 282.22,-190.5 229.31,-186.97 2638.78,-176.39 2218.97,7.06 2240.14,7.06 2381.25,84.67l-0.01 -0.01z"/>
   <path class="fil0" d="M10182.5 9738.25c-261.06,70.56 -444.5,183.44 -645.58,398.64 -215.19,229.31 -310.44,451.56 -335.14,769.06l-17.64 257.53 -331.61 0c-352.78,0 -444.5,24.69 -508,148.17 -56.44,102.31 -352.78,4561.42 -313.97,4670.78 77.61,197.56 -7.06,190.5 2497.67,190.5l2303.64 0 84.67 -88.19c70.56,-67.03 88.19,-119.94 88.19,-271.64 0,-412.75 -285.75,-4392.08 -321.03,-4476.75 -52.92,-134.06 -172.86,-172.86 -522.11,-172.86l-310.44 0 -21.17 -254c-49.39,-596.19 -490.36,-1079.5 -1079.5,-1192.39 -243.42,-45.86 -331.61,-42.33 -567.97,21.17l-0.01 -0.02zm687.92 663.22c201.08,109.36 335.14,317.5 359.83,560.92l21.17 201.08 -730.25 0 -726.72 0 0 -158.75c0,-91.72 31.75,-222.25 67.03,-296.33 84.67,-162.28 289.28,-349.25 419.81,-377.47 52.92,-10.58 112.89,-24.69 130.53,-31.75 74.08,-28.22 324.56,28.22 458.61,102.31l-0.01 -0.01zm1389.94 3167.95c63.5,994.83 123.47,1852.08 130.53,1905l21.17 98.78 -1890.89 0c-1040.69,0 -1890.89,-10.58 -1890.89,-28.22 0,-14.11 56.44,-850.19 123.47,-1859.14 67.03,-1008.94 123.47,-1855.61 123.47,-1880.31 0,-31.75 349.25,-42.33 1633.36,-42.33l1633.36 0 116.42 1806.22z"/>
   <path class="fil0" d="M5310.64 16698.56c-141.11,141.11 -127,328.08 35.28,451.56 42.33,35.28 1202.97,42.33 5154.08,45.86 5588,0 5214.05,14.11 5295.19,-197.56 45.86,-123.47 -42.33,-321.03 -162.28,-366.89 -59.97,-21.17 -1887.36,-35.28 -5154.08,-35.28l-5065.89 0 -102.31 102.31 0.01 0z"/>
  </g>
 </g>
</svg>
