<svg xmlns="http://www.w3.org/2000/svg" width="512" height="512"  xmlns:v="https://vecta.io/nano"><linearGradient id="A" gradientUnits="userSpaceOnUse" x1="256" x2="256" y1="512" y2="0"><stop stop-color="#00b59c" offset="0"/><stop stop-color="#2d94f3" offset="0"/></linearGradient><path d="M508.996 156.995A15 15 0 0 0 497 151h-92.076C397.623 100.184 353.805 61 301 61s-96.623 39.184-103.924 90h-78.055L99.422 12.893A15 15 0 0 0 84.571 0H15C6.716 0 0 6.716 0 15s6.716 15 15 15h56.55l42.12 297.646c2.607 17.204 11.015 32.968 23.729 44.638C127.39 380.544 121 393.04 121 407c0 20.723 14.085 38.209 33.181 43.414A44.76 44.76 0 0 0 151 467c0 24.813 20.187 45 45 45s45-20.187 45-45a44.89 44.89 0 0 0-2.58-15.01h125.16c-1.665 4.705-2.58 9.751-2.58 15.01 0 24.813 20.187 45 45 45s45-20.187 45-45-20.187-45-45-45H166a15.02 15.02 0 0 1-15-15 15.02 15.02 0 0 1 15-15h224.7c33.444 0 63.05-22.36 72.024-54.39l48.679-167.422a15 15 0 0 0-2.407-13.193zM406 452a15.02 15.02 0 0 1 15 15 15.02 15.02 0 0 1-15 15 15.02 15.02 0 0 1-15-15 15.02 15.02 0 0 1 15-15zm-210 0a15.02 15.02 0 0 1 15 15 15.02 15.02 0 0 1-15 15 15.02 15.02 0 0 1-15-15 15.02 15.02 0 0 1 15-15zM301 91c41.355 0 75 33.645 75 75s-33.645 75-75 75-75-33.645-75-75 33.645-75 75-75zm132.851 238.468C428.506 348.623 410.762 362 390.7 362H187.899c-22.39 0-41.119-16.307-44.559-38.781L123.266 181h73.81c7.301 50.816 51.12 90 103.924 90s96.623-39.184 103.924-90h72.094l-43.167 148.468zM275.394 206.606c5.857 5.857 15.355 5.858 21.213 0l45-45c5.858-5.858 5.858-15.355 0-21.213s-15.355-5.858-21.213 0L286 174.787l-4.394-4.393c-5.857-5.858-15.355-5.858-21.213 0s-5.858 15.355 0 21.213z" fill="url(#A)"/></svg>