<?xml version="1.0" encoding="UTF-8"?>
<svg width="1457px" height="1110px" viewBox="0 0 1457 1110" version="1.1" xmlns="http://www.w3.org/2000/svg" xmlns:xlink="http://www.w3.org/1999/xlink">
    <!-- Generator: Sketch 51 (57462) - http://www.bohemiancoding.com/sketch -->
    <title>Group 24</title>
    <desc>Created with Sketch.</desc>
    <defs></defs>
    <g id="Page-1" stroke="none" stroke-width="1" fill="none" fill-rule="evenodd">
        <g id="bg-pattern" transform="translate(-4.000000, -1420.000000)" fill="#2D94F3">
            <g id="Group-25">
                <g id="Group-24" transform="translate(2.000000, 1419.000000)">
                    <g id="bg-pattern" transform="translate(1.000000, 612.566607)">
                        <polygon id="Fill-3" transform="translate(1100.656128, 50.045591) rotate(-8.000000) translate(-1100.656128, -50.045591) " points="1097.59609 41.5109669 1087.06401 58.5802149 1104.03816 58.5802149 1114.24824 41.5109669"></polygon>
                        <polygon id="Fill-3" transform="translate(14.656128, 366.779161) rotate(-1.000000) translate(-14.656128, -366.779161) " points="11.5960894 358.244537 1.06401194 375.313785 18.0381639 375.313785 28.2482443 358.244537"></polygon>
                        <polygon id="Fill-3" fill-opacity="0.247509058" transform="translate(1444.592116, 150.518638) rotate(-8.000000) translate(-1444.592116, -150.518638) " points="1441.53208 141.984014 1431 159.053262 1447.97415 159.053262 1458.18423 141.984014"></polygon>
                        <polygon id="Fill-3" fill-opacity="0.247509058" transform="translate(1160.592116, 346.614751) rotate(-8.000000) translate(-1160.592116, -346.614751) " points="1157.53208 340.563055 1147 352.666447 1163.97415 352.666447 1174.18423 340.563055"></polygon>
                        <polygon id="Fill-3" fill-opacity="0.247509058" transform="translate(624.592116, 488.103008) rotate(-8.000000) translate(-624.592116, -488.103008) " points="621.532077 479.568384 611 496.637632 627.974152 496.637632 638.184232 479.568384"></polygon>
                        <polygon id="Fill-3" fill-opacity="0.247509058" transform="translate(250.637842, 217.538375) rotate(-8.000000) translate(-250.637842, -217.538375) " points="248.468042 211.486679 241 223.590071 253.035962 223.590071 260.275684 211.486679"></polygon>
                        <polygon id="Fill-3" fill-opacity="0.247509058" transform="translate(104.592116, 10.520414) rotate(-8.000000) translate(-104.592116, -10.520414) " points="101.532077 1.98579041 91 19.0550384 107.974152 19.0550384 118.184232 1.98579041"></polygon>
                    </g>
                    <g id="bg-pattern" transform="translate(730.000000, 377.943162) scale(-1, 1) translate(-730.000000, -377.943162) translate(0.000000, 0.943162)">
                        <polygon id="Fill-3" transform="translate(1100.656128, 50.045591) rotate(-8.000000) translate(-1100.656128, -50.045591) " points="1097.59609 41.5109669 1087.06401 58.5802149 1104.03816 58.5802149 1114.24824 41.5109669"></polygon>
                        <polygon id="Fill-3" transform="translate(480.656128, 745.072234) rotate(-1.000000) translate(-480.656128, -745.072234) " points="477.596089 736.53761 467.064012 753.606858 484.038164 753.606858 494.248244 736.53761"></polygon>
                        <polygon id="Fill-3" transform="translate(14.656128, 366.779161) rotate(-1.000000) translate(-14.656128, -366.779161) " points="11.5960894 358.244537 1.06401194 375.313785 18.0381639 375.313785 28.2482443 358.244537"></polygon>
                        <polygon id="Fill-3" fill-opacity="0.247509058" transform="translate(1444.592116, 150.518638) rotate(-8.000000) translate(-1444.592116, -150.518638) " points="1441.53208 141.984014 1431 159.053262 1447.97415 159.053262 1458.18423 141.984014"></polygon>
                        <polygon id="Fill-3" fill-opacity="0.247509058" transform="translate(1160.592116, 346.614751) rotate(-8.000000) translate(-1160.592116, -346.614751) " points="1157.53208 340.563055 1147 352.666447 1163.97415 352.666447 1174.18423 340.563055"></polygon>
                        <polygon id="Fill-3" fill-opacity="0.247509058" transform="translate(624.592116, 488.103008) rotate(-8.000000) translate(-624.592116, -488.103008) " points="621.532077 479.568384 611 496.637632 627.974152 496.637632 638.184232 479.568384"></polygon>
                        <polygon id="Fill-3" fill-opacity="0.247509058" transform="translate(250.637842, 217.538375) rotate(-8.000000) translate(-250.637842, -217.538375) " points="248.468042 211.486679 241 223.590071 253.035962 223.590071 260.275684 211.486679"></polygon>
                        <polygon id="Fill-3" fill-opacity="0.247509058" transform="translate(104.592116, 10.520414) rotate(-8.000000) translate(-104.592116, -10.520414) " points="101.532077 1.98579041 91 19.0550384 107.974152 19.0550384 118.184232 1.98579041"></polygon>
                    </g>
                </g>
            </g>
        </g>
    </g>
</svg>