<?xml version="1.0" encoding="UTF-8"?>
<svg width="1440px" height="326px" viewBox="0 0 1440 326" version="1.1" xmlns="http://www.w3.org/2000/svg" xmlns:xlink="http://www.w3.org/1999/xlink">
    <!-- Generator: Sketch 51.2 (57519) - http://www.bohemiancoding.com/sketch -->
    <title>bg pattern</title>
    <desc>Created with Sketch.</desc>
    <defs></defs>
    <g id="SB-WEB-DESIGN" stroke="none" stroke-width="1" fill="none" fill-rule="evenodd">
        <g id="Service-page" transform="translate(0.000000, -4087.000000)" fill="#39D341">
            <g id="Group-78" transform="translate(-10.000000, 3971.000000)">
                <g id="Group-59-Copy" transform="translate(0.000000, 116.000000)">
                    <g id="bg-pattern">
                        <polygon id="Fill-3" transform="translate(14.500000, 192.500000) rotate(-1.000000) translate(-14.500000, -192.500000) " points="11.4606997 184 1 201 17.8591152 201 28 184"></polygon>
                        <polygon id="Fill-3" transform="translate(1449.500000, 316.500000) rotate(-1.000000) translate(-1449.500000, -316.500000) " points="1446.4607 308 1436 325 1452.85912 325 1463 308"></polygon>
                        <polygon id="Fill-3" fill-opacity="0.249150815" transform="translate(564.375120, 253.296115) rotate(-8.000000) translate(-564.375120, -253.296115) " points="562.050949 246.796115 554.05159 259.796115 566.943855 259.796115 574.698649 246.796115"></polygon>
                        <polygon id="Fill-3" fill-opacity="0.249150815" transform="translate(1063.127687, 7.873500) rotate(-8.000000) translate(-1063.127687, -7.873500) " points="1060.80352 1.37350005 1052.80416 14.3735 1065.69642 14.3735 1073.45122 1.37350005"></polygon>
                    </g>
                </g>
            </g>
        </g>
    </g>
</svg>