<?xml version="1.0" encoding="UTF-8"?>
<!DOCTYPE svg PUBLIC "-//W3C//DTD SVG 1.1//EN" "http://www.w3.org/Graphics/SVG/1.1/DTD/svg11.dtd">
<!-- Creator: CorelDRAW 2020 (64-Bit Evaluation Version) -->
<svg xmlns="http://www.w3.org/2000/svg" xml:space="preserve" width="210mm" height="297mm" version="1.1" style="shape-rendering:geometricPrecision; text-rendering:geometricPrecision; image-rendering:optimizeQuality; fill-rule:evenodd; clip-rule:evenodd"
viewBox="0 0 21000 29700"
 xmlns:xlink="http://www.w3.org/1999/xlink"
 xmlns:xodm="http://www.corel.com/coreldraw/odm/2003">
 <defs>
  <style type="text/css">
   <![CDATA[
    .fil0 {fill:#2D94F3;fill-rule:nonzero}
   ]]>
  </style>
 </defs>
 <g id="Layer_x0020_1">
  <metadata id="CorelCorpID_0Corel-Layer"/>
  <g id="_2093534818784">
   <path class="fil0" d="M14440.53 1920.7c-172.86,45.86 -306.92,116.42 -391.58,208.14 -88.19,98.78 -91.72,81.14 419.81,1202.97 656.17,1432.28 1079.5,2508.25 1555.75,3933.47 1206.5,3630.08 1926.17,7457.72 2095.5,11183.05 21.17,444.5 52.92,867.83 70.56,938.39 56.44,204.61 148.17,261.06 419.81,257.53 257.53,-3.53 451.56,-81.14 603.25,-239.89 84.67,-91.72 84.67,-109.36 77.61,-543.28 -28.22,-1703.92 -377.47,-4656.67 -804.33,-6826.25 -500.94,-2547.06 -1587.5,-5838.47 -2966.86,-9002.89 -328.08,-751.42 -455.08,-994.83 -557.39,-1061.86 -109.36,-70.56 -342.19,-91.72 -522.11,-49.39l-0.02 0.01z"/>
   <path class="fil0" d="M19640.47 3504.67c-158.75,289.28 -285.75,560.92 -285.75,596.19 0,49.39 144.64,179.92 469.19,423.33 1559.28,1174.75 2458.86,2377.72 3005.67,4018.14 292.81,867.83 370.42,1393.47 370.42,2487.08 0,1464.03 -169.33,2226.03 -776.11,3527.78l-275.17 592.67 91.72 67.03c123.47,88.19 1104.19,575.03 1121.83,557.39 52.92,-49.39 560.92,-1174.75 677.33,-1492.25 610.31,-1668.64 730.25,-3510.14 342.19,-5252.86 -299.86,-1344.08 -966.61,-2730.5 -1837.97,-3827.64 -296.33,-373.94 -1150.06,-1227.67 -1478.14,-1485.19 -448.03,-349.25 -1037.17,-737.31 -1118.31,-737.31 -10.58,0 -148.17,236.36 -306.92,525.64l0.02 0z"/>
   <path class="fil0" d="M13526.83 3236.56c-603.25,620.89 -1799.17,1682.75 -2737.56,2437.69 -2656.42,2127.25 -5785.55,3944.05 -8967.61,5203.47 -398.64,158.75 -783.17,313.97 -860.78,345.72l-134.06 59.97 21.17 444.5c70.56,1241.78 222.25,2254.25 483.31,3150.31 229.31,793.75 737.31,2070.81 1040.69,2610.56l95.25 172.86 250.47 -24.69c137.58,-10.58 543.28,-52.92 903.11,-88.19 1372.31,-141.11 1799.17,-158.75 3545.42,-158.75 1696.86,0 2271.89,24.69 3439.58,144.64 2409.47,243.42 4448.53,652.64 6882.69,1379.36 49.39,14.11 63.5,-14.11 70.56,-141.11 28.22,-313.97 -77.61,-2134.31 -179.92,-3164.42 -405.69,-4021.67 -1513.42,-8022.17 -3227.92,-11648.72 -208.14,-440.97 -398.64,-818.44 -426.86,-843.14 -35.28,-28.22 -81.14,0 -197.56,119.94l0.02 0z"/>
   <path class="fil0" d="M18557.44 5490.81c-109.36,201.08 -254,455.08 -317.5,567.97 -67.03,112.89 -119.94,218.72 -119.94,236.36 0,17.64 74.08,84.67 165.81,148.17 465.67,317.5 1167.69,1044.22 1495.78,1541.64 370.42,564.44 705.56,1382.89 843.14,2049.64 56.44,282.22 70.56,486.83 70.56,1086.56 0,836.08 -35.28,1090.08 -232.83,1682.75 -119.94,366.89 -158.75,458.61 -412.75,1008.94l-123.47 268.11 511.53 254c278.69,141.11 564.44,264.58 627.94,275.17 116.42,17.64 119.94,14.11 246.94,-239.89 328.08,-649.11 596.19,-1492.25 712.61,-2236.61 74.08,-476.25 81.14,-1474.61 14.11,-1957.92 -271.64,-1936.75 -1354.67,-3721.81 -2938.64,-4836.58 -162.28,-116.42 -303.39,-208.14 -317.5,-208.14 -14.11,0 -116.42,162.28 -225.78,359.83l-0.01 0z"/>
   <path class="fil0" d="M-436.11 11678.53c-88.19,28.22 -384.53,112.89 -663.22,194.03 -917.22,257.53 -1277.06,451.56 -1728.61,927.81 -589.14,620.89 -860.78,1407.58 -751.42,2180.17 102.31,719.67 356.31,1566.33 567.97,1897.94 299.86,458.61 709.08,807.86 1241.78,1054.81 426.86,197.56 716.14,264.58 1174.75,264.58 338.67,0 486.83,-24.69 1195.92,-183.44 444.5,-98.78 821.97,-194.03 836.08,-208.14 14.11,-17.64 -105.83,-331.61 -268.11,-698.5 -737.31,-1700.39 -1075.97,-3055.06 -1217.08,-4893.03 -21.17,-268.11 -45.86,-508 -56.44,-539.75 -24.69,-63.5 -123.47,-63.5 -331.61,3.53l-0.01 -0.01z"/>
   <path class="fil0" d="M6249.03 18099.08c-980.72,77.61 -2155.47,257.53 -2635.25,402.17 -268.11,81.14 -451.56,215.19 -451.56,331.61 0,109.36 70.56,204.61 511.53,656.17 440.97,458.61 769.06,853.72 927.81,1135.94 123.47,215.19 197.56,472.72 377.47,1298.22 433.92,2010.83 1061.86,3421.94 1883.83,4236.86 532.69,529.17 938.39,666.75 1615.72,546.81 980.72,-172.86 1569.86,-603.25 1686.28,-1224.14 31.75,-165.81 -42.33,-440.97 -321.03,-1188.86 -377.47,-1005.42 -384.53,-1054.81 -384.53,-2229.56l0 -1005.42 183.44 -635c296.33,-1023.06 342.19,-1227.67 342.19,-1633.36 0,-271.64 -14.11,-373.94 -49.39,-409.22 -151.69,-141.11 -1308.81,-268.11 -2557.64,-285.75 -522.11,-3.53 -1030.11,-3.53 -1128.89,3.53l0.02 0z"/>
  </g>
 </g>
</svg>
