<?xml version="1.0" encoding="UTF-8"?>
<!DOCTYPE svg PUBLIC "-//W3C//DTD SVG 1.1//EN" "http://www.w3.org/Graphics/SVG/1.1/DTD/svg11.dtd">
<!-- Creator: CorelDRAW 2020 (64-Bit Evaluation Version) -->
<svg xmlns="http://www.w3.org/2000/svg" xml:space="preserve" width="270.933mm" height="203.2mm" version="1.1" style="shape-rendering:geometricPrecision; text-rendering:geometricPrecision; image-rendering:optimizeQuality; fill-rule:evenodd; clip-rule:evenodd"
viewBox="0 0 27093.32 20320"
 xmlns:xlink="http://www.w3.org/1999/xlink"
 xmlns:xodm="http://www.corel.com/coreldraw/odm/2003">
 <defs>
  <style type="text/css">
   <![CDATA[
    .fil0 {fill:#2D94F3;fill-rule:nonzero}
   ]]>
  </style>
 </defs>
 <g id="Layer_x0020_1">
  <metadata id="CorelCorpID_0Corel-Layer"/>
  <g id="_2093534818784">
   <path class="fil0" d="M2960.86 -38470.28c-208.17,55.23 -369.61,140.2 -471.57,250.66 -106.2,118.95 -110.45,97.71 505.57,1448.7 790.2,1724.85 1300.01,3020.61 1873.54,4736.95 1452.95,4371.6 2319.63,8981.11 2523.55,13467.41 25.49,535.3 63.73,1045.1 84.97,1130.08 67.97,246.4 178.44,314.38 505.57,310.13 310.13,-4.25 543.8,-97.71 726.47,-288.89 101.97,-110.45 101.97,-131.7 93.47,-654.25 -33.99,-2051.98 -454.58,-5607.89 -968.63,-8220.65 -603.27,-3067.35 -1911.78,-7031.09 -3572.9,-10841.91 -395.1,-904.91 -548.04,-1198.04 -671.25,-1278.76 -131.7,-84.98 -412.09,-110.46 -628.76,-59.48l-0.03 0.01z"/>
   <path class="fil0" d="M9222.99 -36562.75c-191.18,348.37 -344.12,675.49 -344.12,717.97 0,59.48 174.19,216.67 565.03,509.8 1877.8,1414.72 2961.13,2863.42 3619.64,4838.93 352.62,1045.1 446.09,1678.11 446.09,2995.11 0,1763.09 -203.92,2680.74 -934.65,4248.4l-331.38 713.74 110.46 80.72c148.69,106.2 1329.74,692.49 1350.98,671.25 63.73,-59.48 675.5,-1414.72 815.69,-1797.08 734.98,-2009.49 879.42,-4227.15 412.09,-6325.86 -361.11,-1618.63 -1164.06,-3288.25 -2213.41,-4609.51 -356.86,-450.32 -1384.98,-1478.44 -1780.08,-1788.57 -539.55,-420.59 -1249.03,-887.92 -1346.75,-887.92 -12.74,0 -178.43,284.64 -369.61,633.02l0.02 0z"/>
   <path class="fil0" d="M1860.52 -36885.63c-726.47,747.72 -2166.68,2026.48 -3296.76,2935.64 -3199.05,2561.78 -6967.36,4749.7 -10799.42,6266.38 -480.07,191.17 -943.15,378.1 -1036.61,416.34l-161.45 72.22 25.5 535.29c84.97,1495.44 267.65,2714.73 582.03,3793.83 276.16,955.89 887.92,2493.81 1253.28,3143.82l114.7 208.17 301.64 -29.74c165.68,-12.74 654.25,-63.73 1087.58,-106.2 1652.63,-169.94 2166.69,-191.18 4269.65,-191.18 2043.47,0 2735.96,29.73 4142.18,174.19 2901.65,293.14 5357.23,785.95 8288.61,1661.12 59.48,16.99 76.47,-17 84.98,-169.94 33.98,-378.1 -93.47,-2570.28 -216.68,-3810.81 -488.56,-4843.18 -1822.56,-9660.86 -3887.28,-14028.2 -250.66,-531.05 -480.07,-985.63 -514.06,-1015.37 -42.48,-33.99 -97.71,0 -237.91,144.44l0.02 0z"/>
   <path class="fil0" d="M7918.73 -34170.91c-131.7,242.16 -305.88,548.04 -382.35,683.99 -80.73,135.95 -144.44,263.4 -144.44,284.64 0,21.25 89.21,101.97 199.68,178.44 560.79,382.36 1406.21,1257.52 1801.32,1856.55 446.08,679.74 849.68,1665.37 1015.37,2468.32 67.97,339.87 84.97,586.28 84.97,1308.51 0,1006.87 -42.49,1312.75 -280.39,2026.49 -144.44,441.83 -191.18,552.29 -497.06,1215.03l-148.69 322.88 616.02 305.88c335.61,169.94 679.74,318.63 756.21,331.38 140.2,21.25 144.44,17 297.38,-288.89 395.1,-781.7 717.97,-1797.07 858.17,-2693.48 89.22,-573.53 97.72,-1775.83 17,-2357.86 -327.13,-2332.37 -1631.39,-4482.07 -3538.92,-5824.55 -195.43,-140.2 -365.36,-250.66 -382.36,-250.66 -16.99,0 -140.2,195.43 -271.9,433.33l-0.01 0z"/>
   <path class="fil0" d="M-14954.62 -26719.22c-106.21,33.98 -463.08,135.95 -798.7,233.66 -1104.58,310.14 -1537.92,543.8 -2081.71,1117.34 -709.49,747.71 -1036.61,1695.1 -904.92,2625.51 123.21,866.68 429.1,1886.28 683.99,2285.63 361.12,552.29 853.93,972.88 1495.44,1270.28 514.06,237.91 862.43,318.62 1414.72,318.62 407.85,0 586.27,-29.73 1440.21,-220.91 535.3,-118.96 989.87,-233.66 1006.86,-250.66 17,-21.24 -127.44,-399.34 -322.87,-841.18 -887.92,-2047.73 -1295.76,-3679.12 -1465.7,-5892.53 -25.49,-322.87 -55.22,-611.77 -67.96,-650 -29.74,-76.47 -148.7,-76.47 -399.35,4.25l-0.01 -0.01z"/>
   <path class="fil0" d="M-6903.91 -18987.15c-1181.05,93.47 -2595.77,310.14 -3173.55,484.32 -322.88,97.72 -543.8,259.15 -543.8,399.35 0,131.7 84.97,246.41 616.02,790.21 531.04,552.29 926.15,1028.11 1117.33,1367.97 148.69,259.15 237.91,569.29 454.57,1563.41 522.56,2421.58 1278.77,4120.94 2268.64,5102.32 641.51,637.27 1130.08,802.95 1945.77,658.51 1181.05,-208.17 1890.53,-726.48 2030.73,-1474.19 38.24,-199.68 -50.97,-531.05 -386.6,-1431.71 -454.58,-1210.8 -463.08,-1270.28 -463.08,-2684.99l0 -1210.8 220.91 -764.71c356.86,-1232.04 412.09,-1478.45 412.09,-1967.01 0,-327.13 -16.99,-450.32 -59.48,-492.81 -182.68,-169.93 -1576.16,-322.88 -3080.09,-344.12 -628.76,-4.25 -1240.53,-4.25 -1359.49,4.25l0.03 0z"/>
  </g>
  <g id="_2093534818784_0">
   <path class="fil0" d="M15965.14 960.73c-126.69,33.61 -224.94,85.32 -286.99,152.54 -64.63,72.39 -67.22,59.47 307.68,881.64 480.9,1049.71 791.15,1838.28 1140.19,2882.81 884.23,2660.45 1411.67,5465.69 1535.77,8195.94 15.52,325.77 38.79,636.03 51.72,687.74 41.36,149.96 108.59,191.33 307.67,188.74 188.74,-2.58 330.94,-59.46 442.12,-175.81 62.05,-67.22 62.05,-80.15 56.88,-398.16 -20.69,-1248.79 -276.65,-3412.83 -589.49,-5002.9 -367.13,-1866.71 -1163.46,-4278.95 -2174.38,-6598.13 -240.45,-550.71 -333.53,-729.1 -408.51,-778.22 -80.15,-51.72 -250.79,-67.22 -382.65,-36.2l-0.01 0.01z"/>
   <path class="fil0" d="M19776.12 2121.6c-116.34,212.01 -209.42,411.09 -209.42,436.94 0,36.2 106.01,131.87 343.86,310.26 1142.79,860.96 1802.08,1742.61 2202.83,2944.85 214.6,636.03 271.48,1021.26 271.48,1822.76 0,1072.97 -124.1,1631.44 -568.81,2585.48l-201.66 434.36 67.22 49.12c90.49,64.64 809.25,421.44 822.17,408.51 38.79,-36.2 411.1,-860.96 496.41,-1093.66 447.29,-1222.93 535.2,-2572.54 250.79,-3849.77 -219.76,-985.06 -708.42,-2001.15 -1347.03,-2805.24 -217.18,-274.05 -842.87,-899.74 -1083.31,-1088.48 -328.36,-255.96 -760.14,-540.36 -819.6,-540.36 -7.76,0 -108.59,173.22 -224.94,385.23l0.01 0z"/>
   <path class="fil0" d="M15295.5 1925.11c-442.12,455.04 -1318.6,1233.27 -2006.33,1786.56 -1946.87,1559.04 -4240.18,2890.55 -6572.28,3813.57 -292.16,116.34 -573.98,230.1 -630.86,253.37l-98.25 43.95 15.52 325.77c51.71,910.09 162.88,1652.12 354.21,2308.84 168.06,581.73 540.37,1517.67 762.71,1913.25l69.81 126.69 183.57 -18.1c100.83,-7.75 398.16,-38.78 661.88,-64.63 1005.75,-103.42 1318.59,-116.35 2598.4,-116.35 1243.61,0 1665.05,18.1 2520.84,106.01 1765.87,178.4 3260.28,478.31 5044.25,1010.92 36.2,10.34 46.54,-10.34 51.72,-103.42 20.68,-230.11 -56.88,-1564.22 -131.87,-2319.17 -297.32,-2947.45 -1109.17,-5879.37 -2365.71,-8537.24 -152.54,-323.18 -292.16,-599.82 -312.84,-617.93 -25.85,-20.68 -59.47,0 -144.79,87.91l0.02 0z"/>
   <path class="fil0" d="M18982.38 3577.22c-80.15,147.37 -186.15,333.53 -232.69,416.26 -49.13,82.74 -87.9,160.3 -87.9,173.23 0,12.93 54.29,62.05 121.52,108.59 341.28,232.7 855.79,765.3 1096.24,1129.86 271.48,413.67 517.1,1013.5 617.93,1502.16 41.36,206.83 51.71,356.79 51.71,796.33 0,612.75 -25.86,798.9 -170.64,1233.27 -87.9,268.89 -116.34,336.11 -302.5,739.44l-90.49 196.49 374.9 186.16c204.25,103.42 413.67,193.91 460.21,201.67 85.32,12.93 87.9,10.34 180.98,-175.81 240.44,-475.73 436.94,-1093.66 522.26,-1639.19 54.3,-349.04 59.47,-1080.73 10.34,-1434.95 -199.08,-1419.42 -992.82,-2727.67 -2153.7,-3544.68 -118.93,-85.32 -222.35,-152.54 -232.69,-152.54 -10.34,0 -85.32,118.93 -165.47,263.71l-0.01 0z"/>
   <path class="fil0" d="M5062.19 8112.14c-64.63,20.69 -281.81,82.74 -486.06,142.21 -672.23,188.74 -935.95,330.94 -1266.89,679.98 -431.77,455.04 -630.85,1031.6 -550.7,1597.83 74.98,527.43 261.13,1147.94 416.26,1390.98 219.76,336.11 519.67,592.07 910.08,773.06 312.85,144.79 524.86,193.91 860.97,193.91 248.21,0 356.79,-18.1 876.48,-134.45 325.76,-72.39 602.41,-142.2 612.75,-152.54 10.34,-12.93 -77.56,-243.03 -196.5,-511.92 -540.36,-1246.2 -788.56,-2239.03 -891.98,-3586.06 -15.52,-196.49 -33.61,-372.31 -41.37,-395.58 -18.09,-46.53 -90.49,-46.53 -243.03,2.59l-0.01 -0.01z"/>
   <path class="fil0" d="M9961.67 12817.7c-718.76,56.88 -1579.73,188.74 -1931.35,294.75 -196.5,59.47 -330.95,157.71 -330.95,243.03 0,80.15 51.72,149.96 374.9,480.9 323.18,336.11 563.64,625.69 679.98,832.52 90.49,157.71 144.79,346.46 276.65,951.46 318.01,1473.71 778.22,2507.9 1380.64,3105.15 390.4,387.82 687.73,488.65 1184.14,400.75 718.76,-126.69 1150.54,-442.11 1235.86,-897.16 23.27,-121.52 -31.02,-323.18 -235.28,-871.3 -276.64,-736.87 -281.82,-773.06 -281.82,-1634.03l0 -736.86 134.44 -465.38c217.18,-749.79 250.79,-899.75 250.79,-1197.08 0,-199.08 -10.34,-274.05 -36.2,-299.91 -111.17,-103.42 -959.21,-196.5 -1874.46,-209.42 -382.65,-2.59 -754.96,-2.59 -827.36,2.58l0.02 0z"/>
  </g>
 </g>
</svg>
