<svg xmlns="http://www.w3.org/2000/svg" width="512" height="512" viewBox="0 0 504.131 504.131" fill="#2d94f3"  xmlns:v="https://vecta.io/nano"><path d="M474.131 73.537H150.318c-12.84 0-12.858 20 0 20h323.813c5.514 0 10 4.486 10 10v236.318c0 5.514-4.486 10-10 10H299.038a10 10 0 0 0-7.85 3.804l-40.336 51.102-42.781-51.31c-1.9-2.278-4.714-3.596-7.681-3.596H30c-5.514 0-10-4.486-10-10V103.537c0-5.514 4.486-10 10-10h38.052c12.84 0 12.858-20 0-20H30c-16.542 0-30 13.458-30 30v236.318c0 16.542 13.458 30 30 30h165.709l47.676 57.18c4.026 4.829 11.633 4.73 15.53-.209l44.97-56.971h170.246c16.542 0 30-13.458 30-30V103.537c0-16.542-13.458-30-30-30zM55.377 202.201c-1.059 3.258-.376 6.831 1.81 9.469l19.471 23.507-1.935 30.464c-1.52 23.865 34.31-1.479 42.04-1.325 7.797.156 43.543 24.92 42.04 1.325l-1.936-30.464 19.472-23.507c4.548-5.489 1.728-14.288-5.221-16.066l-29.569-7.572-16.34-25.782c-3.815-6.022-13.054-6.059-16.893 0l-16.34 25.782-29.569 7.572c-3.319.849-5.971 3.338-7.03 6.597zm45.403 4.22c7.393-1.892 12.259-14.265 15.982-20.14 3.663 5.78 8.66 18.266 15.982 20.14l18.126 4.642-11.937 14.41a10 10 0 0 0-2.278 7.013l1.187 18.675-17.393-6.899c-2.369-.939-5.006-.939-7.375 0l-17.393 6.899 1.186-18.675a10 10 0 0 0-2.278-7.013l-11.936-14.41zm211.671-4.22a10 10 0 0 0-7.03-6.598l-29.569-7.572-16.34-25.782c-3.815-6.022-13.054-6.059-16.893 0l-16.34 25.782-29.569 7.572a10 10 0 0 0-5.22 16.067l19.472 23.507-1.936 30.464c-1.521 23.864 34.311-1.479 42.04-1.325 7.797.156 43.543 24.92 42.04 1.325l-1.936-30.464 19.472-23.507a10 10 0 0 0 1.809-9.469zm-39.214 23.272a10 10 0 0 0-2.278 7.013l1.187 18.675c-6.245-2.477-14.219-7.604-21.08-7.604-6.829 0-14.852 5.133-21.08 7.604l1.187-18.675a10 10 0 0 0-2.278-7.013l-11.937-14.41 18.126-4.642c7.393-1.892 12.259-14.265 15.982-20.14 3.663 5.78 8.66 18.266 15.982 20.14l18.126 4.642zm173.517-23.272a10 10 0 0 0-7.03-6.598l-29.569-7.572-16.34-25.782c-3.815-6.022-13.054-6.059-16.893 0l-16.34 25.782-29.569 7.572c-6.906 1.768-9.797 10.543-5.221 16.066l19.472 23.507-1.936 30.464c-1.52 23.861 34.293-1.48 42.04-1.325 7.782.155 43.543 24.926 42.04 1.325l-1.935-30.464 19.471-23.507c2.186-2.637 2.869-6.21 1.81-9.468zm-39.213 23.272a10 10 0 0 0-2.278 7.013l1.186 18.675-17.393-6.899c-2.458-.939-4.917-.939-7.375 0l-17.393 6.899 1.187-18.675a10 10 0 0 0-2.278-7.013l-11.937-14.41 18.126-4.642c7.393-1.892 12.259-14.265 15.982-20.14 3.663 5.78 8.66 18.266 15.982 20.14l18.126 4.642zM103.857 91.845c7.527 5.158 17.576-2.337 15.175-10.973-1.143-4.112-4.87-7.107-9.139-7.319-4.259-.211-8.285 2.416-9.815 6.39-1.648 4.284-.087 9.375 3.779 11.902z"/></svg>