<svg xmlns="http://www.w3.org/2000/svg" width="512" height="512" viewBox="0 0 510.896 510.896"  fill="#2d94f3" xmlns:v="https://vecta.io/nano"><path d="M7.5 318.938h25.756a7.5 7.5 0 1 0 0-15H7.5a7.5 7.5 0 1 0 0 15zM503.396 162.69a7.5 7.5 0 0 0-7.5 7.5v29.721c0 23.454-19.081 42.535-42.535 42.535H209.192v-6.014c0-16.376-13.323-29.699-29.699-29.699s-29.699 13.323-29.699 29.699v6.014h-38.977a7.5 7.5 0 0 0-6.082 3.111l-13.468 18.667-13.468-18.667a7.5 7.5 0 0 0-6.082-3.111H57.536C34.082 242.446 15 223.365 15 199.91V76.135C15 52.681 34.082 33.6 57.536 33.6h322.307a7.5 7.5 0 1 0 0-15H57.536C25.811 18.6 0 44.41 0 76.135V199.91c0 31.725 25.811 57.535 57.536 57.535H67.88L79.536 273.6c2.711 3.758 7.097 6.001 11.731 6.001a14.5 14.5 0 0 0 11.731-6.001l11.656-16.155h35.14v21.196a15.6 15.6 0 0 1-5.675 12.06l-33.091 27.374c-5.914-8.534-15.771-14.138-26.917-14.138H65.218a7.5 7.5 0 1 0 0 15h18.894c9.778 0 17.733 7.955 17.733 17.733v122.892c0 9.778-7.955 17.733-17.733 17.733H7.5a7.5 7.5 0 1 0 0 15h76.612c13.309 0 24.78-7.988 29.891-19.418 11.609 8.773 25.896 13.594 40.47 13.594h119.978c15.166 0 27.505-12.338 27.505-27.504 0-5.994-1.933-11.542-5.201-16.066 8.346-4.728 13.994-13.686 13.994-23.943a27.36 27.36 0 0 0-5.642-16.664c7.79-4.862 12.987-13.506 12.987-23.345 0-6.213-2.073-11.95-5.561-16.561 7.88-4.842 13.146-13.541 13.146-23.448 0-15.166-12.338-27.505-27.504-27.505h-68.21a11.64 11.64 0 0 1-8.287-3.432l-11.172-11.174c-.846-.846-1.312-1.972-1.312-3.169v-36.217h244.168c31.725 0 57.535-25.811 57.535-57.535V170.19a7.5 7.5 0 0 0-7.501-7.5zM211.071 318.612a26.54 26.54 0 0 0 18.894 7.825h68.21a12.52 12.52 0 0 1 12.504 12.505 12.52 12.52 0 0 1-12.504 12.504h-22.082a7.5 7.5 0 1 0 0 15h14.496c6.896 0 12.505 5.609 12.505 12.505a12.52 12.52 0 0 1-12.505 12.504h-14.496a7.5 7.5 0 1 0 0 15h7.152a12.52 12.52 0 0 1 12.504 12.505 12.52 12.52 0 0 1-12.504 12.504h-11.213a7.5 7.5 0 1 0 0 15h2.419c6.896 0 12.505 5.609 12.505 12.505a12.52 12.52 0 0 1-12.505 12.504H154.473a52.29 52.29 0 0 1-32.658-11.504l-4.97-3.998v-119.3a32.78 32.78 0 0 0-.222-3.755l37.058-30.657a30.56 30.56 0 0 0 11.113-23.617v-42.21a14.72 14.72 0 0 1 14.699-14.699 14.72 14.72 0 0 1 14.699 14.699v57.23c0 5.204 2.026 10.097 5.706 13.775zM453.361 18.6h-41.557a7.5 7.5 0 1 0 0 15h41.557c23.454 0 42.535 19.081 42.535 42.535v62.093a7.5 7.5 0 1 0 15 0V76.135c0-31.725-25.811-57.535-57.535-57.535zm-162.623 96.728a13.23 13.23 0 0 0-10.751-9.063l-8.464-1.229-3.785-7.669a13.23 13.23 0 0 0-11.942-7.425c-5.106 0-9.683 2.845-11.943 7.424l-3.785 7.67-8.464 1.229c-5.053.734-9.173 4.207-10.751 9.063s-.287 10.088 3.37 13.653l6.125 5.97-1.446 8.429c-.863 5.033 1.167 10.024 5.298 13.026 2.334 1.695 5.065 2.558 7.815 2.558 2.117 0 4.245-.511 6.21-1.544l7.57-3.98 7.569 3.979a13.23 13.23 0 0 0 14.024-1.012c4.132-3.002 6.163-7.992 5.3-13.027l-1.445-8.429 6.124-5.971a13.23 13.23 0 0 0 3.371-13.652zm-20.597 9.497c-3.14 3.06-4.572 7.467-3.831 11.79l1.019 5.941-5.337-2.806a13.3 13.3 0 0 0-6.195-1.529c-2.128 0-4.257.51-6.199 1.529l-5.335 2.806 1.019-5.941c.741-4.32-.69-8.727-3.831-11.789l-4.317-4.207 5.966-.867a13.32 13.32 0 0 0 10.027-7.285l2.668-5.406 2.669 5.407c1.94 3.931 5.689 6.654 10.027 7.284l5.965.866zm-62.968-9.497a13.23 13.23 0 0 0-10.751-9.063l-8.463-1.229-3.785-7.669a13.23 13.23 0 0 0-11.942-7.425c-5.106 0-9.683 2.845-11.943 7.424l-3.785 7.67-8.464 1.229a13.23 13.23 0 0 0-7.38 22.715l6.125 5.971-1.446 8.43a13.23 13.23 0 0 0 5.299 13.025c2.334 1.696 5.065 2.558 7.815 2.558a13.33 13.33 0 0 0 6.21-1.544l7.57-3.98 7.57 3.98c4.52 2.375 9.895 1.988 14.025-1.014s6.162-7.992 5.299-13.025l-1.446-8.43 6.125-5.971c3.654-3.564 4.945-8.795 3.367-13.652zm-20.597 9.498c-3.14 3.061-4.572 7.468-3.831 11.788l1.019 5.942-5.337-2.806c-1.94-1.02-4.067-1.529-6.196-1.529a13.33 13.33 0 0 0-6.198 1.529l-5.336 2.806 1.019-5.941c.741-4.321-.69-8.729-3.83-11.788l-4.317-4.208 5.966-.867a13.32 13.32 0 0 0 10.028-7.285l2.668-5.406 2.668 5.405a13.31 13.31 0 0 0 10.028 7.286l5.965.867zm-62.967-9.498a13.23 13.23 0 0 0-10.751-9.063l-8.464-1.229-3.785-7.67c-2.26-4.579-6.837-7.424-11.943-7.424a13.23 13.23 0 0 0-11.942 7.424l-3.785 7.67-8.464 1.229a13.23 13.23 0 0 0-7.38 22.716l6.125 5.97-1.446 8.429c-.863 5.033 1.167 10.024 5.298 13.026 2.334 1.696 5.066 2.558 7.816 2.558a13.33 13.33 0 0 0 6.21-1.544l7.57-3.98 7.57 3.98c4.52 2.375 9.894 1.988 14.025-1.014s6.162-7.992 5.299-13.026l-1.446-8.429 6.125-5.971c3.655-3.564 4.947-8.795 3.368-13.652zm-20.598 9.499a13.32 13.32 0 0 0-3.83 11.788l1.02 5.941-5.337-2.806c-3.879-2.038-8.512-2.039-12.394 0l-5.336 2.806 1.019-5.941c.741-4.32-.69-8.727-3.831-11.789l-4.317-4.207 5.966-.867c4.339-.63 8.087-3.354 10.027-7.285l2.668-5.406 2.668 5.407a13.32 13.32 0 0 0 10.027 7.284l5.966.867zm272.291-9.499c-1.578-4.856-5.698-8.329-10.752-9.063l-8.463-1.229-3.785-7.669c-2.26-4.579-6.835-7.425-11.941-7.425s-9.684 2.845-11.944 7.423v.002l-3.784 7.669-8.464 1.229a13.23 13.23 0 0 0-10.751 9.064c-1.578 4.856-.287 10.087 3.369 13.652l6.125 5.97-1.445 8.429a13.23 13.23 0 0 0 5.297 13.026 13.24 13.24 0 0 0 14.026 1.014l7.569-3.98 7.57 3.98c1.966 1.033 4.094 1.544 6.21 1.544 2.75 0 5.481-.862 7.816-2.558 4.131-3.002 6.161-7.993 5.298-13.025l-1.446-8.431 6.125-5.97c3.656-3.564 4.948-8.795 3.37-13.652zm-20.599 9.499c-3.14 3.062-4.57 7.469-3.829 11.787l1.02 5.942-5.338-2.807a13.31 13.31 0 0 0-6.195-1.528 13.33 13.33 0 0 0-6.198 1.529l-5.335 2.806 1.02-5.943a13.32 13.32 0 0 0-3.831-11.787l-4.317-4.207 5.967-.867a13.32 13.32 0 0 0 10.027-7.286l2.668-5.405 2.669 5.407a13.31 13.31 0 0 0 10.026 7.284l5.966.867zm43.773 10.123l-1.445 8.43a13.23 13.23 0 0 0 5.297 13.026 13.24 13.24 0 0 0 14.026 1.014l7.569-3.98 7.57 3.98c1.966 1.033 4.094 1.544 6.21 1.544 2.75 0 5.481-.862 7.816-2.558 4.131-3.002 6.161-7.993 5.298-13.025l-1.446-8.431 6.125-5.97c3.656-3.564 4.948-8.796 3.37-13.652s-5.698-8.329-10.752-9.063l-8.464-1.229-3.784-7.671c-2.261-4.579-6.838-7.423-11.944-7.423a13.23 13.23 0 0 0-11.941 7.425l-3.785 7.669-8.463 1.229c-5.054.734-9.174 4.207-10.752 9.063s-.286 10.088 3.37 13.653zm12.753-15.198a13.31 13.31 0 0 0 10.026-7.285l2.668-5.406 2.669 5.407c1.94 3.931 5.688 6.653 10.027 7.284l5.966.867-4.318 4.208c-3.14 3.062-4.57 7.469-3.829 11.787l1.02 5.942-5.338-2.807c-3.879-2.037-8.511-2.038-12.394.001l-5.336 2.806 1.019-5.939c.742-4.321-.688-8.729-3.829-11.791l-4.317-4.207z"/></svg>