<svg xmlns="http://www.w3.org/2000/svg" width="512" height="512" viewBox="0 0 60 60"  fill="#2d94f3" xmlns:v="https://vecta.io/nano"><path d="M57 0H3a3 3 0 0 0-3 3v40a3 3 0 0 0 3 3h3a1 1 0 1 0 0-2H3a1 1 0 0 1-1-1V10h56v33a1 1 0 0 1-1 1h-3a1 1 0 1 0 0 2h3a3 3 0 0 0 3-3V3a3 3 0 0 0-3-3zM2 8V3a1 1 0 0 1 1-1h54a1 1 0 0 1 1 1v5z"/><circle cx="5" cy="5" r="1"/><circle cx="9" cy="5" r="1"/><circle cx="13" cy="5" r="1"/><path d="M33 4h-6a1 1 0 1 0 0 2h6a1 1 0 1 0 0-2zm22 0H44a1 1 0 1 0 0 2h11a1 1 0 1 0 0-2zM5 15h2a1 1 0 1 0 0-2H5a1 1 0 1 0 0 2zm0 8h2a1 1 0 1 0 0-2H5a1 1 0 1 0 0 2zm15-10h-9a1 1 0 1 0 0 2h9a1 1 0 1 0 0-2zM5 19h8a1 1 0 1 0 0-2H5a1 1 0 1 0 0 2zm18 10v1c-2.76.003-4.997 2.24-5 5v1.054l-3.1-.932a2 2 0 0 1-1.167-2.905l2.13-3.72a1 1 0 1 0-1.736-.994L12 31.228a4 4 0 0 0 2.332 5.81L18 38.143V42.5l-3.67 1.376a2 2 0 0 1-2.541-1.086l-1.87-4.37a1 1 0 1 0-1.838.787l1.87 4.37a4 4 0 0 0 5.08 2.173L18 44.633V48c0 .286.023.567.043.849l-3.708 1.112A4 4 0 0 0 12 55.777l2.13 3.72a1 1 0 1 0 1.736-.994l-2.126-3.715a2.01 2.01 0 0 1-.115-1.745c.226-.564.699-.994 1.282-1.165l3.448-1.034c1.306 5.38 6.127 9.166 11.663 9.157s10.347-3.808 11.637-9.191l3.561 1.068a2 2 0 0 1 1.167 2.905l-2.13 3.72a1 1 0 1 0 1.736.994l2.132-3.725a4 4 0 0 0-2.333-5.81l-3.828-1.149c.018-.27.041-.538.041-.813v-3.412l3.091 1.159a4 4 0 0 0 5.078-2.173l1.87-4.37a1 1 0 1 0-1.838-.787l-1.87 4.369a2 2 0 0 1-2.539 1.088L42 42.452v-4.273l3.785-1.14a4 4 0 0 0 2.333-5.816l-2.13-3.72a1 1 0 1 0-1.736.994l2.128 3.715a2 2 0 0 1-1.168 2.911L42 36.09V35c-.003-2.76-2.24-4.997-5-5v-1a7 7 0 0 0-3.647-6.142c.461-1.36 1.529-2.427 2.889-2.888a1 1 0 1 0-.484-1.94 6.59 6.59 0 0 0-4.292 4.127c-.966-.209-1.966-.209-2.932 0a6.59 6.59 0 0 0-4.292-4.127 1 1 0 0 0-.492 1.938c1.364.459 2.437 1.527 2.9 2.89A7 7 0 0 0 23 29zm17 6v13c-.006 5.133-3.893 9.43-9 9.949V42a1 1 0 1 0-2 0v15.949c-5.107-.519-8.994-4.816-9-9.949V35a3 3 0 0 1 3-3h14a3 3 0 0 1 3 3zM30 24c2.76.003 4.997 2.24 5 5v1H25v-1c.003-2.76 2.24-4.997 5-5zm0 11a1 1 0 0 0-1 1v2a1 1 0 1 0 2 0v-2a1 1 0 0 0-1-1z"/></svg>