<?xml version="1.0" encoding="UTF-8"?>
<!DOCTYPE svg PUBLIC "-//W3C//DTD SVG 1.1//EN" "http://www.w3.org/Graphics/SVG/1.1/DTD/svg11.dtd">
<!-- Creator: CorelDRAW 2020 (64-Bit Evaluation Version) -->
<svg xmlns="http://www.w3.org/2000/svg" xml:space="preserve" width="210mm" height="297mm" version="1.1" style="shape-rendering:geometricPrecision; text-rendering:geometricPrecision; image-rendering:optimizeQuality; fill-rule:evenodd; clip-rule:evenodd"
viewBox="0 0 21000 29700"
 xmlns:xlink="http://www.w3.org/1999/xlink"
 xmlns:xodm="http://www.corel.com/coreldraw/odm/2003">
 <defs>
  <style type="text/css">
   <![CDATA[
    .str3 {stroke:#3DAA80;stroke-width:202.09;stroke-miterlimit:22.9256;stroke-opacity:0.109804}
    .str1 {stroke:#3DAA80;stroke-width:202.09;stroke-miterlimit:22.9256;stroke-opacity:0.149020}
    .str2 {stroke:#3DAA80;stroke-width:134.73;stroke-miterlimit:22.9256;stroke-opacity:0.156863}
    .str0 {stroke:#3DAA80;stroke-width:202.09;stroke-miterlimit:22.9256;stroke-opacity:0.200000}
    .str5 {stroke:#3DAA80;stroke-width:201.08;stroke-linecap:round;stroke-linejoin:round;stroke-miterlimit:22.9256;stroke-opacity:0.200000}
    .str6 {stroke:#2B2A29;stroke-width:20;stroke-miterlimit:22.9256}
    .str4 {stroke:#3DAA80;stroke-width:201.08;stroke-linecap:round;stroke-linejoin:round;stroke-miterlimit:22.9256}
    .fil7 {fill:none;fill-rule:nonzero}
    .fil4 {fill:none;fill-rule:nonzero}
    .fil2 {fill:none;fill-rule:nonzero}
    .fil3 {fill:none;fill-rule:nonzero}
    .fil1 {fill:none;fill-rule:nonzero}
    .fil11 {fill:#7688A1}
    .fil10 {fill:#3DAA80}
    .fil12 {fill:#9C6DFF}
    .fil5 {fill:white;fill-rule:nonzero}
    .fil0 {fill:#3DAA80;fill-rule:nonzero;fill-opacity:0.141176}
    .fil6 {fill:#3DAA80;fill-rule:nonzero;fill-opacity:0.301961}
    .fil9 {fill:white;fill-rule:nonzero;fill-opacity:0.501961}
    .fil8 {fill:#3DAA80;fill-rule:nonzero;fill-opacity:0.800000}
   ]]>
  </style>
 </defs>
 <g id="Layer_x0020_1">
  <metadata id="CorelCorpID_0Corel-Layer"/>
  <g id="_2987361445408">
   <path class="fil0" d="M8564.71 10650.85l-2197.21 2196.07c-530.83,530.43 -829.19,1250.44 -829.19,2000.84 0,750.16 298.36,1470.17 829.13,2000.59l2197.21 2196.09c530.81,530.12 1251.21,828.79 2001.68,828.79 0,0 0,0 0,0 0.28,0 0.28,0 0.28,0 750.47,0 1470.87,-298.67 2001.49,-828.95l2190.49 -2189.35c530.96,-530.26 829.32,-1250.27 829.32,-2000.67 0,-750.15 -298.36,-1470.16 -829.13,-2000.58l-2197.23 -2196.09c-527.83,-532.69 -1247.21,-833.38 -1997.2,-834.41 -1.27,0 -3.33,0 -4.71,0 -748.27,0 -1466.62,298.28 -1995.06,827.75l0.13 -0.08z"/>
   <path class="fil1 str0" d="M8039 10738.4c167.48,0 303.29,-135.73 303.29,-303.13 0,-167.43 -135.78,-303.13 -303.29,-303.13 -167.51,0 -303.29,135.73 -303.29,303.13 0.02,0.45 0.02,0.93 0.02,1.37 0,80.04 31.82,156.84 88.44,213.41 56.57,56.54 133.41,88.36 213.46,88.36 0.44,0 0.92,0 1.36,0l0.01 -0.01z"/>
   <path class="fil2 str1" d="M11408.95 19024.25c167.51,0 303.29,-135.73 303.29,-303.13 0,-167.43 -135.78,-303.13 -303.29,-303.13 -167.48,0 -303.29,135.73 -303.29,303.13 0,0.43 0,0.91 0,1.35 0,80.04 31.82,156.84 88.44,213.41 56.56,56.54 133.4,88.36 213.45,88.36 0.44,0 0.96,0 1.4,0l0 0.01z"/>
   <path class="fil3 str2" d="M13666.8 11142.61l0 134.73c0.02,74.41 60.34,134.72 134.75,134.72 0.02,0 0.07,0 0.08,0l134.78 0c0.02,0 0.03,0 0.05,0 74.41,0 134.73,-60.31 134.75,-134.72l0 -134.73c-0.02,-74.41 -60.34,-134.72 -134.75,-134.72 -0.02,0 -0.03,0 -0.05,0l-134.78 -0.01c-0.03,0.01 -0.04,0.01 -0.06,0.01 -74.41,0 -134.73,60.31 -134.75,134.72l-0.02 0z"/>
   <path class="fil4 str3" d="M5309.32 14510.83l0 134.73c0.04,74.42 60.36,134.73 134.77,134.73 0.02,0 0.03,0 0.05,0l134.8 -0.01c0.03,0.01 0.04,0.01 0.06,0.01 74.41,0 134.73,-60.31 134.75,-134.72l0 -134.73c-0.02,-74.42 -60.34,-134.73 -134.75,-134.73 -0.02,0 -0.03,0 -0.05,0l-134.82 -0.01c-0.01,0.01 -0.02,0.01 -0.04,0.01 -74.41,0 -134.73,60.31 -134.75,134.72l-0.02 0z"/>
   <path class="fil5" d="M6522.52 12287.77l0 5119.74c0,260.43 211.24,471.54 471.81,471.54l7144.27 0.01c260.59,0 471.81,-211.14 471.81,-471.54l0 -5119.75c0,-260.43 -211.22,-471.57 -471.81,-471.57l-7144.28 0.01c-125.15,0 -245.14,49.69 -333.64,138.11 -88.36,88.44 -138.14,208.38 -138.14,333.45 0,0 0,0 0,0l-0.02 0z"/>
   <path class="fil6" d="M8468.5 16818.5l738.06 0 0 -938.37 -738.03 0 0 938.37 -0.03 0zm-1341.96 0l738.08 0 0 -402.17 -738.06 0 0 402.17 -0.02 0zm2683.9 0l738.06 0 0 -1541.62 -738.06 0 0 1541.62zm1341.94 0l738.06 0 0 -2144.87 -738.06 0 0 2144.87z"/>
   <line class="fil7 str4" x1="7126.56" y1="14036.86" x2="8871.07" y2= "14036.86" />
   <line class="fil1 str5" x1="8468.5" y1="14707.12" x2="7126.54" y2= "14707.12" />
   <path class="fil8" d="M6522.52 12287.77l0 808.41 8087.89 0 0 -808.41c0,-260.43 -211.22,-471.57 -471.81,-471.57l-7144.28 0.01c-260.56,0 -471.81,211.14 -471.81,471.57l0.01 -0.01z"/>
   <path class="fil9" d="M7331.3 12691.98c0.04,0 0.07,0 0.09,0 111.6,0 202.12,-90.5 202.14,-202.09 -0.02,-111.58 -90.54,-202.08 -202.14,-202.08 -0.02,0 -0.05,0 -0.07,0 -0.01,0 -0.06,0 -0.06,0 -111.6,0 -202.12,90.5 -202.14,202.09 -0.02,1.11 -0.04,2.3 -0.04,3.44 0,109.71 88.97,198.68 198.68,198.68 1.16,0 2.4,-0.02 3.54,-0.02l0 -0.02zm674 0c0.02,0 0.07,0 0.07,0 111.6,0 202.12,-90.5 202.14,-202.09 -0.02,-111.58 -90.54,-202.08 -202.14,-202.08 0,0 -0.05,0 -0.05,0 -0.01,0 -0.06,0 -0.06,0 -111.6,0 -202.12,90.5 -202.14,202.09 -0.02,1.11 -0.04,2.3 -0.04,3.44 0,109.71 88.97,198.68 198.68,198.68 1.16,0 2.4,-0.02 3.54,-0.02l0 -0.02zm674 0c0.02,0 0.07,0 0.07,0 111.6,0 202.12,-90.5 202.14,-202.09 -0.02,-111.58 -90.54,-202.08 -202.14,-202.08 0,0 -0.05,0 -0.05,0 -0.01,0 -0.06,0 -0.06,0 -111.6,0 -202.12,90.5 -202.14,202.09 -0.02,1.11 -0.04,2.3 -0.04,3.44 0,109.71 88.97,198.68 198.68,198.68 1.16,0 2.4,-0.02 3.54,-0.02l0 -0.02z"/>
   <circle class="fil10" cx="14389.37" cy="15127.81" r="1415.52"/>
   <path class="fil5" d="M14812.89 14949.51l0 -318.77c0,-14.39 -7.22,-27.86 -19.29,-35.9 -7.27,-4.83 -15.8,-7.41 -24.53,-7.41 -5.6,0 -11.15,1.06 -16.35,3.13l-754.93 300.64 -243.15 0c-138.75,0 -251.62,111.63 -251.62,248.84 0,137.19 112.87,248.81 251.62,248.81l28.97 0 0 260.16c0,23.92 19.61,43.34 43.82,43.34l178.85 0c24.18,0 43.79,-19.42 43.79,-43.34l0 -239.26 702.65 279.45c5.2,2.07 10.76,3.14 16.36,3.14 8.72,0 17.26,-2.59 24.52,-7.43 12.07,-8.04 19.31,-21.51 19.31,-35.9l0 -318.77c87.84,-19.76 153.64,-97.58 153.64,-190.37 0,-92.76 -65.8,-170.6 -153.67,-190.37l0.01 0.01zm-60.16 1029.65l0 -199.18c38.81,16.77 66.04,55.09 66.04,99.59 0,44.5 -27.2,82.81 -66.04,99.59zm631.77 -881.32l-248.05 0c-24.21,0 -43.82,19.39 -43.82,43.34 0,23.92 19.61,43.31 43.82,43.31l248.05 0c24.21,0 43.82,-19.39 43.82,-43.31 0,-23.94 -19.61,-43.34 -43.82,-43.34zm-203.44 -317.45c-8.26,-8.11 -19.39,-12.67 -30.97,-12.67 -11.58,0 -22.71,4.56 -30.97,12.67l-85.57 84.59c-8.19,8.06 -12.82,19.1 -12.82,30.62 0,11.52 4.63,22.56 12.83,30.64 8.55,8.47 19.76,12.7 30.96,12.7 11.22,0 22.44,-4.23 31.01,-12.7l85.54 -84.61c8.18,-8.06 12.8,-19.1 12.8,-30.61 0,-11.51 -4.62,-22.55 -12.82,-30.62l0.01 -0.01zm3.23 656.24l-88.42 -87.44c-8.26,-8.14 -19.4,-12.7 -30.99,-12.7 -11.59,0 -22.73,4.56 -30.99,12.68 -8.19,8.08 -12.82,19.12 -12.82,30.64 0,11.52 4.63,22.56 12.83,30.64l88.42 87.44c8.57,8.47 19.76,12.7 30.98,12.7 11.22,0 22.44,-4.23 30.98,-12.7 8.2,-8.07 12.83,-19.11 12.83,-30.63 0,-11.52 -4.63,-22.56 -12.83,-30.64l0.01 0.01z"/>
  </g>
  <path class="fil11 str6" d="M6522.52 13096.18l8087.89 0 0 -390.79 0 -417.62c0,-260.43 -211.22,-471.57 -471.81,-471.57l-417.84 0 -6322.01 0.01 -404.43 0c-106.56,0 -209.37,36.02 -292.2,101.3 -14.52,11.47 -28.35,23.77 -41.42,36.83 -7.8,7.8 -15.34,15.87 -22.58,24.2 -74.23,85.51 -115.58,195.24 -115.6,309.23l0 404.21 0 404.2zm2156.74 -808.37c111.76,0 202.25,90.52 202.25,202.08 0,111.56 -90.51,202.09 -202.21,202.11 -114.33,0 -202.22,-88.45 -202.22,-198.66 0,-115.85 90.01,-205.53 202.18,-205.53zm-674 0c111.76,0 202.25,90.52 202.25,202.08 0,111.56 -90.51,202.09 -202.21,202.11 -114.33,0 -202.22,-88.45 -202.22,-198.66 0,-115.85 90.01,-205.53 202.18,-205.53zm-471.73 202.08c0,111.56 -90.5,202.09 -202.23,202.11 -114.33,0 -202.22,-88.45 -202.22,-198.66 0,-115.85 90.01,-205.53 202.18,-205.53 111.79,0 202.27,90.52 202.27,202.08z"/>
  <path class="fil12 str6" d="M7398.75 11816.21l6322.01 -0.01 -1159.21 -1158.61c-527.83,-532.69 -1247.21,-833.38 -1997.2,-834.41 -1.27,0 -3.33,0 -4.71,0 -748.27,0 -1466.62,298.28 -1994.93,827.67l-1165.96 1165.36z"/>
  <path class="fil11 str6" d="M13720.76 11816.2l-6322.01 0.01 -404.43 0c-106.56,0 -209.37,36.02 -292.2,101.3 -14.52,11.47 -28.35,23.77 -41.42,36.83 -7.8,7.8 -15.34,15.87 -22.58,24.2 -74.23,85.51 -115.58,195.24 -115.6,309.23l0 404.21 0 404.2 8087.89 0 0 -390.79 0 -417.62c0,-260.43 -211.22,-471.57 -471.81,-471.57l-417.84 0zm-5041.5 471.61c111.76,0 202.25,90.52 202.25,202.08 0,111.56 -90.51,202.09 -202.21,202.11 -114.33,0 -202.22,-88.45 -202.22,-198.66 0,-115.85 90.01,-205.53 202.18,-205.53zm-674 0c111.76,0 202.25,90.52 202.25,202.08 0,111.56 -90.51,202.09 -202.21,202.11 -114.33,0 -202.22,-88.45 -202.22,-198.66 0,-115.85 90.01,-205.53 202.18,-205.53zm-471.73 202.08c0,111.56 -90.5,202.09 -202.23,202.11 -114.33,0 -202.22,-88.45 -202.22,-198.66 0,-115.85 90.01,-205.53 202.18,-205.53 111.79,0 202.27,90.52 202.27,202.08z"/>
  <path class="fil11 str6" d="M13720.76 11816.2l-6322.01 0.01 -404.43 0c-106.56,0 -209.37,36.02 -292.2,101.3 -14.52,11.47 -28.35,23.77 -41.42,36.83 -7.8,7.8 -15.34,15.87 -22.58,24.2 -74.23,85.51 -115.58,195.24 -115.6,309.23l0 404.21 0 404.2 8087.89 0 0 -390.79 0 -417.62c0,-260.43 -211.22,-471.57 -471.81,-471.57l-417.84 0zm-5041.5 471.61c111.76,0 202.25,90.52 202.25,202.08 0,111.56 -90.51,202.09 -202.21,202.11 -114.33,0 -202.22,-88.45 -202.22,-198.66 0,-115.85 90.01,-205.53 202.18,-205.53zm-674 0c111.76,0 202.25,90.52 202.25,202.08 0,111.56 -90.51,202.09 -202.21,202.11 -114.33,0 -202.22,-88.45 -202.22,-198.66 0,-115.85 90.01,-205.53 202.18,-205.53zm-471.73 202.08c0,111.56 -90.5,202.09 -202.23,202.11 -114.33,0 -202.22,-88.45 -202.22,-198.66 0,-115.85 90.01,-205.53 202.18,-205.53 111.79,0 202.27,90.52 202.27,202.08z"/>
  <path class="fil11 str6" d="M6522.52 17003.35l0 -3907.17 0 -404.2 -155.02 154.94c-418.29,417.98 -692.23,953.67 -789.59,1529.19l1.04 0c74.49,0 134.79,60.32 134.8,134.73l0 134.73c-0.02,74.41 -60.34,134.72 -134.75,134.72l-39.89 0c-0.53,22.46 -0.8,44.95 -0.8,67.47 0,750.16 298.36,1470.17 829.13,2000.59l155.08 155z"/>
  <path class="fil11 str6" d="M13733.93 17879.06l-6335.26 -0.01 1165.98 1165.39c530.81,530.12 1251.21,828.79 2001.68,828.79 0.28,0 0.28,0 0.28,0 750.47,0 1470.87,-298.67 2001.49,-828.95l1165.83 -1165.22zm-2539.83 1056.82c-56.62,-56.57 -88.44,-133.37 -88.44,-213.41 0,-0.44 0,-0.92 0,-1.35 0,-167.4 135.81,-303.13 303.29,-303.13 167.51,0 303.29,135.7 303.29,303.13 0,167.4 -135.78,303.13 -303.29,303.12 -0.44,0 -0.96,0 -1.4,0 -80.05,0 -156.89,-31.82 -213.45,-88.36z"/>
  <path class="fil12 str6" d="M14610.41 13729.45c376.95,59.11 704.55,266.98 920.83,561.65 -109.89,-540.52 -376.5,-1041.73 -772.46,-1437.42l-148.37 -148.29 0 390.79 0 633.27z"/>
  <path class="fil12 str6" d="M6522.52 17003.35l0 -3907.17 0 -404.2 -155.02 154.94c-418.29,417.98 -692.23,953.67 -789.59,1529.19l1.04 0c74.49,0 134.79,60.32 134.8,134.73l0 134.73c-0.02,74.41 -60.34,134.72 -134.75,134.72l-39.89 0c-0.53,22.46 -0.8,44.95 -0.8,67.47 0,750.16 298.36,1470.17 829.13,2000.59l155.08 155z"/>
  <path class="fil12 str6" d="M13733.93 17879.06l-6335.26 -0.01 1165.98 1165.39c530.81,530.12 1251.21,828.79 2001.68,828.79 0.28,0 0.28,0 0.28,0 750.47,0 1470.87,-298.67 2001.49,-828.95l1165.83 -1165.22zm-2539.83 1056.82c-56.62,-56.57 -88.44,-133.37 -88.44,-213.41 0,-0.44 0,-0.92 0,-1.35 0,-167.4 135.81,-303.13 303.29,-303.13 167.51,0 303.29,135.7 303.29,303.13 0,167.4 -135.78,303.13 -303.29,303.12 -0.44,0 -0.96,0 -1.4,0 -80.05,0 -156.89,-31.82 -213.45,-88.36z"/>
  <path class="fil12 str6" d="M6522.52 13096.18l8087.89 0 0 -390.79 0 -417.62c0,-260.43 -211.22,-471.57 -471.81,-471.57l-417.84 0 -6322.01 0.01 -404.43 0c-106.56,0 -209.37,36.02 -292.2,101.3 -14.52,11.47 -28.35,23.77 -41.42,36.83 -7.8,7.8 -15.34,15.87 -22.58,24.2 -74.23,85.51 -115.58,195.24 -115.6,309.23l0 404.21 0 404.2zm2156.74 -808.37c111.76,0 202.25,90.52 202.25,202.08 0,111.56 -90.51,202.09 -202.21,202.11 -114.33,0 -202.22,-88.45 -202.22,-198.66 0,-115.85 90.01,-205.53 202.18,-205.53zm-674 0c111.76,0 202.25,90.52 202.25,202.08 0,111.56 -90.51,202.09 -202.21,202.11 -114.33,0 -202.22,-88.45 -202.22,-198.66 0,-115.85 90.01,-205.53 202.18,-205.53zm-471.73 202.08c0,111.56 -90.5,202.09 -202.23,202.11 -114.33,0 -202.22,-88.45 -202.22,-198.66 0,-115.85 90.01,-205.53 202.18,-205.53 111.79,0 202.27,90.52 202.27,202.08z"/>
  <polygon class="fil12 str6" points="11152.38,14673.63 11152.38,16818.5 11890.44,16818.5 11890.44,14673.63 "/>
  <polygon class="fil12 str6" points="10548.5,16818.5 10548.5,15276.88 9810.44,15276.88 9810.44,16818.5 "/>
  <polygon class="fil12 str6" points="9206.56,16818.5 9206.56,15880.13 8468.53,15880.13 8468.5,16818.5 "/>
  <polygon class="fil12 str6" points="7864.62,16818.5 7864.62,16416.33 7126.56,16416.33 7126.54,16818.5 "/>
  <path class="fil12 str6" d="M14389.37 13712.29c-781.77,0 -1415.52,633.75 -1415.52,1415.52 0,781.77 633.75,1415.52 1415.52,1415.52 75.19,0 149.02,-5.86 221.04,-17.16 214.87,-33.69 413.71,-115.72 585.03,-234.62 368.3,-255.58 609.45,-681.5 609.45,-1163.74 0,-313.03 -101.61,-602.33 -273.65,-836.71 -216.28,-294.67 -543.88,-502.54 -920.83,-561.65 -72.02,-11.3 -145.85,-17.16 -221.04,-17.16zm-391.58 1178.91l612.62 -243.97 142.31 -56.67c5.2,-2.07 10.75,-3.13 16.35,-3.13 8.73,0 17.26,2.58 24.53,7.41 12.07,8.04 19.29,21.51 19.29,35.9l-0.01 318.76c87.87,19.77 153.67,97.61 153.67,190.37 0,92.79 -65.8,170.61 -153.64,190.37l0 318.77c0,14.39 -7.24,27.86 -19.31,35.9 -7.26,4.84 -15.8,7.43 -24.52,7.43 -5.6,0 -11.16,-1.07 -16.36,-3.14l-142.31 -56.6 -560.34 -222.85 0 239.26c0,23.92 -19.61,43.34 -43.79,43.34l-178.85 0c-24.21,0 -43.82,-19.42 -43.82,-43.34l0 -260.16 -28.97 0c-138.75,0 -251.62,-111.62 -251.62,-248.81 0,-137.21 112.87,-248.84 251.62,-248.84l243.15 0zm754.94 1087.96l0 -199.18c38.81,16.77 66.04,55.09 66.04,99.59 0,44.5 -27.2,82.81 -66.04,99.59zm280.83 -1052.92c-8.2,-8.08 -12.83,-19.12 -12.83,-30.64 0,-11.52 4.63,-22.56 12.82,-30.62l85.57 -84.59c8.26,-8.11 19.39,-12.67 30.97,-12.67 11.58,0 22.71,4.56 30.96,12.68 8.2,8.07 12.82,19.11 12.82,30.62 0,11.51 -4.62,22.55 -12.8,30.61l-85.54 84.61c-8.57,8.47 -19.79,12.7 -31.01,12.7 -11.2,0 -22.41,-4.23 -30.96,-12.7zm102.89 171.6l248.05 0c24.21,0 43.82,19.4 43.82,43.34 0,23.92 -19.61,43.31 -43.82,43.31l-248.05 0c-24.21,0 -43.82,-19.39 -43.82,-43.31 0,-23.95 19.61,-43.34 43.82,-43.34zm-40.58 251.35l88.41 87.43c8.2,8.08 12.83,19.12 12.83,30.64 0,11.52 -4.63,22.56 -12.83,30.63 -8.54,8.47 -19.76,12.7 -30.98,12.7 -11.22,0 -22.41,-4.23 -30.98,-12.7l-88.42 -87.44c-8.2,-8.08 -12.83,-19.12 -12.83,-30.64 0,-11.52 4.63,-22.56 12.82,-30.64 8.26,-8.12 19.4,-12.68 30.99,-12.68 11.59,0 22.73,4.56 30.99,12.7z"/>
  <path class="fil12 str6" d="M8342.29 10435.27c0,-167.43 -135.78,-303.13 -303.29,-303.13 -167.51,0 -303.29,135.73 -303.29,303.13 0.02,0.45 0.02,0.93 0.02,1.37 0,80.04 31.82,156.84 88.44,213.41 56.57,56.54 133.41,88.36 213.46,88.36 0.44,0 0.92,0 1.37,-0.01 167.48,0 303.29,-135.73 303.29,-303.13z"/>
  <path class="fil12 str6" d="M13801.57 11007.89c-74.41,0 -134.73,60.31 -134.77,134.72l0 134.73c0.01,74.4 60.31,134.72 134.83,134.72l134.83 0c74.41,0 134.73,-60.31 134.75,-134.72l0 -134.73c-0.01,-74.4 -60.31,-134.72 -134.8,-134.72l-134.84 0z"/>
 </g>
</svg>
