<svg xmlns="http://www.w3.org/2000/svg" width="200" height="200" viewBox="0 0 150 150"  fill="rgb(17.647059%,58.039216%,95.294118%)" xmlns:v="https://vecta.io/nano"><path d="M62.531 10.031c-28.98 0-52.477 23.496-52.477 52.477s23.496 52.48 52.477 52.48 52.48-23.496 52.48-52.48c-.031-28.969-23.508-52.445-52.48-52.477zm0 4.996c15.438.012 29.902 7.535 38.777 20.168l-6.246 6.246a9.89 9.89 0 0 0-5.039-1.422 10 10 0 0 0-9.996 9.996 9.82 9.82 0 0 0 1.418 5.043L65.078 71.422a9.7 9.7 0 0 0-10.09 0L43.621 60.059c.922-1.523 1.41-3.266 1.418-5.047a9.98 9.98 0 0 0-19.637-2.5h-9.273c4.734-21.848 24.047-37.453 46.402-37.484zM95.02 50.016c0 2.758-2.234 4.996-4.996 4.996a5 5 0 0 1-5-4.996 5 5 0 0 1 5-5c2.762 0 4.996 2.238 4.996 5zM65.031 80.004A5 5 0 0 1 60.035 85a5 5 0 0 1-5-4.996 5 5 0 0 1 5-5 5 5 0 0 1 4.996 5zM40.043 55.012a5 5 0 0 1-5 5c-2.762 0-4.996-2.238-4.996-5s2.234-4.996 4.996-4.996 5 2.234 5 4.996zm45.563 49.016a47.45 47.45 0 0 1-23.074 5.965c-26.203.016-47.461-21.211-47.48-47.418a47.52 47.52 0 0 1 .27-5.062h10.082a10 10 0 0 0 9.641 7.496c1.781-.008 3.523-.496 5.047-1.418l11.363 11.367a9.86 9.86 0 0 0-1.414 5.047A10 10 0 0 0 60.035 90a10 10 0 0 0 9.996-9.996 9.86 9.86 0 0 0-1.418-5.047l16.363-16.363a9.9 9.9 0 0 0 5.047 1.418 10 10 0 0 0 9.996-9.996 9.86 9.86 0 0 0-1.418-5.047l5.449-5.445c12.719 22.906 4.461 51.785-18.445 64.504zm39.402-79.005a10 10 0 0 0 9.645-7.496H150v-5h-15.348a10 10 0 0 0-9.645-7.496 10 10 0 0 0-9.996 9.996 9.91 9.91 0 0 0 1.418 5.047l-4.391 4.391c-21.007-27.371-60.229-32.531-87.6-11.52s-32.527 60.23-11.52 87.602c19.832 25.836 56.184 32.102 83.523 14.398l31.191 31.191c5.117 5.117 13.414 5.117 18.527 0a13.1 13.1 0 0 0 0-18.527l-31.191-31.191a62.28 62.28 0 0 0 0-67.816l4.996-4.996a9.9 9.9 0 0 0 5.043 1.418zm0-14.992c2.762 0 5 2.234 5 4.996a5 5 0 0 1-5 5 5 5 0 0 1-4.996-5c0-2.762 2.238-4.996 4.996-4.996zm17.621 121.113a8.11 8.11 0 0 1 .129 11.461 8.11 8.11 0 0 1-11.461.129l-20.246-20.246 11.461-11.461zm-23.652-23.652l-11.461 11.461-6.918-6.918c.352-.27.684-.566 1.031-.844l1.121-.922 1.617-1.402.801-.75a66.86 66.86 0 0 0 2.977-2.977l.75-.801c.477-.527.941-1.07 1.402-1.617.313-.367.617-.742.922-1.121.273-.344.57-.676.84-1.027zm-9.691-11.609a54.98 54.98 0 0 1-2.457 3.215c-.25.305-.516.594-.773.891a55.54 55.54 0 0 1-2.371 2.59 40.37 40.37 0 0 1-1.082 1.082 53.28 53.28 0 0 1-2.586 2.371c-.301.25-.59.52-.895.773-1.035.859-2.113 1.668-3.215 2.457-25.867 18.48-61.824 12.492-80.305-13.379S3.109 34.059 28.977 15.578s61.828-12.492 80.309 13.375c14.301 20.02 14.301 46.914 0 66.93zm0 0"/></svg>