<?xml version="1.0" encoding="UTF-8"?>
<svg xmlns="http://www.w3.org/2000/svg" xmlns:xlink="http://www.w3.org/1999/xlink" width="150pt" height="150pt" viewBox="0 0 150 150" version="1.1">
<g id="surface1">
<path style=" stroke:none;fill-rule:nonzero;fill:rgb(17.647059%,58.039216%,95.294118%);fill-opacity:1;" d="M 62.53125 10.03125 C 33.550781 10.03125 10.054688 33.527344 10.054688 62.507812 C 10.054688 91.488281 33.550781 114.988281 62.53125 114.988281 C 91.511719 114.988281 115.011719 91.492188 115.011719 62.507812 C 114.980469 33.539062 91.503906 10.0625 62.53125 10.03125 Z M 62.53125 15.027344 C 77.96875 15.039062 92.433594 22.5625 101.308594 35.195312 L 95.0625 41.441406 C 93.539062 40.523438 91.800781 40.03125 90.023438 40.019531 C 84.503906 40.019531 80.027344 44.496094 80.027344 50.015625 C 80.035156 51.792969 80.523438 53.535156 81.445312 55.058594 L 65.078125 71.421875 C 61.980469 69.535156 58.085938 69.535156 54.988281 71.421875 L 43.621094 60.058594 C 44.542969 58.535156 45.03125 56.792969 45.039062 55.011719 C 45.03125 49.996094 41.296875 45.765625 36.320312 45.128906 C 31.34375 44.496094 26.667969 47.65625 25.402344 52.511719 L 16.128906 52.511719 C 20.863281 30.664062 40.175781 15.058594 62.53125 15.027344 Z M 95.019531 50.015625 C 95.019531 52.773438 92.785156 55.011719 90.023438 55.011719 C 87.265625 55.011719 85.027344 52.777344 85.023438 50.015625 C 85.023438 47.253906 87.261719 45.015625 90.023438 45.015625 C 92.785156 45.015625 95.019531 47.253906 95.019531 50.015625 Z M 65.03125 80.003906 C 65.027344 82.761719 62.792969 84.996094 60.035156 85 C 57.273438 85 55.039062 82.765625 55.035156 80.003906 C 55.035156 77.242188 57.273438 75.003906 60.035156 75.003906 C 62.792969 75.007812 65.03125 77.242188 65.03125 80.003906 Z M 40.042969 55.011719 C 40.042969 57.773438 37.804688 60.011719 35.042969 60.011719 C 32.28125 60.011719 30.046875 57.773438 30.046875 55.011719 C 30.046875 52.25 32.28125 50.015625 35.042969 50.015625 C 37.804688 50.015625 40.042969 52.25 40.042969 55.011719 Z M 85.605469 104.027344 C 78.546875 107.945312 70.605469 110 62.53125 109.992188 C 36.328125 110.007812 15.070312 88.78125 15.050781 62.574219 C 15.050781 60.882812 15.140625 59.195312 15.320312 57.511719 L 25.402344 57.511719 C 26.542969 61.910156 30.5 64.992188 35.046875 65.007812 C 36.824219 65 38.566406 64.511719 40.09375 63.589844 L 51.453125 74.957031 C 50.535156 76.480469 50.046875 78.226562 50.039062 80.003906 C 50.042969 85.523438 54.515625 89.996094 60.035156 90 C 65.554688 89.996094 70.027344 85.523438 70.03125 80.003906 C 70.023438 78.222656 69.53125 76.480469 68.613281 74.957031 L 84.976562 58.59375 C 86.5 59.511719 88.242188 60 90.023438 60.011719 C 95.542969 60.011719 100.015625 55.535156 100.019531 50.015625 C 100.011719 48.238281 99.519531 46.492188 98.601562 44.96875 L 104.050781 39.523438 C 116.769531 62.429688 108.511719 91.308594 85.605469 104.027344 Z M 125.007812 25.023438 C 129.554688 25.007812 133.515625 21.925781 134.652344 17.527344 L 150 17.527344 L 150 12.527344 L 134.652344 12.527344 C 133.515625 8.125 129.550781 5.046875 125.007812 5.03125 C 119.488281 5.035156 115.011719 9.507812 115.011719 15.027344 C 115.023438 16.804688 115.511719 18.550781 116.429688 20.074219 L 112.039062 24.464844 C 91.03125 -2.90625 51.808594 -8.066406 24.4375 12.945312 C -2.933594 33.957031 -8.089844 73.175781 12.917969 100.546875 C 32.75 126.382812 69.101562 132.648438 96.441406 114.945312 L 127.632812 146.136719 C 132.75 151.253906 141.046875 151.253906 146.160156 146.136719 C 151.277344 141.019531 151.277344 132.726562 146.160156 127.609375 L 114.96875 96.417969 C 128.355469 75.792969 128.355469 49.226562 114.96875 28.601562 L 119.964844 23.605469 C 121.488281 24.523438 123.230469 25.011719 125.007812 25.023438 Z M 125.007812 10.03125 C 127.769531 10.03125 130.007812 12.265625 130.007812 15.027344 C 130.007812 17.789062 127.769531 20.027344 125.007812 20.027344 C 122.25 20.023438 120.011719 17.785156 120.011719 15.027344 C 120.011719 12.265625 122.25 10.03125 125.007812 10.03125 Z M 142.628906 131.144531 C 145.828125 134.273438 145.882812 139.402344 142.757812 142.605469 C 139.628906 145.800781 134.5 145.859375 131.296875 142.734375 L 111.050781 122.488281 L 122.511719 111.027344 Z M 118.976562 107.492188 L 107.515625 118.953125 L 100.597656 112.035156 C 100.949219 111.765625 101.28125 111.46875 101.628906 111.191406 L 102.75 110.269531 L 104.367188 108.867188 L 105.167969 108.117188 C 106.191406 107.15625 107.183594 106.164062 108.144531 105.140625 L 108.894531 104.339844 C 109.371094 103.8125 109.835938 103.269531 110.296875 102.722656 C 110.609375 102.355469 110.914062 101.980469 111.21875 101.601562 C 111.492188 101.257812 111.789062 100.925781 112.058594 100.574219 Z M 109.285156 95.882812 C 108.507812 96.984375 107.6875 98.058594 106.828125 99.097656 C 106.578125 99.402344 106.3125 99.691406 106.054688 99.988281 C 105.292969 100.878906 104.503906 101.742188 103.683594 102.578125 C 103.332031 102.945312 102.96875 103.308594 102.601562 103.660156 C 101.765625 104.480469 100.90625 105.269531 100.015625 106.03125 C 99.714844 106.28125 99.425781 106.550781 99.121094 106.804688 C 98.085938 107.664062 97.007812 108.472656 95.90625 109.261719 C 70.039062 127.742188 34.082031 121.753906 15.601562 95.882812 C -2.878906 70.011719 3.109375 34.058594 28.976562 15.578125 C 54.84375 -2.902344 90.804688 3.085938 109.285156 28.953125 C 123.585938 48.972656 123.585938 75.867188 109.285156 95.882812 Z M 109.285156 95.882812 "/>
</g>
</svg>
