<?xml version="1.0" encoding="UTF-8"?>
<!DOCTYPE svg PUBLIC "-//W3C//DTD SVG 1.1//EN" "http://www.w3.org/Graphics/SVG/1.1/DTD/svg11.dtd">
<!-- Creator: CorelDRAW 2020 (64-Bit Evaluation Version) -->
<svg xmlns="http://www.w3.org/2000/svg" xml:space="preserve" width="210mm" height="297mm" version="1.1" style="shape-rendering:geometricPrecision; text-rendering:geometricPrecision; image-rendering:optimizeQuality; fill-rule:evenodd; clip-rule:evenodd"
viewBox="0 0 21000 29700"
 xmlns:xlink="http://www.w3.org/1999/xlink"
 xmlns:xodm="http://www.corel.com/coreldraw/odm/2003">
 <defs>
  <style type="text/css">
   <![CDATA[
    .str0 {stroke:#2B2A29;stroke-width:20;stroke-miterlimit:22.9256}
    .fil2 {fill:#9C6DFF}
    .fil1 {fill:black;fill-rule:nonzero}
    .fil0 {fill:#9C6DFF;fill-rule:nonzero}
   ]]>
  </style>
 </defs>
 <g id="Layer_x0020_1">
  <metadata id="CorelCorpID_0Corel-Layer"/>
  <g id="_2987374788320">
   <g>
    <path class="fil0" d="M21000 15445.92c0,-1216.97 -638.04,-2340.43 -1656.99,-2971.21 225.01,-468.89 342.52,-982.94 342.52,-1508.55 0,-1512.25 -1867.28,-2737.67 -3089.95,-3377.76 -130.55,-1807.65 -1642.31,-3238.4 -3481.82,-3238.4 -1040.4,0 -1992.13,420.21 -2642.8,1145.98 -656.41,-725.69 -1587.88,-1145.98 -2584.72,-1145.98 -1210.17,0 -2355.24,649.15 -2983.56,1682.38 -290.06,477.01 -463.19,1022.36 -499.65,1579.47 -0.21,3.24 -0.66,6.44 -0.86,9.68 -73.71,37.53 -163.08,84.53 -272.22,143.47 -274.44,148.15 -688.94,388.01 -1105.04,689.31 -1134.94,821.75 -1710.43,1666.83 -1710.43,2511.84 0,525.62 117.47,1039.66 342.48,1508.55 -1018.92,630.78 -1656.96,1754.24 -1656.96,2971.22 0,1176.08 583.78,2255.53 1546.25,2900.3 -152.29,397.85 -231.78,823.8 -231.78,1250.73 0,1261.8 666.5,2405.16 1751.98,3028.22 456.22,1590.05 2272.18,2724.83 4409.02,2724.83 1105.58,0 2187.86,-324.47 3022.24,-896.64 829.21,579.59 1890.53,896.64 3026.82,896.64 2136.83,0 3952.84,-1134.78 4409.02,-2724.83 1085.52,-623.03 1751.98,-1766.42 1751.98,-3028.22 0,-426.89 -79.49,-852.84 -231.78,-1250.73 962.47,-644.77 1546.25,-1724.18 1546.25,-2900.3zm-13524.53 9083.77c-1806.78,0 -3377.76,-973.96 -3654.21,-2265.54 -25.96,-121.32 -105.49,-224.4 -216.23,-280.3 -662.77,-334.52 -1141.71,-913.25 -1351.71,-1596.49 342.81,170.83 712.11,257.74 1097.29,257.74l1.23 0c558.06,0 1130.84,-204.5 1561.34,-558.55 169.48,-139.37 194.62,-409.54 56.81,-577.5 -138.47,-168.74 -409.17,-194.5 -577.21,-56.72 -297.36,243.63 -657.48,372.42 -1041.8,372.42 -459.91,0 -889.38,-188.79 -1200.08,-521.76 35.4,-325.87 129.9,-638.94 282.76,-933.88 104.06,-200.77 25.96,-447.85 -174.52,-552.4 -887.54,-462.75 -1438.83,-1371.2 -1438.83,-2370.79 0,-1045.41 615.4,-2000.66 1567.78,-2433.58 108.61,-49.38 190.39,-143.6 223.9,-258.11 33.51,-114.52 15.5,-237.97 -49.3,-338.13 -279.93,-432.47 -427.92,-933.88 -427.92,-1449.94 0,-972.4 1395.31,-1942.99 2326.78,-2451.3 168.57,852.88 652.52,1626.39 1365.16,2148.07 173.25,126.82 443.46,88.59 573.28,-88.68 133.79,-182.81 94.09,-439.44 -88.72,-573.23 -1034.54,-757.31 -1387.97,-2208.04 -813.13,-3353.56 449,-894.93 1386.25,-1477.15 2388.1,-1477.15 870.47,0 1676.1,419.14 2177.93,1126.99l0.04 41.38c-1.64,270.42 -2.38,870.43 -1.48,2226.49l-2281.7 0.01c-165.87,0 -315.41,99.91 -378.9,253.15 -63.49,153.23 -28.42,329.64 88.8,446.95 641.03,641.36 641.03,1684.88 0.04,2326.24 -621.84,622.21 -1704.45,620.32 -2324.44,0 -160.13,-160.21 -419.79,-160.29 -580.04,-0.12 -160.21,160.13 -160.29,419.84 -0.12,580.04 63.33,63.37 129.77,122.51 198.47,178.01l-1038.47 1066.48c-558.22,560.64 -557.57,1471.11 1.97,2030.93 548.63,548.95 1486.41,546.49 2032.57,0.04 160.13,-160.25 160.04,-419.92 -0.16,-580.04 -160.29,-160.13 -419.88,-160.08 -580,0.08 -225.87,225.96 -638.74,233.63 -872.16,0.08 -240.6,-240.72 -240.6,-632.42 0,-873.18 1.23,-1.27 2.5,-2.54 3.73,-3.81 0,0 1196.75,-1229.03 1196.88,-1229.2 13.95,-14.31 429.06,105.49 481.24,112.26 754.48,97.62 1523.4,-164.06 2060.71,-701.65 751.69,-752.1 915.14,-1873.31 490.38,-2785.95l1501.9 0c0.94,1049.02 2.63,2436.78 5.21,4273.54l-1004.19 0 0 -103.65c0,-226.53 -183.63,-410.16 -410.16,-410.16 -226.53,0 -410.16,183.63 -410.16,410.16l0 1027.48c0,226.53 183.63,410.16 410.16,410.16 226.53,0 410.16,-183.63 410.16,-410.16l0 -103.48 1005.34 0c0.29,193.96 2.99,2020.27 4.1,2714.21l-1148.03 0c-69.4,-191.38 -180.35,-370.9 -333.5,-524.14 -271.44,-271.61 -632.34,-421.15 -1016.24,-421.15 -383.9,0 -744.84,149.54 -1016.29,421.15 -160.13,160.25 -160.04,419.92 0.16,580.08 160.25,160.08 419.88,160.04 580.04,-0.12 544.65,-544.69 1437.35,307.66 872.12,873.14 -160.13,160.21 -160.08,419.92 0.12,580.04 154.51,154.42 421.52,158.48 580.04,-0.12 196.3,-196.42 323.57,-436.04 382.27,-688.53l1100.62 0.01c1.6,944.71 3.2,1839.02 4.8,2633.12l-3217.92 0c-108.81,0 -213.16,43.23 -290.1,120.22 -560.19,560.48 -560.19,1472.42 -0.04,2032.94 544.36,544.73 1491.21,541.69 2032.53,0.04 160.13,-160.25 160.08,-419.92 -0.12,-580.04 -160.25,-160.13 -419.84,-160.08 -579.96,0.04 -230.63,230.67 -643,229.4 -872.2,0.08 -203.72,-203.85 -234.98,-515.94 -93.64,-752.96l3023.17 -0.01c1.52,700.46 5.7,2143.03 6.36,2273.13 -705.14,503.34 -1645.34,789.18 -2612.61,789.18zm11265.43 -6712.95c-200.48,104.55 -278.58,351.63 -174.52,552.4 198.27,382.63 298.84,795.74 298.84,1227.84 0,1014.56 -563.35,1929.17 -1470.21,2386.9 -110.78,55.9 -190.27,158.98 -216.23,280.3 -276.49,1291.55 -1847.47,2265.51 -3654.25,2265.51 -980.15,0 -1921.17,-285.71 -2614.66,-788.73l-3.32 -2273.62 1482.51 0c149.21,634.55 719.46,1108.49 1398.63,1108.49 792.42,0 1437.11,-644.93 1437.11,-1437.64 0,-792.71 -644.68,-1437.64 -1437.11,-1437.64 -620.03,0 -1149.59,394.9 -1350.64,946.48l-1531.69 0 -3.81 -2633.12 3809.32 -0.01c176.94,593.46 727.21,1027.48 1377.18,1027.48 792.42,0 1437.11,-644.93 1437.11,-1437.64 0,-792.71 -644.68,-1437.64 -1437.11,-1437.64 -649.97,0 -1200.24,434.03 -1377.18,1027.48l-3810.56 0.01 -3.94 -2714.21 897.96 0c176.94,593.46 727.21,1027.48 1377.18,1027.48 792.42,0 1437.11,-644.93 1437.11,-1437.64 0,-792.71 -644.68,-1437.64 -1437.11,-1437.64 -649.97,0 -1200.24,434.03 -1377.18,1027.48l-899.14 0.01 -6.23 -4273.54 1198.02 0c182.48,584.39 728.56,1009.76 1372.1,1009.76 792.42,0 1437.11,-644.93 1437.11,-1437.64 0,-792.71 -644.68,-1437.64 -1437.11,-1437.64 -656.41,0 -1211.03,442.68 -1382.23,1045.2l-1189.09 0.01 -3.32 -2271.53c486.81,-705.63 1311.39,-1123.38 2229.32,-1123.38 1472.58,0 2670.65,1198.8 2670.65,2672.29 0,253.15 199.25,354.09 284.32,397.2 1751.04,886.96 2796.45,1906.16 2796.49,2726.35 0.04,1021.37 -669.09,2223.54 -1788.77,2259.67 -109.51,3.28 -211.23,49.22 -286.29,129.2 -75.06,79.57 -114.43,184.16 -110.74,293.67 3.28,107.05 47.58,207.13 124.69,281.78 76.7,74.65 178.01,115.66 285.06,115.66l1.22 0c3.69,0 7.75,0 11.44,-0.41 685.66,-77.27 1351.92,-336.08 1806.21,-874.99 781.72,482.27 1271.65,1342.7 1271.65,2275.19 0,999.59 -551.29,1908.04 -1438.79,2370.82zm-5570 3321.45c0,-340.39 276.69,-617.33 616.79,-617.33 340.1,0 616.79,276.94 616.79,617.33 0,340.39 -276.69,617.33 -616.79,617.33 -340.1,0 -616.79,-276.94 -616.79,-617.33zm2300.36 -3534.48c0,-340.39 276.69,-617.33 616.79,-617.33 340.1,0 616.79,276.94 616.79,617.33 0,340.39 -276.69,617.33 -616.79,617.33 -340.1,0 -616.79,-276.9 -616.79,-617.33zm-2916.5 -3534.52c0,-340.39 276.69,-617.33 616.79,-617.33 340.1,0 616.79,276.94 616.79,617.33 0,340.39 -276.69,617.33 -616.79,617.33 -340.1,0 -616.79,-276.95 -616.79,-617.33zm287.52 -5111.58c0,-340.39 276.69,-617.33 616.79,-617.33 340.1,0 616.79,276.94 616.79,617.33 0,340.39 -276.69,617.33 -616.79,617.33 -340.1,0 -616.79,-276.94 -616.79,-617.33z"/>
   </g>
  </g>
  <g id="_2987374788944">
   <g>
    <path class="fil1" d="M5432.11 17947.91c-114.02,-9.84 -227.23,28.71 -311.72,105.82 -76.29,69.73 -123.05,164.88 -131.66,267.83 -9.43,109.51 24.2,215.74 95.16,299.41 70.55,83.67 169.39,134.94 278.5,144.38 11.89,0.82 23.38,1.23 35.27,1.23 102.54,0 200.57,-38.14 276.45,-107.46 76.29,-69.73 123.05,-164.88 132.07,-267.83 0,-0.41 0,-0.41 -0.41,-0.41 18.86,-225.18 -148.48,-424.1 -373.66,-442.97z"/>
   </g>
  </g>
  <g id="_2987374787744">
   <g>
    <path class="fil1" d="M15884.53 12766c0,0 0,0 -0.41,-0.41 -76.7,-74.24 -178.01,-114.84 -284.65,-114.84 -112.38,0 -217.38,44.3 -295.31,125.1 -75.88,78.75 -116.89,182.52 -114.84,292.03 1.64,109.51 45.94,211.64 124.69,287.52 0,0 0,0.41 0.41,0.41 76.7,74.24 178.01,115.25 284.65,115.25 112.38,0 217.38,-44.71 295.31,-125.51 156.67,-162.43 152.57,-422.05 -9.85,-579.55z"/>
   </g>
  </g>
  <g id="_2987374785872">
  </g>
  <g id="_2987374786304">
  </g>
  <g id="_2987374784720">
  </g>
  <g id="_2987374783280">
  </g>
  <g id="_2987374770704">
  </g>
  <g id="_2987374767392">
  </g>
  <g id="_2987374767344">
  </g>
  <g id="_2987374819856">
  </g>
  <g id="_2987374811744">
  </g>
  <g id="_2987374807712">
  </g>
  <g id="_2987374807568">
  </g>
  <g id="_2987374808624">
  </g>
  <g id="_2987374804304">
  </g>
  <g id="_2987374803056">
  </g>
  <g id="_2987374802864">
  </g>
  <path class="fil2 str0" d="M15884.12 12765.59c-76.7,-74.24 -178.01,-114.84 -284.65,-114.84 -112.38,0 -217.38,44.3 -295.31,125.1 -75.88,78.75 -116.89,182.52 -114.84,292.03 1.64,109.51 45.94,211.64 124.69,287.52 0,0 0,0.41 0.41,0.41 76.7,74.24 178.01,115.25 284.65,115.25 112.38,0 217.38,-44.71 295.31,-125.51 156.67,-162.43 152.57,-422.05 -9.85,-579.55 0,0 0,0 -0.41,-0.41z"/>
  <path class="fil2 str0" d="M5674.11 18659.12c76.29,-69.73 123.05,-164.88 132.07,-267.83 0,-0.41 0,-0.41 -0.41,-0.41 18.86,-225.18 -148.48,-424.1 -373.66,-442.97 -114.02,-9.84 -227.23,28.71 -311.72,105.82 -76.29,69.73 -123.05,164.88 -131.66,267.83 -9.43,109.51 24.2,215.74 95.16,299.41 70.55,83.67 169.39,134.94 278.5,144.38 11.89,0.82 23.38,1.23 35.27,1.23 102.54,0 200.57,-38.14 276.45,-107.46z"/>
 </g>
</svg>
