<?xml version="1.0" standalone="no"?>
<!DOCTYPE svg PUBLIC "-//W3C//DTD SVG 20010904//EN"
 "http://www.w3.org/TR/2001/REC-SVG-20010904/DTD/svg10.dtd">
<svg version="1.0" xmlns="http://www.w3.org/2000/svg"
 width="512.000000pt" height="512.000000pt" viewBox="0 0 512.000000 512.000000"
 preserveAspectRatio="xMidYMid meet">
<metadata>
Created by potrace 1.11, written by Peter Selinger 2001-2013
</metadata>
<g transform="translate(0.000000,512.000000) scale(0.100000,-0.100000)"
fill="#000000" stroke="none">
<path d="M1380 4681 c-97 -32 -187 -116 -216 -203 -12 -36 -15 -72 -12 -127 5
-82 24 -129 76 -190 l29 -35 -61 -21 c-185 -65 -341 -242 -381 -433 -18 -85
-22 -1162 -4 -1258 6 -32 28 -97 50 -143 31 -66 54 -99 116 -161 78 -78 136
-114 243 -153 77 -27 324 -35 427 -14 136 29 272 115 351 222 51 68 96 160 87
175 -3 5 -22 10 -41 10 -19 0 -62 9 -95 20 -34 12 -63 20 -64 18 -1 -2 -12
-23 -25 -47 -26 -51 -98 -125 -149 -151 -81 -41 -147 -52 -275 -48 -162 6
-216 26 -307 117 -48 48 -72 82 -90 126 l-24 60 0 595 0 595 33 67 c42 85 105
148 190 190 l67 33 155 0 c153 0 156 0 220 -31 82 -39 124 -75 166 -139 63
-99 64 -111 64 -601 l0 -443 35 -26 c29 -23 137 -65 166 -65 5 0 9 207 9 503
0 550 -1 562 -60 682 -65 135 -209 262 -340 303 l-60 18 34 33 c55 53 80 122
81 216 0 63 -5 90 -23 126 -57 117 -151 180 -275 185 -40 2 -83 0 -97 -5z"/>
<path d="M2632 3144 c-104 -28 -182 -74 -267 -159 -87 -87 -131 -162 -162
-277 -16 -57 -18 -122 -18 -653 0 -650 0 -646 64 -773 63 -124 181 -236 301
-283 30 -12 56 -23 58 -25 2 -1 -12 -25 -31 -52 -92 -134 -71 -315 49 -420
158 -140 397 -93 496 98 27 53 36 163 19 227 -6 23 -27 64 -46 92 -18 28 -29
51 -23 51 5 0 48 18 95 40 158 74 288 234 328 402 12 51 15 157 15 555 l0 493
-44 -28 c-24 -16 -71 -37 -105 -47 l-61 -18 0 -412 c0 -449 -4 -497 -52 -588
-87 -164 -280 -237 -522 -197 -123 20 -239 109 -294 227 l-27 58 0 600 0 600
32 67 c40 85 106 151 191 191 66 32 69 32 222 32 155 0 155 0 221 -32 83 -41
170 -131 196 -203 10 -28 23 -50 29 -50 35 0 164 115 164 146 0 7 -23 47 -51
89 -83 123 -208 213 -346 249 -80 21 -354 21 -431 0z"/>
</g>
</svg>
